<?xml version="1.0" encoding="utf-8"?>
<!-- Generator: Adobe Adobe Illustrator 24.2.0, SVG Export Plug-In . SVG Version: 6.00 Build 0)  -->
<svg version="1.1" xmlns="http://www.w3.org/2000/svg" xmlns:xlink="http://www.w3.org/1999/xlink" x="0px" y="0px" width="274px"
	 height="132px" viewBox="0 0 274 132" style="enable-background:new 0 0 274 132;" xml:space="preserve" fill="#1a1a1a">
<style type="text/css">
	.st0{fill:#BC3F1C;}
	.st1{fill:#F7E7D7;}
	.st2{fill:#E7C85D;}
	.st3{fill:#DCA8A9;}
	.st4{fill:#4E4E4E;}
	.st5{fill:#9CBAB1;}
	.st6{fill:#27423F;}
	.st7{fill:#E8A342;}
	.st8{fill:#49542C;}
	.st9{fill:#999999;}
	.st10{fill:#FFFFFF;}
	.st11{fill:none;stroke:#FFFFFF;stroke-linejoin:round;stroke-miterlimit:10;}
	.st12{fill:none;stroke:#BC3F1C;stroke-linejoin:round;stroke-miterlimit:10;}
	.st13{fill:none;stroke:#FFFFFF;stroke-miterlimit:10;}
	.st14{fill:#EDC431;}
	.st15{fill:#313D7D;}
	.st16{fill:#B6242C;}
	.st17{clip-path:url(#SVGID_2_);}
	.st18{clip-path:url(#SVGID_4_);}
	.st19{clip-path:url(#SVGID_6_);}
	.st20{clip-path:url(#SVGID_8_);}
	.st21{fill:#E7C85D;stroke:#E7C85D;stroke-width:3;stroke-miterlimit:10;}
	.st22{fill:#CB2228;}
	.st23{fill:none;stroke:#27423F;stroke-width:2;stroke-miterlimit:10;}
	.st24{clip-path:url(#SVGID_10_);}
	.st25{fill:#222221;}
	.st26{fill:none;stroke:#000000;stroke-linecap:round;stroke-linejoin:round;stroke-miterlimit:10;}
	.st27{clip-path:url(#SVGID_12_);}
	.st28{clip-path:url(#SVGID_14_);}
	.st29{clip-path:url(#SVGID_14_);fill:#F7E7D7;stroke:#000000;stroke-linecap:round;stroke-linejoin:round;stroke-miterlimit:10;}
	.st30{clip-path:url(#SVGID_16_);}
	.st31{clip-path:url(#SVGID_18_);}
	.st32{clip-path:url(#SVGID_20_);}
	.st33{clip-path:url(#SVGID_22_);}
	.st34{clip-path:url(#SVGID_24_);}
	.st35{filter:url(#Adobe_OpacityMaskFilter);}
	.st36{mask:url(#SVGID_27_);}
	.st37{stroke:#FFFFFF;stroke-width:2;stroke-linecap:round;stroke-linejoin:round;stroke-miterlimit:10;}
	.st38{fill:none;stroke:#000000;stroke-width:0.5;stroke-miterlimit:10;}
	.st39{fill:#EDBC41;}
	.st40{fill:#0000F9;}
	.st41{fill:#A52B31;}
	.st42{fill:#212121;}
	.st43{fill:none;stroke:#FFFFFF;stroke-width:0.5;stroke-miterlimit:10;}
	.st44{fill:none;stroke:#FFFFFF;stroke-width:0.75;stroke-miterlimit:10;}
	.st45{fill:#606060;}
	.st46{fill:none;stroke:#E8A342;stroke-miterlimit:10;}
	.st47{filter:url(#Adobe_OpacityMaskFilter_1_);}
	.st48{mask:url(#SVGID_28_);fill:#E8A342;}
	.st49{fill:none;stroke:#202020;stroke-width:0.75;stroke-miterlimit:10;}
	.st50{fill:none;stroke:#F7E7D7;stroke-miterlimit:10;}
	.st51{fill:none;stroke:#000000;stroke-miterlimit:10;}
</style>
<g id="fondo">
	<g>
		<g>
			<g>
				<g>
					<path d="M251.48,93.22l-4.93-4.93l7.89-16.18L238.26,80l-4.93-4.93l23.88-11.15l5.48,5.48L251.48,93.22z"/>
					<path d="M233.37,52.72l4.93-4.93l16.18,7.89l-7.89-16.18l4.93-4.93l11.15,23.88l-5.48,5.48L233.37,52.72z"/>
				</g>
			</g>
			<g>
				<path d="M251.48,93.22l-4.93-4.93l7.89-16.18L238.26,80l-4.93-4.93l23.88-11.15l5.48,5.48L251.48,93.22z"/>
				<path d="M233.37,52.72l4.93-4.93l16.18,7.89l-7.89-16.18l4.93-4.93l11.15,23.88l-5.48,5.48L233.37,52.72z"/>
			</g>
			<g>
				<path d="M208.72,15.45l5.48,5.48L203.05,44.8l-4.93-4.93l7.89-16.18l-16.18,7.89l-4.93-4.93L208.72,15.45z"/>
				<path d="M214.2,20.92l5.48-5.48l23.88,11.15l-4.93,4.93l-16.18-7.89l7.89,16.18l-4.93,4.93L214.2,20.92z"/>
			</g>
			<g>
				<g>
					<path d="M219.69,112.38l-5.48-5.48l11.15-23.88l4.93,4.93l-7.89,16.18l16.18-7.89l4.93,4.93L219.69,112.38z"/>
					<path d="M214.21,106.91l-5.48,5.48l-23.88-11.15l4.93-4.93l16.18,7.89l-7.89-16.18l4.93-4.93L214.21,106.91z"/>
				</g>
			</g>
			<g>
				<path d="M219.69,112.38l-5.48-5.48l11.15-23.88l4.93,4.93l-7.89,16.18l16.18-7.89l4.93,4.93L219.69,112.38z"/>
				<path d="M214.21,106.91l-5.48,5.48l-23.88-11.15l4.93-4.93l16.18,7.89l-7.89-16.18l4.93-4.93L214.21,106.91z"/>
			</g>
			<g>
				<path d="M176.93,34.61l4.93,4.93l-7.89,16.18l16.18-7.89l4.93,4.93l-23.88,11.15l-5.48-5.48L176.93,34.61z"/>
				<path d="M195.04,75.11l-4.93,4.93l-16.18-7.89l7.89,16.18l-4.93,4.93l-11.15-23.88l5.48-5.48L195.04,75.11z"/>
			</g>
		</g>
		<g>
			<g>
				<g>
					<path d="M71.4,44.39h4.71l4.71,13.51l4.68-13.51h4.71l-6.78,18.67h-5.26L71.4,44.39z"/>
					<path d="M93.03,43.97h4.68v3.37h-4.68V43.97z M93.11,48.91h4.52v14.14h-4.52V48.91z"/>
					<path d="M102.31,59.03V44.39h4.52v14.14c0,0.92,0.42,1.26,1.21,1.26h0.87v3.26h-2.6C103.78,63.05,102.31,61.89,102.31,59.03z"
						/>
					<path d="M112.25,59.03V44.39h4.52v14.14c0,0.92,0.42,1.26,1.21,1.26h0.87v3.26h-2.6C113.72,63.05,112.25,61.89,112.25,59.03z"
						/>
					<path d="M121.66,59.5c0-2.5,1.66-3.76,4.73-4.39l4.39-0.89c0-1.66-0.74-2.52-2.08-2.52c-1.34,0-2.08,0.66-2.29,1.87l-4.52-0.16
						c0.55-3.26,2.97-4.81,6.81-4.81c4.42,0,6.6,2.02,6.6,5.97v4.47c0,0.87,0.32,1.08,0.84,1.08h0.34v2.94
						c-0.29,0.08-1.03,0.18-1.6,0.18c-1.37,0-2.81-0.45-3.21-2.26l-0.03-0.08c-0.74,1.52-2.39,2.47-4.94,2.47
						C123.74,63.37,121.66,61.95,121.66,59.5z M130.78,57.45v-0.58l-2.73,0.63c-1.1,0.24-1.74,0.76-1.74,1.58
						c0,0.84,0.53,1.34,1.58,1.34C129.58,60.42,130.78,59.37,130.78,57.45z"/>
					<path d="M16.47,69.47h5.31l6.73,18.67h-4.71l-1.21-3.52h-6.94l-1.24,3.52H9.74L16.47,69.47z M21.36,80.98l-2.21-6.57
						l-2.26,6.57H21.36z"/>
					<path d="M30.72,81.06c0-4.52,2.29-7.39,5.76-7.39c2.05,0,3.5,0.89,4.23,2.34v-6.55h4.52v18.67h-4.36l-0.08-2.05
						c-0.79,1.5-2.37,2.37-4.31,2.37C32.93,88.45,30.72,85.59,30.72,81.06z M40.71,81.06c0-2.76-0.95-4.05-2.66-4.05
						c-1.66,0-2.68,1.55-2.68,4.05c0,2.44,1.08,4.05,2.68,4.05C39.74,85.11,40.71,83.8,40.71,81.06z"/>
					<path d="M49.05,81.06c0-4.44,2.92-7.39,7.33-7.39c4.39,0,7.18,2.97,7.18,7.73v0.84h-9.83c0.08,1.97,1.16,2.92,2.76,2.92
						c1.18,0,2.02-0.45,2.37-1.52l4.52,0.26c-0.79,2.94-3.42,4.55-6.97,4.55C51.97,88.45,49.05,85.53,49.05,81.06z M58.98,79.67
						c-0.08-1.87-1.08-2.79-2.6-2.79c-1.47,0-2.5,1.03-2.66,2.79H58.98z"/>
					<path d="M67.5,84.11V69.47h4.52v14.14c0,0.92,0.42,1.26,1.21,1.26h0.87v3.26h-2.6C68.98,88.14,67.5,86.98,67.5,84.11z"/>
					<path d="M76.92,84.59c0-2.5,1.66-3.76,4.73-4.39l4.39-0.89c0-1.66-0.74-2.52-2.08-2.52c-1.34,0-2.08,0.66-2.29,1.87l-4.52-0.16
						c0.55-3.26,2.97-4.81,6.81-4.81c4.42,0,6.6,2.02,6.6,5.97v4.47c0,0.87,0.32,1.08,0.84,1.08h0.34v2.94
						c-0.29,0.08-1.03,0.18-1.6,0.18c-1.37,0-2.81-0.45-3.21-2.26l-0.03-0.08c-0.74,1.52-2.39,2.47-4.94,2.47
						C78.99,88.45,76.92,87.03,76.92,84.59z M86.04,82.54v-0.58l-2.73,0.63c-1.1,0.24-1.74,0.76-1.74,1.58
						c0,0.84,0.53,1.34,1.58,1.34C84.83,85.51,86.04,84.45,86.04,82.54z"/>
					<path d="M94.92,69.05h4.68v3.37h-4.68V69.05z M95,73.99h4.52v14.14H95V73.99z"/>
					<path d="M103.34,81.06c0-4.52,2.29-7.39,5.76-7.39c2.05,0,3.5,0.89,4.23,2.34v-6.55h4.52v18.67h-4.36l-0.08-2.05
						c-0.79,1.5-2.37,2.37-4.31,2.37C105.55,88.45,103.34,85.59,103.34,81.06z M113.33,81.06c0-2.76-0.95-4.05-2.66-4.05
						c-1.66,0-2.68,1.55-2.68,4.05c0,2.44,1.08,4.05,2.68,4.05C112.35,85.11,113.33,83.8,113.33,81.06z"/>
					<path d="M121.66,84.59c0-2.5,1.66-3.76,4.73-4.39l4.39-0.89c0-1.66-0.74-2.52-2.08-2.52c-1.34,0-2.08,0.66-2.29,1.87
						l-4.52-0.16c0.55-3.26,2.97-4.81,6.81-4.81c4.42,0,6.6,2.02,6.6,5.97v4.47c0,0.87,0.32,1.08,0.84,1.08h0.34v2.94
						c-0.29,0.08-1.03,0.18-1.6,0.18c-1.37,0-2.81-0.45-3.21-2.26l-0.03-0.08c-0.74,1.52-2.39,2.47-4.94,2.47
						C123.74,88.45,121.66,87.03,121.66,84.59z M130.78,82.54v-0.58l-2.73,0.63c-1.1,0.24-1.74,0.76-1.74,1.58
						c0,0.84,0.53,1.34,1.58,1.34C129.58,85.51,130.78,84.45,130.78,82.54z"/>
				</g>
			</g>
		</g>
	</g>
</g>
<g id="Capa_2">
</g>
</svg>
