<?xml version="1.0" encoding="utf-8"?>
<!-- Generator: Adobe Adobe Illustrator 24.2.0, SVG Export Plug-In . SVG Version: 6.00 Build 0)  -->
<svg version="1.1" xmlns="http://www.w3.org/2000/svg" xmlns:xlink="http://www.w3.org/1999/xlink" x="0px" y="0px" width="139px"
	 height="184px" viewBox="0 0 139 184" style="enable-background:new 0 0 139 184;" xml:space="preserve" fill="#1a1a1a">
<style type="text/css">
	.st0{fill:#BC3F1C;}
	.st1{fill:#F7E7D7;}
	.st2{fill:#E7C85D;}
	.st3{fill:#DCA8A9;}
	.st4{fill:#4E4E4E;}
	.st5{fill:#9CBAB1;}
	.st6{fill:#27423F;}
	.st7{fill:#E8A342;}
	.st8{fill:#49542C;}
	.st9{fill:#999999;}
	.st10{fill:#FFFFFF;}
	.st11{fill:none;stroke:#FFFFFF;stroke-linejoin:round;stroke-miterlimit:10;}
	.st12{fill:none;stroke:#BC3F1C;stroke-linejoin:round;stroke-miterlimit:10;}
	.st13{fill:none;stroke:#FFFFFF;stroke-miterlimit:10;}
	.st14{fill:#EDC431;}
	.st15{fill:#313D7D;}
	.st16{fill:#B6242C;}
	.st17{clip-path:url(#SVGID_2_);}
	.st18{clip-path:url(#SVGID_4_);}
	.st19{clip-path:url(#SVGID_6_);}
	.st20{clip-path:url(#SVGID_8_);}
	.st21{fill:#E7C85D;stroke:#E7C85D;stroke-width:3;stroke-miterlimit:10;}
	.st22{fill:#CB2228;}
	.st23{fill:none;stroke:#27423F;stroke-width:2;stroke-miterlimit:10;}
	.st24{clip-path:url(#SVGID_10_);}
	.st25{fill:#222221;}
	.st26{fill:none;stroke:#000000;stroke-linecap:round;stroke-linejoin:round;stroke-miterlimit:10;}
	.st27{clip-path:url(#SVGID_12_);}
	.st28{clip-path:url(#SVGID_14_);}
	.st29{clip-path:url(#SVGID_14_);fill:#F7E7D7;stroke:#000000;stroke-linecap:round;stroke-linejoin:round;stroke-miterlimit:10;}
	.st30{clip-path:url(#SVGID_16_);}
	.st31{clip-path:url(#SVGID_18_);}
	.st32{clip-path:url(#SVGID_20_);}
	.st33{clip-path:url(#SVGID_22_);}
	.st34{clip-path:url(#SVGID_24_);}
	.st35{filter:url(#Adobe_OpacityMaskFilter);}
	.st36{mask:url(#SVGID_27_);}
	.st37{stroke:#FFFFFF;stroke-width:2;stroke-linecap:round;stroke-linejoin:round;stroke-miterlimit:10;}
	.st38{fill:none;stroke:#000000;stroke-width:0.5;stroke-miterlimit:10;}
	.st39{fill:#EDBC41;}
	.st40{fill:#0000F9;}
	.st41{fill:#A52B31;}
	.st42{fill:#212121;}
	.st43{fill:none;stroke:#FFFFFF;stroke-width:0.5;stroke-miterlimit:10;}
	.st44{fill:none;stroke:#FFFFFF;stroke-width:0.75;stroke-miterlimit:10;}
	.st45{fill:#606060;}
	.st46{fill:none;stroke:#E8A342;stroke-miterlimit:10;}
	.st47{filter:url(#Adobe_OpacityMaskFilter_1_);}
	.st48{mask:url(#SVGID_28_);fill:#E8A342;}
	.st49{fill:none;stroke:#202020;stroke-width:0.75;stroke-miterlimit:10;}
	.st50{fill:none;stroke:#F7E7D7;stroke-miterlimit:10;}
	.st51{fill:none;stroke:#000000;stroke-miterlimit:10;}
</style>
<g id="fondo">
	<g>
		<g>
			<g>
				<g>
					<g>
						<path d="M105.7,98.99l-4.79-4.79l7.67-15.72l-15.71,7.67l-4.79-4.79l23.19-10.83l5.32,5.32L105.7,98.99z"/>
						<path d="M88.12,59.66l4.79-4.79l15.72,7.67l-7.67-15.71l4.79-4.79l10.83,23.19l-5.32,5.32L88.12,59.66z"/>
					</g>
				</g>
				<g>
					<path d="M105.7,98.99l-4.79-4.79l7.67-15.72l-15.71,7.67l-4.79-4.79l23.19-10.83l5.32,5.32L105.7,98.99z"/>
					<path d="M88.12,59.66l4.79-4.79l15.72,7.67l-7.67-15.71l4.79-4.79l10.83,23.19l-5.32,5.32L88.12,59.66z"/>
				</g>
				<g>
					<path d="M64.18,23.45l5.32,5.32L58.67,51.96l-4.79-4.79l7.67-15.71l-15.72,7.67l-4.79-4.79L64.18,23.45z"/>
					<path d="M69.49,28.77l5.32-5.32L98,34.28l-4.79,4.79L77.49,31.4l7.67,15.72l-4.79,4.79L69.49,28.77z"/>
				</g>
				<g>
					<g>
						<path d="M74.82,117.6l-5.32-5.32l10.83-23.19l4.79,4.79l-7.67,15.71l15.72-7.67l4.79,4.79L74.82,117.6z"/>
						<path d="M69.51,112.28l-5.32,5.32L41,106.77l4.79-4.79l15.71,7.67l-7.67-15.72l4.79-4.79L69.51,112.28z"/>
					</g>
				</g>
				<g>
					<path d="M74.82,117.6l-5.32-5.32l10.83-23.19l4.79,4.79l-7.67,15.71l15.72-7.67l4.79,4.79L74.82,117.6z"/>
					<path d="M69.51,112.28l-5.32,5.32L41,106.77l4.79-4.79l15.71,7.67l-7.67-15.72l4.79-4.79L69.51,112.28z"/>
				</g>
				<g>
					<path d="M33.3,42.06l4.79,4.79l-7.67,15.72l15.71-7.67l4.79,4.79L27.74,70.52l-5.32-5.32L33.3,42.06z"/>
					<path d="M50.88,81.4l-4.79,4.79l-15.72-7.67l7.67,15.71l-4.79,4.79L22.42,75.84l5.32-5.32L50.88,81.4z"/>
				</g>
			</g>
		</g>
		<g>
			<g>
				<g>
					<path d="M48.24,131.69h3.08l3.08,8.85l3.06-8.85h3.08l-4.44,12.22h-3.44L48.24,131.69z"/>
					<path d="M62.41,131.41h3.06v2.2h-3.06V131.41z M62.47,134.65h2.96v9.26h-2.96V134.65z"/>
					<path d="M68.49,141.28v-9.59h2.96v9.26c0,0.6,0.28,0.83,0.79,0.83h0.57v2.13h-1.7C69.46,143.91,68.49,143.16,68.49,141.28z"/>
					<path d="M75,141.28v-9.59h2.96v9.26c0,0.6,0.28,0.83,0.79,0.83h0.57v2.13h-1.7C75.97,143.91,75,143.16,75,141.28z"/>
					<path d="M81.17,141.59c0-1.64,1.08-2.46,3.1-2.88l2.88-0.59c0-1.08-0.48-1.65-1.36-1.65c-0.88,0-1.36,0.43-1.5,1.22l-2.96-0.1
						c0.36-2.13,1.95-3.15,4.46-3.15c2.89,0,4.32,1.33,4.32,3.91v2.93c0,0.57,0.21,0.71,0.55,0.71h0.22v1.93
						c-0.19,0.05-0.67,0.12-1.05,0.12c-0.9,0-1.84-0.29-2.1-1.48l-0.02-0.05c-0.48,1-1.57,1.62-3.24,1.62
						C82.53,144.12,81.17,143.19,81.17,141.59z M87.14,140.25v-0.38l-1.79,0.41c-0.72,0.15-1.14,0.5-1.14,1.03
						c0,0.55,0.34,0.88,1.03,0.88C86.35,142.19,87.14,141.5,87.14,140.25z"/>
					<path d="M32.46,148.12h3.48l4.41,12.22h-3.08l-0.79-2.31h-4.55l-0.81,2.31h-3.06L32.46,148.12z M35.66,155.66l-1.45-4.3
						l-1.48,4.3H35.66z"/>
					<path d="M41.79,155.71c0-2.96,1.5-4.84,3.77-4.84c1.34,0,2.29,0.59,2.77,1.53v-4.29h2.96v12.22h-2.86L48.39,159
						c-0.52,0.98-1.55,1.55-2.82,1.55C43.24,160.55,41.79,158.67,41.79,155.71z M48.34,155.71c0-1.81-0.62-2.65-1.74-2.65
						c-1.08,0-1.76,1.02-1.76,2.65c0,1.6,0.71,2.65,1.76,2.65C47.7,158.36,48.34,157.5,48.34,155.71z"/>
					<path d="M53.8,155.71c0-2.91,1.91-4.84,4.8-4.84c2.88,0,4.7,1.95,4.7,5.06v0.55h-6.44c0.05,1.29,0.76,1.91,1.81,1.91
						c0.77,0,1.33-0.29,1.55-1l2.96,0.17c-0.52,1.93-2.24,2.98-4.56,2.98C55.71,160.55,53.8,158.64,53.8,155.71z M60.3,154.8
						c-0.05-1.22-0.71-1.83-1.7-1.83c-0.96,0-1.64,0.67-1.74,1.83H60.3z"/>
					<path d="M65.88,157.71v-9.59h2.96v9.26c0,0.6,0.28,0.83,0.79,0.83h0.57v2.13h-1.7C66.85,160.34,65.88,159.59,65.88,157.71z"/>
					<path d="M72.05,158.02c0-1.64,1.08-2.46,3.1-2.88l2.88-0.59c0-1.08-0.48-1.65-1.36-1.65c-0.88,0-1.36,0.43-1.5,1.22l-2.96-0.1
						c0.36-2.13,1.95-3.15,4.46-3.15c2.89,0,4.32,1.33,4.32,3.91v2.93c0,0.57,0.21,0.71,0.55,0.71h0.22v1.93
						c-0.19,0.05-0.67,0.12-1.05,0.12c-0.9,0-1.84-0.29-2.1-1.48l-0.02-0.05c-0.48,1-1.57,1.62-3.24,1.62
						C73.41,160.55,72.05,159.62,72.05,158.02z M78.02,156.68v-0.38l-1.79,0.41c-0.72,0.15-1.14,0.5-1.14,1.03
						c0,0.55,0.34,0.88,1.03,0.88C77.23,158.62,78.02,157.93,78.02,156.68z"/>
					<path d="M83.84,147.84h3.06v2.2h-3.06V147.84z M83.9,151.08h2.96v9.26H83.9V151.08z"/>
					<path d="M89.35,155.71c0-2.96,1.5-4.84,3.77-4.84c1.34,0,2.29,0.59,2.77,1.53v-4.29h2.96v12.22H96L95.95,159
						c-0.52,0.98-1.55,1.55-2.82,1.55C90.8,160.55,89.35,158.67,89.35,155.71z M95.9,155.71c0-1.81-0.62-2.65-1.74-2.65
						c-1.08,0-1.76,1.02-1.76,2.65c0,1.6,0.71,2.65,1.76,2.65C95.26,158.36,95.9,157.5,95.9,155.71z"/>
					<path d="M101.36,158.02c0-1.64,1.08-2.46,3.1-2.88l2.88-0.59c0-1.08-0.48-1.65-1.36-1.65c-0.88,0-1.36,0.43-1.5,1.22l-2.96-0.1
						c0.36-2.13,1.95-3.15,4.46-3.15c2.89,0,4.32,1.33,4.32,3.91v2.93c0,0.57,0.21,0.71,0.55,0.71h0.22v1.93
						c-0.19,0.05-0.67,0.12-1.05,0.12c-0.9,0-1.84-0.29-2.1-1.48l-0.02-0.05c-0.48,1-1.57,1.62-3.24,1.62
						C102.72,160.55,101.36,159.62,101.36,158.02z M107.33,156.68v-0.38l-1.79,0.41c-0.72,0.15-1.14,0.5-1.14,1.03
						c0,0.55,0.34,0.88,1.03,0.88C106.54,158.62,107.33,157.93,107.33,156.68z"/>
				</g>
			</g>
		</g>
	</g>
</g>
<g id="Capa_2">
</g>
</svg>
