<?xml version="1.0" encoding="utf-8"?>
<!-- Generator: Adobe Adobe Illustrator 24.2.0, SVG Export Plug-In . SVG Version: 6.00 Build 0)  -->
<svg version="1.1" xmlns="http://www.w3.org/2000/svg" xmlns:xlink="http://www.w3.org/1999/xlink" x="0px" y="0px" width="237.4px"
	 height="194.4px" viewBox="0 0 237.4 194.4" style="enable-background:new 0 0 237.4 194.4;" xml:space="preserve" fill="#1a1a1a">
<style type="text/css">
	.st0{fill:#1a1a1a;}
	.st1{fill:#1a1a1a;}
	.st2{fill:#1a1a1a;}
	.st3{fill:#1a1a1a;}
	.st4{fill:#1a1a1a;}
	.st5{fill:#1a1a1a;}
	.st6{fill:#1a1a1a;}
	.st7{fill:#1a1a1a;}
	.st8{fill:#1a1a1a;}
	.st9{fill:#1a1a1a;}
	.st10{fill:#1a1a1a;}
	.st11{fill:none;stroke:#1a1a1a;stroke-linejoin:round;stroke-miterlimit:10;}
	.st12{fill:none;stroke:#1a1a1a;stroke-linejoin:round;stroke-miterlimit:10;}
	.st13{fill:none;stroke:#1a1a1a;stroke-miterlimit:10;}
	.st14{fill:#1a1a1a;}
	.st15{fill:#1a1a1a;}
	.st16{fill:#1a1a1a;}
	.st17{clip-path:url(#SVGID_2_);}
	.st18{clip-path:url(#SVGID_4_);}
	.st19{clip-path:url(#SVGID_6_);}
	.st20{clip-path:url(#SVGID_8_);}
	.st21{fill:#1a1a1a;stroke:#1a1a1a;stroke-width:3;stroke-miterlimit:10;}
	.st22{fill:#1a1a1a;}
	.st23{fill:none;stroke:#1a1a1a;stroke-width:2;stroke-miterlimit:10;}
	.st24{clip-path:url(#SVGID_10_);}
	.st25{fill:#1a1a1a;}
	.st26{fill:none;stroke:#1a1a1a;stroke-linecap:round;stroke-linejoin:round;stroke-miterlimit:10;}
	.st27{clip-path:url(#SVGID_12_);}
	.st28{clip-path:url(#SVGID_14_);}
	.st29{clip-path:url(#SVGID_14_);fill:#1a1a1a;stroke:#1a1a1a;stroke-linecap:round;stroke-linejoin:round;stroke-miterlimit:10;}
	.st30{clip-path:url(#SVGID_16_);}
	.st31{clip-path:url(#SVGID_18_);}
	.st32{clip-path:url(#SVGID_20_);}
	.st33{clip-path:url(#SVGID_22_);}
	.st34{clip-path:url(#SVGID_24_);}
	.st35{filter:url(#Adobe_OpacityMaskFilter);}
	.st36{mask:url(#SVGID_27_);}
	.st37{stroke:#1a1a1a;stroke-width:2;stroke-linecap:round;stroke-linejoin:round;stroke-miterlimit:10;}
	.st38{fill:none;stroke:#1a1a1a;stroke-width:0.5;stroke-miterlimit:10;}
	.st39{fill:#1a1a1a;}
	.st40{fill:#1a1a1a;}
	.st41{fill:#1a1a1a;}
	.st42{fill:#1a1a1a;}
	.st43{fill:none;stroke:#1a1a1a;stroke-width:0.5;stroke-miterlimit:10;}
	.st44{fill:none;stroke:#1a1a1a;stroke-width:0.75;stroke-miterlimit:10;}
	.st45{fill:#1a1a1a;}
	.st46{fill:none;stroke:#1a1a1a;stroke-miterlimit:10;}
	.st47{filter:url(#Adobe_OpacityMaskFilter_1_);}
	.st48{mask:url(#SVGID_28_);fill:#1a1a1a;}
	.st49{fill:none;stroke:#1a1a1a;stroke-width:0.75;stroke-miterlimit:10;}
	.st50{fill:none;stroke:#1a1a1a;stroke-miterlimit:10;}
	.st51{fill:none;stroke:#1a1a1a;stroke-miterlimit:10;}
</style>
<g id="fondo">
	<g>
		<path d="M32.12,149.55c-4,0-7.42-0.81-10.28-2.42c-2.85-1.62-5.04-3.91-6.57-6.87c-1.52-2.96-2.29-6.46-2.29-10.5
			c0-4.03,0.76-7.52,2.29-10.47c1.53-2.94,3.72-5.22,6.57-6.84c2.85-1.62,6.28-2.42,10.28-2.42c2.58,0,5.02,0.4,7.33,1.2
			c2.31,0.8,4.21,1.94,5.7,3.44l-2.29,5.56c-1.64-1.38-3.31-2.39-5.02-3.02c-1.71-0.63-3.54-0.95-5.51-0.95
			c-3.89,0-6.85,1.17-8.89,3.52c-2.04,2.35-3.06,5.68-3.06,10c0,4.33,1.02,7.67,3.06,10.03c2.03,2.36,4.99,3.55,8.89,3.55
			c1.96,0,3.8-0.32,5.51-0.95c1.71-0.64,3.38-1.65,5.02-3.03l2.29,5.56c-1.49,1.46-3.39,2.59-5.7,3.41
			C37.14,149.14,34.7,149.55,32.12,149.55"/>
		<path d="M60.25,149.55c-2.22,0-4.05-0.41-5.51-1.23c-1.46-0.82-2.54-2.04-3.25-3.68c-0.71-1.64-1.06-3.67-1.06-6.11v-16.19h6.81
			v16.3c0,1.23,0.17,2.27,0.52,3.11c0.35,0.84,0.87,1.45,1.58,1.85c0.71,0.4,1.61,0.6,2.7,0.6c1.23,0,2.32-0.28,3.25-0.85
			c0.93-0.56,1.65-1.36,2.18-2.4c0.52-1.04,0.79-2.24,0.79-3.63v-14.99h6.81V149h-6.65v-5.56h0.76c-0.76,1.96-1.92,3.47-3.46,4.53
			C64.19,149.02,62.36,149.55,60.25,149.55"/>
		<path d="M91.44,149.55c-3.16,0-5.5-0.86-7.01-2.59c-1.51-1.73-2.26-4.26-2.26-7.61v-28.79h6.81v28.46c0,1.05,0.15,1.95,0.46,2.7
			c0.31,0.75,0.77,1.3,1.39,1.66c0.62,0.36,1.38,0.55,2.29,0.55c0.4,0,0.8-0.02,1.2-0.06c0.4-0.03,0.78-0.11,1.15-0.22l-0.11,5.4
			c-0.66,0.14-1.3,0.26-1.94,0.35C92.8,149.5,92.13,149.55,91.44,149.55"/>
		<path d="M111.78,149.55c-3.56,0-6.21-0.89-7.96-2.67c-1.74-1.78-2.62-4.38-2.62-7.8v-11.61h-5.13v-5.13h5.13v-7.96h6.81v7.96h8.07
			v5.13h-8.07v11.23c0,1.75,0.38,3.05,1.15,3.93c0.76,0.87,2,1.31,3.71,1.31c0.51,0,1.04-0.07,1.58-0.19
			c0.55-0.13,1.11-0.26,1.69-0.41l1.04,5.02c-0.65,0.36-1.48,0.65-2.48,0.87C113.69,149.44,112.72,149.55,111.78,149.55"/>
		<path d="M130.15,149.55c-2.22,0-4.05-0.41-5.51-1.23c-1.46-0.82-2.54-2.04-3.25-3.68c-0.71-1.64-1.06-3.67-1.06-6.11v-16.19h6.81
			v16.3c0,1.23,0.17,2.27,0.52,3.11c0.35,0.84,0.87,1.45,1.58,1.85c0.71,0.4,1.61,0.6,2.7,0.6c1.23,0,2.32-0.28,3.25-0.85
			c0.93-0.56,1.65-1.36,2.18-2.4c0.52-1.04,0.79-2.24,0.79-3.63v-14.99h6.81V149h-6.65v-5.56h0.76c-0.76,1.96-1.92,3.47-3.46,4.53
			C134.08,149.02,132.25,149.55,130.15,149.55"/>
		<path d="M152.07,149v-26.66h6.65v6.43h-0.55c0.51-2.18,1.51-3.84,3-4.99c1.49-1.14,3.47-1.81,5.94-1.99l2.07-0.16l0.44,5.78
			l-3.93,0.38c-2.22,0.22-3.89,0.9-5.01,2.04c-1.13,1.15-1.69,2.75-1.69,4.83V149H152.07z"/>
		<path d="M182.22,149.55c-1.93,0-3.64-0.37-5.15-1.12c-1.51-0.75-2.69-1.75-3.54-3.03c-0.86-1.27-1.28-2.71-1.28-4.31
			c0-1.96,0.51-3.51,1.53-4.66c1.02-1.15,2.67-1.97,4.96-2.48c2.29-0.51,5.36-0.76,9.21-0.76h2.73v3.93H188
			c-1.71,0-3.15,0.07-4.31,0.19c-1.17,0.13-2.1,0.33-2.81,0.6c-0.71,0.27-1.22,0.64-1.52,1.12c-0.31,0.47-0.46,1.05-0.46,1.74
			c0,1.2,0.42,2.18,1.25,2.94c0.84,0.76,2,1.15,3.49,1.15c1.2,0,2.26-0.28,3.19-0.85c0.93-0.56,1.66-1.34,2.21-2.32
			c0.54-0.98,0.82-2.11,0.82-3.38v-6.27c0-1.82-0.4-3.13-1.2-3.93c-0.8-0.8-2.14-1.2-4.03-1.2c-1.49,0-3.02,0.23-4.58,0.68
			c-1.56,0.46-3.15,1.16-4.74,2.1l-1.96-4.64c0.95-0.66,2.06-1.23,3.35-1.72c1.29-0.49,2.65-0.88,4.09-1.15
			c1.44-0.27,2.79-0.41,4.06-0.41c2.62,0,4.77,0.4,6.46,1.2c1.69,0.8,2.95,2.01,3.79,3.63c0.84,1.62,1.25,3.7,1.25,6.24V149h-6.38
			v-5.67h0.44c-0.25,1.27-0.75,2.37-1.5,3.3c-0.75,0.93-1.68,1.65-2.81,2.15C184.96,149.29,183.67,149.55,182.22,149.55"/>
		<path d="M213.03,149.55c-1.49,0-2.93-0.13-4.34-0.38c-1.4-0.26-2.68-0.61-3.84-1.06c-1.17-0.45-2.18-1.03-3.05-1.72l1.74-4.47
			c0.91,0.58,1.89,1.09,2.94,1.53c1.06,0.44,2.14,0.76,3.27,0.98c1.13,0.22,2.24,0.33,3.33,0.33c1.74,0,3.04-0.3,3.9-0.9
			c0.86-0.6,1.28-1.39,1.28-2.37c0-0.84-0.28-1.48-0.85-1.94c-0.56-0.45-1.41-0.79-2.54-1.01l-5.45-1.03
			c-2.26-0.44-3.97-1.26-5.15-2.48c-1.18-1.22-1.77-2.79-1.77-4.72c0-1.74,0.48-3.25,1.44-4.53c0.96-1.27,2.3-2.25,4.01-2.94
			c1.71-0.69,3.67-1.04,5.89-1.04c1.27,0,2.51,0.12,3.71,0.35c1.2,0.24,2.33,0.59,3.41,1.04c1.07,0.45,2.01,1.05,2.81,1.77
			l-1.85,4.47c-0.69-0.58-1.49-1.08-2.4-1.5c-0.91-0.42-1.85-0.75-2.81-0.98c-0.97-0.24-1.9-0.36-2.81-0.36
			c-1.78,0-3.1,0.31-3.95,0.93c-0.86,0.62-1.28,1.44-1.28,2.45c0,0.76,0.25,1.4,0.76,1.91c0.51,0.51,1.29,0.85,2.34,1.04l5.45,1.04
			c2.36,0.44,4.15,1.24,5.37,2.4c1.22,1.16,1.83,2.73,1.83,4.69c0,1.78-0.47,3.31-1.42,4.58c-0.95,1.27-2.27,2.25-3.98,2.92
			C217.32,149.21,215.32,149.55,213.03,149.55"/>
		<path d="M121.31,53.98c0.19,0.21,0.56,0.31,0.92,0.15c0.06,0.16,0.19,0.3,0.36,0.36c0.08,0.03,0.16,0.04,0.25,0.04
			c0.2,0,0.4-0.08,0.6-0.24c0.24,0.34,0.82,0.43,1.43,0.43c0.35,0,0.71-0.03,1.01-0.05c0.17-0.01,0.32-0.02,0.43-0.03
			c0.77-0.04,1.32-0.21,1.73-0.73c0.39,0.15,1.42,0.39,2.53-1.13c0.32-0.1,1.93-0.69,1.65-2.43c0.24-0.22,1-1.03,0.56-2.06
			c0.06-0.23,0.24-1-0.14-1.36c-0.07-0.16-0.43-0.89-1.05-1.02c-0.38-0.08-0.78,0.09-1.17,0.49c-0.06,0.06-0.23,0.24-0.29,0.41
			c-0.36,0.21-0.51,0.58-0.55,0.71c-0.29,0.15-0.45,0.43-0.53,0.6c-0.52-0.1-1.1,0.02-1.74,0.37c-0.43-0.32-0.93-0.5-1.47-0.5
			c0,0-0.01,0-0.01,0c-0.69-0.01-1.38,0.31-1.92,0.91c-0.7,0.78-1.06,1.92-0.96,3c-0.15,0-0.3,0.04-0.43,0.13
			c-0.23,0.16-0.37,0.44-0.39,0.75l0,0h0c-0.3-0.02-0.57,0.07-0.76,0.25C121.04,53.42,121.13,53.78,121.31,53.98 M129.25,48.48
			c0.75,0.28,1.03,1.1,1.04,1.11l0.27-0.09c-0.01-0.04-0.33-0.95-1.21-1.29c0,0,0,0-0.01,0c0.08-0.16,0.24-0.42,0.52-0.47
			c0.29-0.05,0.79,0.1,1.6,1.11l0.23-0.18c-0.66-0.84-1.25-1.24-1.75-1.23c0.08-0.15,0.21-0.33,0.45-0.42
			c0.36-0.14,0.84,0,1.43,0.39l0.16-0.24c-0.54-0.36-1.01-0.52-1.41-0.48c0.02-0.03,0.05-0.05,0.07-0.08
			c0.32-0.33,0.63-0.47,0.91-0.41c0.53,0.11,0.85,0.86,0.85,0.87l0.01,0.03l0.03,0.02c0.27,0.23,0.14,0.9,0.06,1.14l-0.01,0.05
			l0.02,0.05c0.47,1.02-0.48,1.79-0.52,1.82l-0.07,0.06l0.02,0.09c0.33,1.71-1.4,2.17-1.48,2.19l-0.05,0.01l-0.03,0.04
			c-0.87,1.22-1.74,1.22-2.18,1.11c0.7-1.12,0.73-2.76,0.06-4.07c-0.19-0.37-0.43-0.68-0.69-0.93
			C128.2,48.37,128.77,48.29,129.25,48.48 M121.59,53.23c0.17-0.16,0.41-0.17,0.52-0.17c0.12,0.02,0.2-0.02,0.24-0.06
			c0.04-0.04,0.09-0.11,0.08-0.22c0.01-0.22,0.11-0.42,0.27-0.52c0.15-0.11,0.36-0.11,0.5,0l0.27,0.21l-0.03-0.34
			c-0.01-0.09,0.02-0.17,0.09-0.23c0.11-0.1,0.32-0.15,0.51-0.12c0.12,0.01,0.52,0.08,0.6,0.36l0.11,0.35l0.16-0.32
			c0.18-0.35,0.53-0.46,0.79-0.43c0.26,0.04,0.44,0.23,0.49,0.52l0.29-0.05c-0.07-0.41-0.34-0.7-0.73-0.75
			c-0.07-0.01-0.14-0.01-0.21-0.01c0.08-0.45,0.37-1.53,1.25-1.77c0.16,0.18,0.3,0.4,0.41,0.66c0.41,1.02,0.25,2.36-0.38,3.13
			l0.22,0.18c0.71-0.85,0.89-2.29,0.43-3.42c-0.32-0.79-0.89-1.27-1.61-1.35c-0.58-0.06-1.15,0.2-1.61,0.72
			c-0.42,0.48-0.7,1.14-0.79,1.85c0,0.02-0.01,0.1-0.01,0.16c-0.04,0.02-0.07,0.04-0.1,0.07c-0.03,0.03-0.05,0.06-0.08,0.09
			c-0.07-0.98,0.26-1.99,0.9-2.69c0.48-0.54,1.09-0.83,1.7-0.81h0.01c0.88,0,1.66,0.54,2.14,1.47c0.64,1.24,0.6,2.8-0.08,3.84
			c-0.26,0.51-1.12,0.76-1.61,0.76c-0.12,0-0.27,0.01-0.45,0.03c-0.69,0.05-1.98,0.17-2.22-0.28l-0.05-0.07l-0.08-0.22
			c-0.2,0.25-0.51,0.51-0.82,0.4c-0.11-0.04-0.22-0.17-0.21-0.3l0.03-0.32l-0.26,0.19c-0.28,0.21-0.59,0.15-0.73,0
			C121.39,53.64,121.42,53.43,121.59,53.23 M123.73,51.51c0.08-0.66,0.33-1.26,0.72-1.7c0.4-0.45,0.88-0.67,1.36-0.62
			c0.26,0.03,0.5,0.13,0.72,0.28c-1,0.4-1.25,1.7-1.31,2.06c-0.16,0.06-0.31,0.17-0.43,0.31c-0.15-0.18-0.4-0.3-0.71-0.33
			C123.97,51.49,123.85,51.49,123.73,51.51"/>
		<path d="M104.12,50.35c-0.29,1.74,1.33,2.33,1.65,2.43c0.73,1,1.48,1.23,2.03,1.23c0.35,0,0.61-0.1,0.73-0.15
			c0.27,0.08,0.54,0.12,0.79,0.12c0.33,0,0.65-0.06,0.95-0.18c0.08,0.08,0.22,0.16,0.5,0.15c0.28-0.01,0.61-0.02,0.9-0.15
			c0.1,0.11,0.28,0.17,0.52,0.16c0.48-0.01,0.94-0.04,1.31-0.28c0.08,0.06,0.2,0.09,0.35,0.1c0.71,0.03,1.43,0.07,2.14-0.03
			c0.17-0.01,0.29-0.09,0.33-0.22c0.04-0.14-0.03-0.29-0.17-0.39c-0.03-0.02-0.06-0.04-0.09-0.05c-0.05-0.03-0.1-0.06-0.12-0.09
			c0-0.01-0.01-0.02-0.02-0.03c-0.01-0.03-0.03-0.08-0.07-0.12l-0.05-0.03c-0.22-0.09-0.5-0.12-0.78-0.15
			c-0.12-0.01-0.24-0.02-0.35-0.04c-0.08-0.28-0.39-0.46-0.7-0.48c-0.03,0-0.07,0-0.08-0.01c-0.01-0.01-0.03-0.03-0.04-0.05
			c-0.01-0.01-0.02-0.03-0.03-0.05c-0.11-0.14-0.26-0.21-0.41-0.24c0.08-1.06-0.27-2.14-0.96-2.91c-0.53-0.59-1.2-0.91-1.87-0.91
			c-0.02,0-0.04,0-0.05,0c-0.54,0-1.04,0.18-1.47,0.5c-0.64-0.35-1.22-0.47-1.74-0.37c-0.07-0.17-0.24-0.45-0.53-0.6
			c-0.04-0.14-0.19-0.5-0.55-0.71c-0.06-0.17-0.23-0.36-0.29-0.42c-0.4-0.4-0.79-0.57-1.18-0.49c-0.62,0.12-0.98,0.85-1.05,1.02
			c-0.38,0.37-0.2,1.14-0.14,1.36C103.12,49.32,103.88,50.14,104.12,50.35 M113.57,52.22l0.02,0.03c0.03,0.04,0.07,0.1,0.13,0.14
			c0.08,0.05,0.16,0.05,0.24,0.06c0.2,0.01,0.42,0.15,0.43,0.32l0,0.11l0.11,0.02c0.15,0.03,0.31,0.04,0.48,0.06
			c0.24,0.02,0.48,0.04,0.66,0.11c0,0.01,0.01,0.01,0.01,0.02c0.01,0.02,0.02,0.04,0.03,0.06c0.06,0.09,0.15,0.15,0.22,0.18
			c0.02,0.01,0.05,0.03,0.07,0.04c0.05,0.03,0.06,0.06,0.06,0.06h0c0,0-0.02,0.01-0.08,0.02c-0.69,0.09-1.41,0.06-2.1,0.02
			c-0.14-0.01-0.19-0.04-0.19-0.06l-0.06-0.22l-0.17,0.15c-0.3,0.27-0.76,0.3-1.24,0.31c-0.14,0-0.3-0.03-0.31-0.1l-0.04-0.21
			l-0.18,0.12c-0.24,0.15-0.53,0.17-0.89,0.18c-0.16,0-0.28-0.03-0.29-0.08l-0.05-0.16l-0.15,0.07c-0.17,0.08-0.36,0.13-0.56,0.16
			c-0.7-0.71-0.96-2.03-0.61-3.12c0.08-0.24,0.23-0.57,0.48-0.84c0.91,0.25,1.2,1.48,1.27,1.9l-0.2,0.01l0.01,0.29l1.36-0.06
			c0.13,0,0.24,0,0.3,0.03c0.13,0.12,0.27,0.18,0.4,0.18c0.08,0.01,0.16,0.01,0.25,0.01C113.21,52.06,113.44,52.06,113.57,52.22
			 M109.82,49.47c0.19-0.14,0.43-0.25,0.72-0.28c0.4-0.05,0.82,0.11,1.2,0.46c0.55,0.52,0.88,1.32,0.88,2.08
			c-0.03-0.02-0.07-0.05-0.12-0.09c-0.16-0.11-0.36-0.1-0.5-0.1l-0.87,0.03C111.07,51.17,110.8,49.86,109.82,49.47 M110.5,48.28
			C110.5,48.28,110.51,48.28,110.5,48.28c0.62-0.01,1.22,0.28,1.7,0.81c0.63,0.7,0.96,1.71,0.89,2.68c-0.04,0-0.09,0-0.13,0
			c-0.02,0-0.04,0-0.06,0c0.01-0.85-0.35-1.75-0.97-2.33c-0.44-0.41-0.95-0.61-1.43-0.54c-0.78,0.09-1.39,0.66-1.69,1.55
			c-0.32,0.97-0.22,2.34,0.52,3.24c-0.31,0.01-0.63-0.03-0.92-0.11c-0.67-1.04-0.71-2.59-0.07-3.82
			C108.84,48.82,109.62,48.28,110.5,48.28 M103.85,48.26c-0.07-0.24-0.2-0.91,0.07-1.14l0.02-0.02l0.01-0.03
			c0-0.01,0.32-0.77,0.85-0.87c0.28-0.05,0.59,0.08,0.91,0.41c0.02,0.02,0.05,0.05,0.07,0.08c-0.4-0.04-0.87,0.12-1.41,0.48
			l0.16,0.24c0.59-0.4,1.06-0.53,1.42-0.39c0.23,0.09,0.37,0.28,0.45,0.42c-0.5-0.02-1.09,0.39-1.75,1.23l0.23,0.18
			c0.8-1.02,1.31-1.17,1.6-1.11c0.28,0.05,0.44,0.31,0.52,0.47c0,0-0.01,0-0.01,0c-0.87,0.33-1.19,1.25-1.21,1.29l0.28,0.09
			c0-0.01,0.29-0.82,1.03-1.11c0.48-0.18,1.05-0.11,1.69,0.22c-0.27,0.25-0.5,0.56-0.69,0.93c-0.67,1.3-0.64,2.94,0.05,4.06
			c-0.44,0.1-1.32,0.1-2.18-1.11l-0.03-0.04l-0.05-0.01c-0.07-0.02-1.81-0.48-1.47-2.19l0.01-0.09l-0.07-0.05
			c-0.04-0.03-0.99-0.8-0.52-1.82l0.02-0.05L103.85,48.26z"/>
		<path d="M118.04,52.75c-0.01,0.48-0.07,1-0.15,1.54l-0.01,0.06l0.04,0.05c0.01,0.02,0.31,0.42,0.85,0.61l0.17,0.06l0.02-0.18
			c0.01-0.06,0.18-1.37,0.02-2.79c1.78-0.55,2.33-2.34,2.49-3.09c0.09-0.45,0.07-0.47,0-0.52l-0.06-0.05l-0.08,0.03
			c-1.51,0.58-2.22,1.69-2.54,2.54c-0.12-0.46-0.28-0.85-0.48-1.18c1.46-0.15,2.6-1.39,2.6-2.88c0-0.84-0.37-1.6-0.95-2.13
			l0.72-0.88l-1.36,0.16l-0.41-0.7l-0.7,0.43l-0.55-0.45l-0.28,0.57l-1.23-0.48l0.33,1c-0.94,0.55-1.39,1.55-1.39,2.49
			c0,1.2,0.73,2.5,2.3,2.83c0.06,0.09,0.4,0.57,0.55,1.59c-0.51-0.78-1.43-1.7-2.98-1.96l-0.12-0.02l-0.04,0.12
			c-0.04,0.12,0.31,0.93,0.68,1.5C115.97,51.73,116.8,52.61,118.04,52.75 M118.9,51.61c0.19-0.75,0.75-2.08,2.31-2.78
			c-0.12,0.65-0.6,2.49-2.37,3L118.9,51.61z M120.01,44.31l-0.27,0.32c-0.13-0.09-0.25-0.17-0.39-0.25L120.01,44.31z M120.62,46.95
			c0,1.17-0.78,2.16-1.84,2.49c1.71-2.3,0.5-4.26-0.11-5.01C119.79,44.73,120.62,45.74,120.62,46.95 M118.82,43.8l0.27,0.46
			c-0.23-0.09-0.47-0.15-0.72-0.18L118.82,43.8z M117.77,43.83l0.27,0.22c-0.01,0-0.03,0-0.04,0c-0.12,0-0.24,0.01-0.35,0.03
			L117.77,43.83z M117.19,44.18c-0.15,0.04-0.3,0.09-0.43,0.15l-0.12-0.37L117.19,44.18z M115.39,46.95c0-1.07,0.64-2.23,2.03-2.53
			c-0.61,0.73-1.85,2.7-0.14,5.03C115.99,49.1,115.39,47.98,115.39,46.95 M117.87,44.35c0.04,0,0.08-0.01,0.13-0.01
			c0.07,0,0.15,0,0.22,0.01c0.29,0.29,2.38,2.47,0.12,5.18c-0.11,0.01-0.22,0.02-0.33,0.02c-0.1,0-0.2-0.01-0.29-0.02
			C115.47,46.81,117.58,44.63,117.87,44.35 M117.78,49.83c0.06,0.01,0.13,0.01,0.19,0.02c0.3,0.43,0.52,1.02,0.64,1.76l0.04,0.29
			l0.01,0.12c0.14,1.12,0.05,2.22,0.01,2.65c-0.26-0.13-0.44-0.31-0.51-0.39c0.09-0.58,0.14-1.14,0.15-1.65l0-0.14l-0.01-0.46v-0.01
			C118.25,50.87,117.97,50.17,117.78,49.83 M118.04,52.11l0.17,0.37l-0.02,0c-1.86-0.13-2.77-2.07-3.02-2.73
			C116.88,50.13,117.7,51.38,118.04,52.11"/>
		<path d="M108.15,25.26c-0.12-0.15-0.13-0.39-0.04-0.56c0.02-0.05,0.06-0.1,0.09-0.14c0.01-0.01,0.02-0.01,0.02-0.02
			c-0.17,0.07-0.41,0-0.49-0.18c-0.1-0.21,0.04-0.49,0.26-0.57c-0.18,0.03-0.35,0.13-0.52,0.19c-0.17,0.06-0.39,0.08-0.53-0.04
			c-0.14-0.12-0.16-0.33-0.1-0.5c0.06-0.17,0.19-0.31,0.32-0.44c-0.29,0.07-0.54,0.34-0.82,0.25c-0.28-0.09-0.31-0.5-0.16-0.75
			c0.15-0.25,0.41-0.43,0.58-0.67c-0.43,0.2-0.89,0.36-1.36,0.47c-0.16,0.04-0.36,0.06-0.48-0.04c-0.09-0.08-0.08-0.24-0.01-0.31
			l-0.66,0.22c-0.15,0.05-0.32,0.1-0.47,0.05c-0.15-0.04-0.27-0.23-0.19-0.37c-0.23,0.14-0.49,0.29-0.76,0.26
			c-0.16-0.02-0.28-0.09-0.37-0.24c-0.1-0.17-0.02-0.25,0.12-0.36c-0.26,0.1-0.52,0.43-0.44,0.72c0.06,0.21,0.31,0.33,0.54,0.31
			c0.22-0.02,0.43-0.14,0.62-0.26c-0.08,0.05,0.15,0.31,0.19,0.33c0.15,0.12,0.39,0.15,0.58,0.11c0.11-0.02,0.22-0.07,0.32-0.12
			c0.03-0.02,0.3-0.14,0.3-0.17c0,0.15,0.2,0.18,0.35,0.18c0.29-0.01,0.58-0.01,0.88-0.02c-0.21,0.18-0.26,0.51-0.13,0.76
			c0.14,0.24,0.45,0.37,0.72,0.3c-0.22,0.25-0.04,0.7,0.28,0.79c0.28,0.08,0.58-0.05,0.77-0.27c-0.03,0.03-0.05,0.08-0.07,0.11
			c-0.02,0.04-0.04,0.08-0.05,0.12c-0.03,0.09-0.05,0.18-0.03,0.27c0.01,0.08,0.05,0.16,0.09,0.23c0.04,0.06,0.1,0.11,0.17,0.14
			c0.03,0.01,0.07,0.02,0.11,0.02c0.09,0,0.16-0.04,0.23-0.09c-0.05,0.08-0.1,0.16-0.14,0.25c-0.04,0.09-0.08,0.18-0.09,0.28
			c-0.03,0.23,0.16,0.42,0.38,0.45c0.12,0.02,0.25,0,0.35-0.06c0.25-0.14,0.38-0.41,0.49-0.66
			C108.78,25.49,108.35,25.5,108.15,25.26"/>
		<path d="M97.22,22.26c0.18-0.05,0.34-0.15,0.5-0.25c0.04-0.02,0.1-0.05,0.14-0.02c0.04,0.03,0.04,0.08,0.04,0.13
			c0.02,0.22,0.24,0.38,0.47,0.4c0.22,0.02,0.44-0.08,0.62-0.2c0,0.04-0.01,0.08-0.02,0.12c0.09,0.14,0.27,0.21,0.44,0.22
			c0.17,0,0.34-0.04,0.5-0.09c0.21-0.06,0.44-0.14,0.55-0.32c-0.11,0.11-0.24,0.22-0.38,0.2c-0.17-0.02-0.26-0.22-0.24-0.38
			c0.02-0.16,0.14-0.3,0.24-0.43c-0.29,0.17-0.6,0.31-0.92,0.4c-0.13,0.04-0.27,0.07-0.41,0.03c-0.13-0.03-0.25-0.15-0.24-0.29
			c0.01-0.08,0.05-0.14,0.1-0.2c0.08-0.09,0.18-0.16,0.29-0.21c-0.26,0.11-0.53,0.21-0.79,0.32c-0.19,0.08-0.4,0.16-0.61,0.15
			c-0.21-0.01-0.43-0.15-0.46-0.36c-0.01-0.08,0.01-0.16,0.05-0.24c-0.03,0.02-0.07,0.04-0.1,0.07c-0.14,0.1-0.26,0.22-0.33,0.37
			c-0.07,0.15-0.07,0.35,0.03,0.48C96.82,22.28,97.04,22.31,97.22,22.26"/>
		<path d="M110.46,17.65c-0.01,0-0.06,0.02-0.07,0.03c-0.02,0.01-0.05,0.02-0.07,0.03c-0.1,0.04-0.2,0.06-0.3,0.06
			c-0.16,0-0.33-0.1-0.36-0.26c-0.02-0.1,0.01-0.22-0.05-0.3c-0.06-0.08-0.19-0.09-0.29-0.07c-0.24,0.05-0.74,0.4-0.92,0.1
			c-0.03-0.05-0.03-0.11-0.02-0.16c0.01-0.04,0.02-0.08,0.04-0.11c-0.21,0.18-0.42,0.24-0.66,0.37c-0.23,0.12-0.47,0.23-0.72,0.34
			c-0.15,0.06-0.35,0.1-0.46-0.04c-0.14-0.17,0.01-0.45,0.13-0.59c0.13-0.15,0.13-0.15,0.3-0.26c-0.63,0.25-1.18,0.38-1.85,0.62
			s-1.35,0.53-1.87,1.03c-0.08,0.08-0.16,0.16-0.19,0.28c-0.02,0.11,0.03,0.24,0.14,0.27c-0.76,0.24-1.42,0.75-1.84,1.42
			c-0.09,0.14-0.15,0.34-0.03,0.45c0.06,0.05,0.14,0.06,0.22,0.06c0.22-0.01,0.44-0.08,0.62-0.21c-0.12-0.09-0.15-0.27-0.1-0.41
			c0.05-0.14,0.16-0.25,0.27-0.35c0.43-0.4,0.94-0.73,1.49-0.94c-0.08,0.04-0.18-0.05-0.18-0.14c0-0.09,0.05-0.17,0.11-0.24
			c0.05-0.06,0.11-0.13,0.17-0.18c0.25-0.25,0.56-0.45,0.88-0.61c0.34-0.17,0.7-0.3,1.06-0.42c0.05-0.02,0.1-0.03,0.15-0.05
			c0.02,0,0.14-0.03,0.15-0.04c-0.11,0.34-0.13,0.84,0.35,0.84c0.5,0,1-0.22,1.32-0.6c-0.1,0.16-0.19,0.36-0.09,0.51
			c0.1,0.14,0.31,0.13,0.48,0.09c0.39-0.09,0.76-0.28,1.06-0.55c-0.12,0.16-0.24,0.4-0.1,0.54c0.02,0.02,0.04,0.03,0.06,0.04
			c0.08,0.04,0.19,0.03,0.28,0.02c0.14-0.02,0.27-0.07,0.39-0.13c0.16-0.07,0.31-0.18,0.45-0.3
			C110.41,17.73,110.49,17.66,110.46,17.65"/>
		<path d="M100.29,25.66c-0.59,0.3-1.22,0.51-1.88,0.63c-0.19,0.04-0.47,0.01-0.5-0.18c-0.01-0.08,0.03-0.17,0.08-0.24
			c0.22-0.33,0.52-0.6,0.87-0.8c-0.57,0.28-1.18,0.46-1.81,0.56c-0.25,0.04-0.61-0.02-0.61-0.27c0-0.11,0.06-0.2,0.13-0.28
			c0.24-0.3,0.54-0.55,0.86-0.75c-0.52,0.34-1.09,0.61-1.69,0.78c-0.25,0.07-0.53,0.12-0.74-0.02c-0.14-0.1-0.16-0.33-0.08-0.46
			c-0.36,0.2-0.77,0.31-1.18,0.29c-0.07,0-0.15-0.01-0.21-0.06c-0.19-0.17,0.03-0.5,0.2-0.68c-0.24,0.24-0.48,0.47-0.66,0.77
			c-0.09,0.16-0.15,0.39,0,0.49c0.06,0.04,0.13,0.04,0.2,0.04c0.14,0,0.29-0.02,0.43-0.04c0.09-0.01,0.17-0.03,0.26-0.06
			c0.1-0.03,0.2-0.06,0.3-0.1c0.05-0.02,0.25-0.08,0.27-0.13c-0.14,0.34,0.24,0.71,0.61,0.73c0.37,0.01,0.71-0.2,1.02-0.41
			c-0.13,0.17,0,0.43,0.19,0.52c0.19,0.09,0.42,0.06,0.63,0.02c0.37-0.07,0.73-0.19,1.07-0.33c-0.14,0.33-0.63,0.59-0.46,0.91
			c0.07,0.13,0.23,0.19,0.38,0.21c0.58,0.11,1.21-0.02,1.69-0.36c0.11-0.07,0.22-0.16,0.35-0.15c0.1,0.01,0.19,0.07,0.29,0.11
			c0.2,0.09,0.44,0.07,0.62-0.05C100.57,26.37,100.23,26.01,100.29,25.66"/>
		<path d="M92.52,28.04c-0.02-0.09,0-0.18,0.03-0.26c0.01-0.02,0.04-0.05,0.05-0.08c-0.03,0-0.07,0.04-0.09,0.05
			c-0.03,0.02-0.07,0.04-0.1,0.06c-0.07,0.04-0.14,0.08-0.21,0.11c-0.15,0.06-0.3,0.1-0.46,0.12c-0.11,0.01-0.22,0.01-0.32,0
			c-0.05,0-0.11-0.01-0.16-0.02c-0.05-0.01-0.09-0.01-0.13-0.05c-0.04-0.04-0.06-0.1-0.06-0.16c-0.01-0.05,0-0.12,0.01-0.17
			c0-0.02,0.01-0.03,0.02-0.05c0.02-0.05,0.04-0.1,0.07-0.14c0.03-0.04,0.07-0.08,0.11-0.12c-0.34,0.22-0.73,0.39-1.13,0.47
			c-0.06,0.01-0.13,0.02-0.19-0.01c-0.12-0.07-0.06-0.25,0.01-0.36c0.33-0.52,0.75-0.97,1.2-1.39c-0.49,0.32-0.94,0.71-1.33,1.14
			c-0.16,0.18-0.33,0.41-0.25,0.64c0.07,0.2,0.3,0.3,0.52,0.29c0.21-0.01,0.41-0.12,0.59-0.22c0.05-0.03,0.1-0.05,0.15-0.08
			c0.04-0.02,0.09-0.04,0.14-0.06c-0.05,0.15-0.08,0.31-0.07,0.46c0,0.07,0.02,0.14,0.06,0.2c0.03,0.05,0.09,0.11,0.16,0.11
			c0.07,0.01,0.15,0,0.23-0.02c0.11-0.02,0.21-0.06,0.31-0.1c0.16-0.06,0.31-0.14,0.45-0.22c0.11-0.07,0.2-0.14,0.29-0.23
			c0.01-0.01,0.04-0.04,0.06-0.05c0,0.03-0.01,0.06-0.02,0.09c-0.01,0.03-0.02,0.07-0.03,0.1c-0.01,0.07,0,0.15,0.02,0.22
			c0.03,0.08,0.09,0.15,0.17,0.2c0.04,0.02,0.07,0.02,0.11,0.02c0.04,0,0.08,0.01,0.13,0c0.15-0.02,0.3-0.1,0.42-0.19
			c0.38-0.27,0.68-0.63,0.88-1.05c-0.42,0.3-0.87,0.55-1.34,0.74C92.74,28.08,92.54,28.13,92.52,28.04"/>
		<path d="M133.5,21.52c0.14,0.12,0.22,0.19,0.12,0.36c-0.08,0.15-0.2,0.22-0.37,0.24c-0.27,0.03-0.53-0.12-0.76-0.26
			c0.09,0.13-0.03,0.32-0.19,0.37c-0.15,0.04-0.32,0-0.47-0.06l-0.66-0.22c0.07,0.07,0.08,0.24-0.01,0.31
			c-0.13,0.11-0.32,0.08-0.48,0.04c-0.47-0.11-0.92-0.27-1.36-0.47c0.17,0.24,0.43,0.42,0.58,0.67c0.15,0.25,0.12,0.66-0.16,0.75
			c-0.28,0.09-0.54-0.19-0.83-0.26c0.13,0.13,0.26,0.27,0.32,0.44c0.06,0.17,0.04,0.39-0.1,0.5c-0.14,0.12-0.36,0.1-0.53,0.04
			c-0.17-0.06-0.34-0.16-0.52-0.19c0.22,0.08,0.36,0.36,0.26,0.57c-0.08,0.17-0.32,0.25-0.49,0.17c0.01,0.01,0.02,0.01,0.02,0.02
			c0.04,0.04,0.07,0.08,0.09,0.14c0.08,0.16,0.08,0.42-0.04,0.56c-0.2,0.24-0.63,0.22-0.81-0.02c0.11,0.26,0.25,0.52,0.49,0.66
			c0.11,0.06,0.23,0.08,0.35,0.06c0.21-0.03,0.41-0.22,0.38-0.45c-0.01-0.1-0.05-0.19-0.09-0.28c-0.04-0.09-0.09-0.17-0.14-0.25
			c0.07,0.05,0.14,0.09,0.23,0.09c0.04,0,0.07-0.01,0.11-0.02c0.07-0.03,0.13-0.08,0.17-0.14c0.04-0.06,0.08-0.15,0.09-0.22
			c0.01-0.09,0-0.19-0.03-0.27c-0.01-0.04-0.03-0.08-0.05-0.12c-0.02-0.04-0.04-0.08-0.07-0.11c0.19,0.22,0.49,0.35,0.77,0.26
			c0.32-0.1,0.5-0.54,0.28-0.79c0.27,0.07,0.58-0.06,0.72-0.3c0.13-0.24,0.08-0.57-0.13-0.76l0.88,0.02c0.15,0,0.34-0.04,0.35-0.18
			c0,0.03,0.26,0.15,0.3,0.17c0.1,0.05,0.21,0.1,0.32,0.12c0.18,0.04,0.42,0,0.58-0.11c0.03-0.03,0.27-0.29,0.19-0.33
			c0.19,0.12,0.39,0.24,0.62,0.26c0.23,0.02,0.48-0.09,0.54-0.31C134.02,21.95,133.76,21.63,133.5,21.52"/>
		<path d="M135.99,22.43c-0.15,0.02-0.28-0.09-0.38-0.2c0.11,0.18,0.34,0.26,0.55,0.32c0.16,0.05,0.33,0.1,0.5,0.1
			c0.17,0,0.35-0.08,0.44-0.22c-0.01-0.04-0.01-0.08-0.02-0.12c0.19,0.12,0.4,0.22,0.63,0.2c0.22-0.02,0.45-0.18,0.46-0.4
			c0-0.05,0-0.1,0.04-0.13c0.04-0.03,0.1,0,0.14,0.02c0.16,0.1,0.32,0.2,0.5,0.25c0.18,0.05,0.4,0.02,0.52-0.13
			c0.11-0.13,0.11-0.32,0.04-0.47c-0.07-0.15-0.2-0.27-0.33-0.37c-0.03-0.02-0.07-0.05-0.1-0.07c0.04,0.08,0.06,0.16,0.04,0.24
			c-0.03,0.21-0.25,0.35-0.46,0.36c-0.21,0.01-0.42-0.07-0.61-0.15c-0.26-0.11-0.53-0.21-0.79-0.32c0.11,0.05,0.21,0.12,0.29,0.21
			c0.05,0.06,0.1,0.13,0.11,0.2c0.01,0.14-0.11,0.26-0.24,0.29c-0.13,0.03-0.28,0-0.41-0.03c-0.32-0.09-0.63-0.23-0.91-0.4
			c0.11,0.13,0.22,0.26,0.24,0.43C136.26,22.22,136.16,22.41,135.99,22.43"/>
		<path d="M125.68,17.74c0.13,0.13,0.28,0.23,0.45,0.3c0.12,0.06,0.26,0.1,0.39,0.13c0.09,0.02,0.2,0.02,0.28-0.02
			c0.02-0.01,0.04-0.02,0.06-0.04c0.14-0.14,0.02-0.38-0.1-0.54c0.3,0.27,0.67,0.46,1.06,0.55c0.17,0.04,0.37,0.05,0.47-0.09
			c0.11-0.15,0.02-0.36-0.09-0.51c0.33,0.38,0.83,0.6,1.33,0.6c0.49,0,0.46-0.5,0.35-0.84c0,0.01,0.13,0.04,0.14,0.04
			c0.05,0.02,0.1,0.03,0.15,0.05c0.36,0.12,0.72,0.25,1.06,0.42c0.32,0.16,0.62,0.36,0.88,0.61c0.06,0.06,0.11,0.12,0.16,0.18
			c0.06,0.07,0.12,0.15,0.11,0.25c0,0.09-0.1,0.18-0.18,0.14c0.55,0.22,1.06,0.54,1.49,0.94c0.11,0.1,0.22,0.21,0.27,0.35
			c0.05,0.14,0.02,0.32-0.1,0.41c0.18,0.13,0.4,0.2,0.62,0.2c0.08,0,0.16,0,0.22-0.06c0.13-0.11,0.06-0.31-0.03-0.45
			c-0.42-0.67-1.09-1.18-1.84-1.42c0.11-0.02,0.17-0.16,0.15-0.27c-0.02-0.11-0.11-0.2-0.19-0.27c-0.52-0.49-1.19-0.79-1.87-1.03
			c-0.68-0.24-1.37-0.42-2.02-0.73c0.17,0.11,0.34,0.22,0.47,0.37c0.12,0.14,0.27,0.42,0.13,0.59c-0.11,0.14-0.31,0.1-0.46,0.04
			c-0.24-0.11-0.48-0.22-0.72-0.34c-0.24-0.13-0.45-0.19-0.66-0.37c0.02,0.04,0.03,0.07,0.04,0.11c0.01,0.06,0.01,0.12-0.02,0.16
			c-0.19,0.3-0.68-0.05-0.92-0.1c-0.1-0.02-0.23-0.02-0.29,0.07c-0.06,0.09-0.02,0.2-0.05,0.3c-0.03,0.16-0.2,0.25-0.36,0.26
			c-0.1,0-0.2-0.02-0.3-0.06c-0.02-0.01-0.05-0.02-0.07-0.03c-0.01,0-0.06-0.03-0.07-0.03C125.59,17.66,125.67,17.73,125.68,17.74"
			/>
		<path d="M135.77,26.39c0.09-0.04,0.18-0.11,0.29-0.11c0.13-0.01,0.24,0.08,0.35,0.15c0.48,0.33,1.11,0.46,1.69,0.36
			c0.15-0.03,0.31-0.08,0.38-0.21c0.17-0.32-0.32-0.58-0.46-0.91c0.34,0.15,0.7,0.26,1.07,0.33c0.21,0.04,0.44,0.07,0.63-0.02
			c0.19-0.09,0.31-0.35,0.19-0.52c0.31,0.21,0.65,0.43,1.02,0.41c0.37-0.01,0.75-0.38,0.61-0.73c0.02,0.05,0.22,0.11,0.27,0.13
			c0.1,0.04,0.2,0.07,0.3,0.1c0.08,0.02,0.17,0.04,0.26,0.06c0.14,0.02,0.29,0.04,0.43,0.04c0.07,0,0.14,0,0.2-0.04
			c0.15-0.1,0.1-0.33,0-0.49c-0.18-0.3-0.42-0.53-0.66-0.77c0.16,0.18,0.39,0.51,0.2,0.68c-0.06,0.05-0.14,0.06-0.21,0.06
			c-0.41,0.02-0.83-0.09-1.18-0.29c0.08,0.13,0.06,0.36-0.08,0.46c-0.21,0.15-0.49,0.1-0.74,0.02c-0.6-0.18-1.17-0.44-1.69-0.78
			c0.32,0.2,0.62,0.46,0.86,0.75c0.07,0.08,0.13,0.17,0.13,0.28c-0.01,0.25-0.36,0.31-0.61,0.27c-0.62-0.1-1.23-0.29-1.81-0.56
			c0.35,0.19,0.65,0.47,0.87,0.8c0.05,0.07,0.1,0.15,0.08,0.24c-0.03,0.19-0.3,0.21-0.5,0.18c-0.65-0.12-1.29-0.33-1.88-0.63
			c0.06,0.35-0.27,0.71-0.63,0.68C135.34,26.46,135.58,26.48,135.77,26.39"/>
		<path d="M142.83,28.36c0.13,0.09,0.27,0.17,0.42,0.19c0.04,0,0.09,0,0.13-0.01c0.04,0,0.07,0,0.11-0.02
			c0.08-0.04,0.14-0.12,0.17-0.2c0.03-0.07,0.03-0.14,0.02-0.21c0-0.04-0.02-0.07-0.03-0.11c-0.01-0.02-0.02-0.06-0.02-0.08
			c0.02,0,0.04,0.03,0.06,0.05c0.09,0.08,0.18,0.16,0.29,0.23c0.14,0.09,0.29,0.16,0.45,0.22c0.1,0.04,0.21,0.07,0.31,0.1
			c0.07,0.02,0.15,0.03,0.23,0.02c0.06-0.01,0.12-0.06,0.16-0.12c0.04-0.06,0.05-0.13,0.06-0.2c0.01-0.16-0.02-0.31-0.07-0.46
			c0.04,0.03,0.09,0.04,0.14,0.07c0.05,0.03,0.1,0.05,0.15,0.08c0.18,0.1,0.38,0.21,0.59,0.22c0.21,0.01,0.45-0.09,0.52-0.29
			c0.08-0.23-0.09-0.46-0.25-0.64c-0.39-0.43-0.84-0.82-1.33-1.14c0.46,0.42,0.87,0.87,1.2,1.39c0.07,0.12,0.13,0.29,0.01,0.36
			c-0.05,0.03-0.12,0.02-0.19,0.01c-0.4-0.08-0.79-0.25-1.13-0.47c0.04,0.03,0.07,0.08,0.11,0.12c0.03,0.04,0.05,0.09,0.07,0.14
			c0,0.02,0.01,0.03,0.02,0.05c0.01,0.05,0.02,0.12,0.01,0.17c-0.01,0.06-0.03,0.11-0.07,0.16c-0.03,0.04-0.08,0.04-0.12,0.05
			c-0.05,0.01-0.11,0.02-0.16,0.02c-0.11,0.01-0.22,0.01-0.32,0c-0.16-0.02-0.31-0.06-0.46-0.12c-0.08-0.03-0.15-0.06-0.22-0.1
			c-0.03-0.02-0.07-0.04-0.1-0.06c-0.03-0.02-0.06-0.06-0.1-0.05c0.01,0.03,0.03,0.05,0.05,0.08c0.04,0.08,0.05,0.17,0.03,0.26
			c-0.02,0.09-0.21,0.03-0.27,0.01c-0.47-0.19-0.93-0.44-1.34-0.74C142.15,27.73,142.45,28.1,142.83,28.36"/>
		<path d="M117.08,37.61c-1.14-0.16-1.5-1.36-1.5-1.36l-0.28,0.45C116.06,37.79,117.08,37.61,117.08,37.61"/>
		<path d="M114.77,19.48c-0.2,0-0.36,0.16-0.36,0.36c0,0.19,0.16,0.35,0.36,0.35c0.2,0,0.36-0.16,0.36-0.35
			C115.13,19.64,114.97,19.48,114.77,19.48 M114.77,19.99c-0.09,0-0.15-0.07-0.15-0.15c0-0.09,0.07-0.16,0.15-0.16
			c0.09,0,0.15,0.07,0.15,0.16C114.92,19.92,114.85,19.99,114.77,19.99"/>
		<path d="M155.86,41.34c-0.12-0.18-0.32-0.27-0.52-0.26l-4.78,1.04l-0.51,2.57l-1.25,0.82c-0.02-2.21-0.12-4.52-0.3-6.9l2.53,0.55
			l2.82-3.91c0.14-0.19,0.15-0.44,0.01-0.64c-0.12-0.18-0.31-0.27-0.52-0.26l-4.78,1.04l-0.51,2.57l-11.45,7.49
			c-0.05-0.98-0.12-1.98-0.21-3c0-0.04,0-0.07-0.01-0.09c0.28,0.04,0.54,0.06,0.79,0.06c0.63,0,1.18-0.13,1.65-0.43
			c1.59-1.02,2.09-4.1,2.17-4.71l0.01-0.07l-0.16-0.1c-0.3-0.2-1.02-0.77-1.23-1.6c0.26,0.03,0.51,0.08,0.76,0.17
			c0.22,0.08,0.45,0.19,0.7,0.31c0.65,0.31,1.43,0.68,2.36,0.68c0.31,0,0.63-0.04,0.98-0.14c1.5-0.5,2.1-1.26,2.12-1.29l0.16-0.21
			l-1.87-0.16l0.59-1.74l-0.37,0.27c-0.01,0.01-0.89,0.65-1.3,0.8l-0.08,0.03c-0.36,0.11-0.76,0.24-1.91-0.22
			c-0.71-0.29-1.31-0.4-1.84-0.33c-0.67,0.08-1.14,0.49-1.55,0.85c-0.41,0.36-0.91,0.8-1.07,1.36l-0.01,0.07
			c-0.02,0.09-0.04,0.18-0.05,0.28l-0.01,0.04h0c-0.02,0.17-0.02,0.35,0,0.53c0.03,0.26,0.11,0.51,0.21,0.75
			c0.08,0.19,0.17,0.37,0.29,0.54l0,0c-1.16,0.01-2.74-0.21-4.88-0.89c-1.55-0.48-3.08-0.73-4.56-0.73c-2.1,0-3.88,0.48-5.31,1.13
			c0-0.05-0.01-0.09-0.03-0.14c-0.04-0.11-0.11-0.22-0.17-0.32c-0.17-0.27-0.33-0.56-0.38-0.89c-0.05-0.36,0.01-0.73,0.07-1.09
			c0.08-0.52,0.05-1.01-0.09-1.47c-0.08-0.29-0.21-0.52-0.4-0.73c-0.08-0.08-0.15-0.17-0.22-0.27c-0.03-0.04-0.06-0.08-0.1-0.12
			c0.18-0.29,0.27-0.57,0.28-0.88c0-0.03,0.03-0.07,0.06-0.11l0.03-0.04c0.02-0.04,0.05-0.08,0.08-0.12
			c0.05-0.06,0.09-0.12,0.13-0.19c0.1-0.17,0.14-0.37,0.12-0.59l0-0.33c0.06-0.03,0.1-0.07,0.15-0.11c0.16,0.36,0.46,0.58,0.84,0.59
			c0.36,0.01,0.77-0.18,1.07-0.48c0.06,0.09,0.15,0.18,0.28,0.22c0.32,0.12,0.61-0.08,0.71-0.15c0.27-0.18,0.54-0.38,0.74-0.66
			c0.11,0.04,0.21,0.04,0.29,0.02c0.36-0.06,0.57-0.42,0.7-0.7l0.02-0.06c0.06-0.14,0.07-0.15,0.11-0.17
			c0.28-0.13,0.4-0.39,0.47-0.62c0.04,0,0.07-0.01,0.11-0.03c0.12-0.06,0.19-0.05,0.29,0.04c0.16,0.14,0.38,0.14,0.56,0.05
			c0.15,0.15,0.35,0.22,0.55,0.19c0.13-0.02,0.26-0.08,0.37-0.18c0.05,0.04,0.11,0.07,0.17,0.1c0.12,0.04,0.19,0.14,0.31,0.3
			l0.05,0.06c0.27,0.36,0.56,0.43,0.75,0.43c0.15,0,0.37-0.05,0.59-0.26c0.31,0.2,0.56,0.2,0.73,0.16c0.18-0.04,0.43-0.18,0.6-0.57
			c0.15-0.33,0.23-0.63,0.26-0.93c0.17-0.01,0.33-0.09,0.45-0.22c0.04,0.03,0.09,0.07,0.12,0.1c0.06,0.05,0.12,0.1,0.16,0.13
			c0.33,0.23,0.68,0.43,1.04,0.6c0.12,0.06,0.25,0.12,0.42,0.14c0.15,0.01,0.26-0.01,0.35-0.04c0.04,0.03,0.09,0.07,0.16,0.12
			c1,0.7,1.62,1.04,2.05,0.78c0.06-0.03,0.13-0.09,0.18-0.17c0.59,0.41,1.2,0.82,1.9,1.07c0.15,0.05,0.3,0.06,0.45,0.01
			c0.12-0.04,0.2-0.1,0.26-0.16c0.15,0.11,0.31,0.22,0.47,0.33c0.53,0.38,1.08,0.78,1.7,1.02c0.37,0.17,0.62,0.1,0.76,0.01
			c0.19-0.12,0.29-0.32,0.33-0.54c0.33,0.29,0.68,0.58,1.23,0.74l0.03,0.01c0.29,0.06,0.48-0.02,0.6-0.13
			c0.4,0.32,0.82,0.65,1.32,0.88c0.24,0.11,0.51,0.09,0.71-0.07c0.1-0.08,0.16-0.17,0.19-0.26c0.4,0.18,0.77,0.36,1.11,0.61
			c0.16,0.12,0.58,0.42,1.03,0.15c0.09-0.06,0.19-0.16,0.24-0.3c0.21,0.17,0.43,0.35,0.66,0.5c0.2,0.15,0.82,0.57,1.26,0.33
			c0.09-0.05,0.23-0.16,0.28-0.4c0.13,0.09,0.27,0.17,0.43,0.26c0.22,0.12,0.44,0.27,0.67,0.42c0.48,0.32,0.97,0.66,1.57,0.79
			l0.04,0.01c0.03,0,0.06,0,0.09,0c0.14,0,0.26-0.04,0.35-0.12c0.14-0.12,0.2-0.29,0.18-0.51c-0.08-0.84-0.62-1.44-1.11-1.97
			c-1.26-1.39-2.74-2.63-4.17-3.83c-0.54-0.45-1.1-0.92-1.63-1.38c-3.64-3.17-7.41-6.06-11.52-8.81c-3.61-2.42-7.27-3.73-10.88-3.91
			c-1.56-0.08-2.78,0.12-3.74,0.6c-2.23,1.16-1.51,3.57-0.99,5.32l0.04,0.15c0.31,0.95,0.35,1.62,0.11,2
			c-0.09,0.15-0.24,0.26-0.44,0.33c-0.01-0.01-0.01-0.02-0.01-0.02l-0.05-0.05c-0.91-1.05-2.37-0.98-2.8-0.94
			c-0.17-0.11-0.33-0.22-0.41-0.3c0.05-0.66-0.1-1.27-0.42-1.77c-0.11-0.16-0.23-0.31-0.38-0.45c0,0-0.01-0.01-0.01-0.01
			c0-0.01,0-0.02,0-0.03c-0.02-0.24-0.12-0.46-0.29-0.62c-0.21-0.2-0.49-0.3-0.81-0.29c-0.29,0-0.54,0.1-0.73,0.17l-0.06,0.02
			c-0.16,0.07-0.33,0.14-0.44,0.1c-0.02,0-0.05-0.02-0.08-0.04c0.2-1.13,0-2.18-0.59-2.88c-1.06-1.25-3.11-1.41-4.63-1.32
			c-3.61,0.18-7.27,1.49-10.88,3.91c-4.12,2.76-7.88,5.64-11.52,8.81c-0.53,0.46-1.09,0.93-1.63,1.38c-1.43,1.2-2.91,2.44-4.18,3.84
			c-0.47,0.53-1.02,1.12-1.1,1.96c-0.04,0.34,0.16,0.5,0.25,0.56c0.09,0.05,0.19,0.08,0.31,0.08c0.29,0,0.66-0.15,1.12-0.46
			c0.27-0.18,0.53-0.34,0.79-0.49c0.22-0.13,0.44-0.27,0.66-0.41c0.09-0.06,0.21-0.04,0.26,0.05c0.07,0.13,0.17,0.2,0.25,0.23
			c0.39,0.19,0.91-0.07,1.72-0.71c0.08-0.06,0.19-0.05,0.25,0.02c0.05,0.06,0.11,0.11,0.16,0.15c0.43,0.27,0.85-0.04,1.02-0.15
			c0.29-0.22,0.61-0.38,0.95-0.54c0.08-0.04,0.17,0,0.22,0.07c0.03,0.04,0.07,0.08,0.12,0.13c0.2,0.16,0.47,0.18,0.7,0.07
			c0.45-0.2,0.83-0.5,1.2-0.78c0.04-0.03,0.08-0.07,0.13-0.1c0.13,0.11,0.32,0.18,0.6,0.13l0.04-0.01c0.44-0.13,0.75-0.34,1.02-0.57
			c0.09-0.08,0.23-0.05,0.28,0.06c0.05,0.12,0.14,0.22,0.26,0.3c0.15,0.09,0.4,0.16,0.74,0c0.65-0.25,1.2-0.65,1.73-1.03
			c0.16-0.12,0.32-0.23,0.47-0.33c0.06,0.07,0.15,0.13,0.26,0.16c0.14,0.05,0.3,0.04,0.45-0.01c0.65-0.23,1.22-0.6,1.77-0.98
			c0.07-0.05,0.16-0.04,0.23,0.02c0.07,0.06,0.16,0.11,0.26,0.13c0.43,0.1,1.01-0.23,1.86-0.83c0.07-0.05,0.14-0.1,0.18-0.13
			c0.08,0.02,0.19,0.05,0.35,0.04l0.06-0.01c0.45-0.12,0.83-0.36,1.2-0.6l0.2-0.13c0.04-0.03,0.1-0.08,0.16-0.13
			c0.03-0.02,0.07-0.06,0.12-0.1c0.1,0.1,0.22,0.17,0.34,0.2c0.07,0.02,0.12,0.08,0.13,0.15c0.07,0.52,0.29,1.13,0.75,1.32
			c0.15,0.06,0.41,0.12,0.72-0.05c0.06-0.03,0.14-0.03,0.2,0.02c0.18,0.14,0.36,0.18,0.49,0.18c0.19,0,0.48-0.07,0.75-0.43
			l0.05-0.06c0.13-0.17,0.2-0.26,0.31-0.3c0.07-0.03,0.13-0.06,0.17-0.1c0.11,0.09,0.24,0.16,0.37,0.18
			c0.21,0.03,0.4-0.04,0.55-0.18c0.18,0.08,0.4,0.09,0.57-0.05c0.1-0.09,0.17-0.1,0.29-0.04c0.03,0.02,0.07,0.03,0.11,0.03
			c0.07,0.22,0.2,0.49,0.47,0.62c0.04,0.02,0.05,0.03,0.11,0.17l0.03,0.07c0.13,0.27,0.33,0.63,0.7,0.69
			c0.09,0.01,0.22,0.01,0.35-0.05c0,0.01,0,0.01,0,0.02l0.04,0.2l0.17-0.11c0.28-0.18,0.53-0.49,0.72-0.87
			c0.09,0.44,0.26,0.84,0.5,1.2c-0.78,0.65-1.19,1.72-1.02,2.67l0.04,0.2l0.18-0.11c0.29-0.17,0.56-0.48,0.76-0.88
			c0.09,0.55,0.3,1.07,0.62,1.49c-0.78,0.82-0.96,1.78-0.7,2.69l0.06,0.2l0.17-0.12c0.27-0.19,0.5-0.51,0.66-0.91
			c0.05,0.27,0.12,0.53,0.23,0.77c0.23,0.51,0.18,0.64,0.61,0.96c-0.08,0.11-0.15,0.24-0.21,0.36c-1.39-0.59-3.07-1.01-5.04-1.01
			c-1.48,0-3.01,0.24-4.56,0.73c-2.14,0.67-3.72,0.89-4.88,0.89l0,0c0.11-0.17,0.21-0.35,0.29-0.54c0.1-0.24,0.17-0.49,0.21-0.75
			c0.02-0.17,0.02-0.35,0-0.53h0l-0.01-0.04c-0.01-0.09-0.03-0.18-0.05-0.28l-0.01-0.07c-0.16-0.56-0.66-1-1.07-1.36
			c-0.41-0.36-0.88-0.77-1.55-0.85c-0.53-0.07-1.14,0.04-1.84,0.33c-1.15,0.46-1.55,0.33-1.91,0.22l-0.08-0.03
			c-0.41-0.15-1.29-0.79-1.3-0.8l-0.37-0.27l0.59,1.74l-1.87,0.16l0.16,0.21c0.03,0.03,0.63,0.78,2.13,1.29
			c0.34,0.1,0.67,0.14,0.98,0.14c0.94,0,1.71-0.37,2.36-0.68c0.25-0.12,0.48-0.23,0.7-0.31c0.25-0.09,0.5-0.15,0.76-0.17
			c-0.21,0.82-0.93,1.39-1.23,1.6l-0.16,0.1l0.01,0.07c0.08,0.61,0.58,3.69,2.17,4.71c0.47,0.31,1.02,0.43,1.65,0.43
			c0.24,0,0.49-0.02,0.76-0.05c-0.1,1.03-0.17,2.06-0.22,3.08l-11.43-7.48l-0.51-2.57c0,0-4.78-1.04-4.78-1.03
			c-0.21-0.02-0.4,0.08-0.52,0.25c-0.13,0.2-0.13,0.45,0.01,0.64l2.82,3.91l2.53-0.55c-0.18,2.38-0.29,4.7-0.3,6.9l-1.25-0.82
			l-0.52-2.57c0,0-4.78-1.04-4.78-1.03c-0.2-0.02-0.41,0.08-0.52,0.26c-0.13,0.2-0.12,0.45,0.01,0.64l2.82,3.91l2.46-0.53
			c-1.75,13.18,0.22,22.14,2.18,27.35c2.02,5.35,4.4,7.89,4.79,8.28c0.65,0.75,4.88,5.35,11.43,5.35c2.83,0,6.1-0.87,9.68-3.29
			c-1.12,3.67-3.99,7.99-4.02,8.04l-0.16,0.23l0.28-0.01c1.3-0.04,2.33,0.07,3.11,0.22l-0.48,1.98c-0.06,0.18-0.05,0.33-0.05,0.33
			c-0.01,0.1,0.03,0.32,0.22,0.5c0.3,0.28,0.85,0.35,1.63,0.21c0.36-0.06,0.63-0.06,0.85-0.04l0.08,2.09c-0.01,0.04,0,0.08,0,0.12
			c0.01,0.05,0.02,0.1,0.06,0.15c0.26,0.39,1.2,0.59,2.79,0.59c1.59,0,2.52-0.2,2.78-0.59c0.07-0.1,0.08-0.2,0.06-0.28l0.08-2.09
			c0.22-0.02,0.49-0.02,0.85,0.04c0.78,0.13,1.33,0.06,1.63-0.21c0.19-0.17,0.23-0.39,0.22-0.49c0-0.05,0-0.09,0-0.14
			c-0.02-0.12-0.06-0.25-0.09-0.37c-0.05-0.2-0.1-0.4-0.15-0.6c-0.06-0.24-0.12-0.47-0.17-0.71c-0.04-0.15-0.07-0.31-0.11-0.46
			c0-0.01,0-0.02-0.01-0.04c0.78-0.15,1.82-0.26,3.11-0.22l0.28,0.01l-0.16-0.23c-0.03-0.05-2.91-4.38-4.03-8.05
			c3.59,2.43,6.86,3.31,9.7,3.31c6.55,0,10.82-4.63,11.47-5.38c0.11-0.11,2.57-2.53,4.73-8.25c1.97-5.21,3.93-14.17,2.18-27.35
			l2.45,0.53l2.82-3.91C155.98,41.79,155.99,41.53,155.86,41.34 M149.21,36.03l3.69-0.8l-2.21,3.06l-1.85-0.4L149.21,36.03z
			 M85.68,38.28l-2.21-3.06l3.69,0.8l0.37,1.85L85.68,38.28z M83.68,45.02l-2.21-3.06l3.69,0.8l0.37,1.86L83.68,45.02z M142.49,42.5
			l5.26-3.44c0.18,2.4,0.27,4.73,0.28,6.94l-5.98,3.92C142.29,47.68,142.43,45.24,142.49,42.5 M136.64,46.33l2.49-1.63
			c-0.11,2.75-0.34,5.24-0.7,7.58l-1.94,1.27C136.68,51.27,136.73,48.87,136.64,46.33 M136.4,54.53l3.1-2.03
			c-0.18,4.27-0.75,8.53-2.08,12.6c-0.67,2.08-1.54,4.1-2.61,6.03c-1.05,1.91-2.3,3.72-3.7,5.4c-0.73,0.88-1.5,1.72-2.3,2.53
			c-0.58-0.56-1.01-1.05-1.27-1.38C131.68,72.53,135.38,64.91,136.4,54.53 M122.81,77.5c-0.08-0.13-0.22-0.18-0.33-0.22l-0.06-0.02
			c-0.07-0.03-0.11-0.07-0.11-0.09c0-0.01,0.05-0.04,0.07-0.06c0.04-0.03,0.07-0.05,0.12-0.1c0.15-0.21,0.15-0.45,0-0.67
			c-0.22-0.31-0.68-0.47-1-0.37c-0.15,0.03-0.27,0.1-0.39,0.16c-0.06,0.03-0.13,0.06-0.19,0.09c-0.09,0.04-0.3,0.11-0.45,0.01
			c-0.05-0.03-0.09-0.08-0.13-0.14c-0.06-0.07-0.12-0.15-0.21-0.21c-0.14-0.09-0.3-0.1-0.42-0.11l-1.68-0.1
			c-0.22-0.02-0.36,0.05-0.46,0.24c-0.03,0.03-0.11,0.03-0.23,0.03c-0.09,0-0.2,0-0.3,0.03c-0.18,0.06-0.28,0.2-0.38,0.32
			c-0.05,0.08-0.11,0.15-0.17,0.19c-0.16,0.12-0.38,0.08-0.62,0.05c-0.11-0.01-0.23-0.03-0.34-0.03c-0.31-0.01-0.76,0.13-0.99,0.43
			c-0.14,0.17-0.17,0.36-0.11,0.58c0.02,0.04,0.04,0.08,0.07,0.12c0.01,0.02,0.03,0.05,0.04,0.07c0.04,0.08,0,0.19-0.08,0.28
			c-0.1,0.11-0.26,0.12-0.44,0.14c-0.2,0.02-0.42,0.04-0.59,0.21c-0.05,0.06-0.09,0.13-0.12,0.18c-0.03,0.05-0.05,0.1-0.08,0.13
			c-0.03,0.03-0.08,0.05-0.13,0.07c-0.05,0.02-0.1,0.04-0.15,0.07c-0.32,0.21-0.32,0.59-0.32,0.93c0,0.15,0,0.26-0.02,0.36
			c-2.67-2.55-5.4-6.13-7.56-10.8h2.19c0.05,0.1,0.1,0.2,0.14,0.3c0.31,0.68,0.63,1.37,1.23,1.85c0.16,0.17,0.27,0.38,0.4,0.6
			c0.12,0.2,0.23,0.42,0.39,0.61c0.23,0.27,0.52,0.47,0.8,0.66c0.79,0.54,1.69,1.15,2.71,1.36c0.25,0.05,0.5,0.08,0.75,0.11
			c0.3,0.03,0.59,0.06,0.87,0.14c0.2,0.05,0.4,0.12,0.6,0.2c0.17,0.06,0.33,0.13,0.5,0.17c0.64,0.19,1.3,0.21,1.94,0.24
			c1.08,0.04,2.2,0.09,3.28-0.2l0.15-0.04c0.53-0.15,1.08-0.29,1.45,0c0.15,0.11,0.26,0.3,0.37,0.47c0.19,0.31,0.39,0.63,0.81,0.66
			c0.1,0,0.13,0.01,0.13,0.02c0.02,0.02,0.02,0.13,0.02,0.21c0,0.05,0,0.11,0.01,0.18c0.03,0.19,0.17,0.35,0.39,0.4
			c0.06,0.01,0.12,0.02,0.17,0.02c0.19,0,0.36-0.08,0.47-0.21c0.27-0.33,0.13-0.84-0.16-1.09l-0.03-0.02
			c-0.03-0.02-0.06-0.05-0.07-0.07c0-0.01-0.01-0.05,0.07-0.16c0.42-0.58,1.09-0.97,1.8-1.04c0.05,0,0.11-0.01,0.16-0.01
			c0.25-0.02,0.51-0.03,0.73-0.18l0.21-0.14l-0.22-0.12c-0.15-0.08-0.3-0.17-0.43-0.28c0.53-0.29,1.1-0.39,1.73,0.31
			c-1.62,2.48-3.39,4.51-5.12,6.12c-0.03-0.06-0.06-0.14-0.07-0.23l-0.01-0.04c-0.03-0.06-0.06-0.11-0.1-0.15
			c-0.02-0.03-0.05-0.06-0.06-0.09c-0.02-0.04-0.02-0.1-0.02-0.17c0-0.05,0-0.11-0.01-0.16c-0.05-0.29-0.3-0.52-0.69-0.65
			c-0.11-0.04-0.14-0.06-0.15-0.08c0.03-0.12,0.11-0.25,0.2-0.39C122.76,78.14,122.95,77.85,122.81,77.5 M114.18,42.08
			c-4.6,1.61-8.24,0.49-10.38-0.65c0.45-0.13,0.91-0.25,1.39-0.38c4.2-0.81,7.34-0.12,9,0.44
			C114.17,41.68,114.16,41.88,114.18,42.08 M115.8,42.25c0.26,0.35,0.57,0.64,0.93,0.84l0.18,0.1l0.03-0.2
			c0.06-0.37,0.02-0.79-0.12-1.23c0.3-0.16,0.61-0.33,0.92-0.51c0.06,0.16,0.14,0.31,0.22,0.46l0.11,0.18l0.13-0.17
			c0.12-0.15,0.21-0.33,0.3-0.54c3.02,1.81,5.76,2.43,8.12,2.43c2.89,0,5.19-0.94,6.67-1.78c0.02-0.01,0.15-0.09,0.24-0.15
			c0.59,0.17,1.14,0.31,1.66,0.43c0,0.09,0.01,0.2,0.02,0.24c0.47,4.91,0.4,9.35-0.09,13.35h-33.86c-0.51-4.07-0.61-8.58-0.13-13.58
			c0.53-0.12,1.09-0.27,1.69-0.44C105.23,43.13,109.99,44.8,115.8,42.25 M112.96,31.95L112.96,31.95c-0.01-0.05-0.03-0.09-0.04-0.14
			c0.29,0.26,0.63,0.45,0.99,0.55l0.2,0.05l-0.01-0.2c-0.03-0.43-0.26-0.92-0.61-1.34l0,0c-0.24-0.27-0.6-0.56-0.99-0.72
			c0.05-0.23,0.07-0.48,0.06-0.75l1,0.77l0.28,0.4l0.02,0.81c0.04,0.07,0.08,0.13,0.13,0.19c0.03,0.04,0.06,0.08,0.08,0.12
			l0.03,0.04c0.02,0.04,0.06,0.09,0.06,0.11c0,0.31,0.09,0.59,0.27,0.88c-0.03,0.04-0.06,0.08-0.1,0.12
			c-0.07,0.09-0.15,0.18-0.22,0.27c-0.17,0.19-0.29,0.4-0.37,0.65c-0.27-0.21-0.59-0.43-0.72-0.49
			C113.06,32.85,113.05,32.4,112.96,31.95 M113.33,20.91c-0.01,0.19-0.03,0.38-0.07,0.58c-0.06,0.31-0.17,0.63-0.31,0.92
			c-0.24,0.45-0.57,0.83-0.91,1.04c0-0.73,0.27-1.46,0.75-2.01C112.96,21.23,113.14,21.05,113.33,20.91 M113.11,20.39
			c-0.58-0.07-1.06,0.08-1.45,0.47c0,0-0.01,0.01-0.02,0.01c-0.01-0.15,0.04-0.28,0.09-0.39c0.05-0.1,0.1-0.19,0.16-0.27
			c0.13-0.17,0.3-0.32,0.51-0.44c0.12-0.07,0.25-0.09,0.37-0.09c0.11,0,0.22,0.02,0.33,0.04c0.12,0.03,0.18,0.11,0.21,0.26
			c0.02,0.11,0.02,0.19-0.07,0.39c-0.01,0-0.01,0-0.02,0C113.2,20.39,113.16,20.39,113.11,20.39 M112.25,25.64L112.25,25.64
			c0.01-0.12,0-0.25,0-0.37c0.26,0.35,0.6,0.63,0.98,0.79l0.19,0.08l0.01-0.2c0.03-0.43-0.13-0.94-0.42-1.41l0,0
			c-0.19-0.28-0.49-0.61-0.83-0.83c0.39-0.23,0.75-0.64,1.03-1.15v0c0.15-0.29,0.26-0.61,0.32-0.92c0.11,0.35,0.26,0.67,0.4,0.92
			c0.28,0.45,0.66,0.82,1.11,1.07c-0.49,0.87-0.53,1.92-0.1,2.73l0.1,0.19l0.14-0.16c0.25-0.29,0.42-0.73,0.49-1.22
			c0.27,0.55,0.66,1.01,1.13,1.31c-0.17,0.14-0.32,0.32-0.46,0.51c-0.42,0.57-0.61,1.32-0.51,2.01l0.03,0.2l0.18-0.1
			c0.35-0.18,0.68-0.57,0.9-1.05c0.1,0.61,0.35,1.17,0.73,1.61c-0.36,0.23-0.68,0.55-0.91,0.92c-0.25,0.41-0.39,0.91-0.39,1.41v0.2
			l0.19-0.07c0.33-0.11,0.66-0.38,0.93-0.75c-0.03,0.63,0.1,1.25,0.38,1.78c-0.19,0.08-0.37,0.18-0.55,0.31
			c-0.57,0.4-0.98,1.05-1.1,1.74l-0.03,0.2l0.2-0.03c0.35-0.05,0.73-0.26,1.07-0.59c-0.15,0.73-0.07,1.51,0.23,2.15
			c-0.22,0.25-0.41,0.53-0.57,0.87c-0.31,0.62-0.42,1.35-0.32,2.03c-0.42-0.38-0.97-0.81-1.61-1.23c-0.05-0.18-0.1-0.34-0.16-0.46
			l0,0c-0.03-0.07-0.07-0.14-0.11-0.2c0.25,0.1,0.52,0.15,0.79,0.15c0.07,0,0.14,0,0.21-0.01l0.19-0.02l-0.07-0.18
			c-0.15-0.4-0.52-0.79-0.97-1.07l0,0c-0.03-0.01-0.06-0.03-0.1-0.05c-0.02-0.31-0.11-0.61-0.46-0.66
			c-0.13-0.01-0.26,0.01-0.39,0.03c-0.02,0-0.05,0.01-0.08,0c-0.02-0.01-0.02-0.04-0.03-0.06c-0.08-0.25-0.13-0.51-0.15-0.77
			c0.2,0.15,0.42,0.27,0.65,0.34l0.19,0.06l0-0.2c0-0.43-0.19-0.93-0.52-1.37v0c-0.03-0.03-0.1-0.1-0.18-0.17
			c0.03-0.08,0.06-0.16,0.1-0.23c0.18-0.3,0.38-0.6,0.61-0.87c0.03-0.04,0.08-0.09,0.13-0.08c-0.23-0.14-0.38-0.3-0.43-0.58
			c-0.04-0.2-0.05-0.44,0-0.64c0.01-0.04,0.02-0.08,0.06-0.09c-0.15-0.04-0.26-0.18-0.3-0.34c-0.04-0.14-0.05-0.34-0.03-0.49
			l0.01-0.08l-0.6-0.91c0,0-0.61-0.01-0.96-0.54c-0.01-0.01-0.01-0.02-0.02-0.03c-0.01-0.1-0.02-0.2-0.04-0.3
			c0.24,0.2,0.51,0.36,0.8,0.45l0.19,0.06l-0.01-0.2c-0.01-0.43-0.21-0.93-0.55-1.36l0,0c-0.27-0.33-0.64-0.61-1.03-0.79
			C112.08,26.58,112.21,26.13,112.25,25.64 M111.99,23.92c0.31,0.19,0.6,0.51,0.77,0.76c0.21,0.33,0.34,0.69,0.37,1.01
			c-0.29-0.16-0.55-0.41-0.73-0.7c-0.12-0.18-0.21-0.38-0.28-0.59c-0.02-0.1-0.05-0.2-0.09-0.3C112.02,24.05,112,23.99,111.99,23.92
			 M113.68,20.93c0.41,0.26,0.78,0.63,1.04,1.04c0.27,0.45,0.43,0.95,0.44,1.37c-0.39-0.22-0.74-0.55-0.98-0.95
			C113.9,21.92,113.72,21.39,113.68,20.93 M115.24,23.84c0.11,0.31,0.17,0.73,0.15,1.13c-0.03,0.39-0.14,0.75-0.3,1.02
			C114.84,25.33,114.9,24.52,115.24,23.84 M115.59,23.76c0.4,0.28,0.75,0.66,0.99,1.08c0.21,0.39,0.34,0.8,0.37,1.18v0.16
			C116.16,25.77,115.67,24.79,115.59,23.76 M116.92,26.74c0,0.05,0,0.09,0,0.14c-0.01,0.07-0.01,0.14-0.01,0.21
			c-0.03,0.27-0.1,0.54-0.2,0.78c-0.15,0.35-0.37,0.65-0.61,0.83c-0.02-0.55,0.15-1.12,0.48-1.57
			C116.68,27.01,116.8,26.86,116.92,26.74 M118.44,31.62c0.01,0.51-0.09,1-0.27,1.37l-0.04-0.02c-0.31-0.61-0.42-1.36-0.28-2.08
			c0.05-0.25,0.12-0.54,0.22-0.76C118.29,30.59,118.42,31.11,118.44,31.62 M118.28,29.46c0.29,0.21,0.55,0.5,0.73,0.81
			c0.19,0.34,0.3,0.71,0.31,1.04c-0.43-0.28-0.76-0.75-0.92-1.29C118.36,29.84,118.3,29.64,118.28,29.46 M117.53,39.49
			c-0.11,0.22-0.24,0.42-0.38,0.57c-0.17-0.7-0.08-1.49,0.24-2.15c0.12-0.25,0.25-0.46,0.4-0.66c0.03,0.18,0.06,0.37,0.07,0.57
			c0.01,0.18,0,0.36-0.01,0.54c-0.1,0.23-0.19,0.48-0.25,0.76C117.56,39.25,117.54,39.37,117.53,39.49 M117.54,40.48
			c-0.01,0.01-0.02,0.01-0.03,0.02c-0.06-0.06-0.12-0.12-0.19-0.19c0.06-0.06,0.12-0.13,0.18-0.21
			C117.51,40.22,117.52,40.35,117.54,40.48 M115.38,40.18c0.39,0.29,0.73,0.69,0.96,1.13c0.23,0.47,0.35,0.98,0.34,1.41
			c-0.56-0.38-0.99-1.01-1.17-1.73C115.46,40.73,115.39,40.43,115.38,40.18 M115.42,41.59c-0.03,0.01-0.05,0.02-0.08,0.03
			c-0.05-0.02-0.1-0.05-0.16-0.07c0.02-0.07,0.05-0.13,0.07-0.2l0,0c0.01-0.04,0.02-0.08,0.03-0.12
			C115.32,41.35,115.37,41.47,115.42,41.59 M116.51,41.03c-0.28-0.48-0.68-0.91-1.12-1.2c0-0.19-0.03-0.51-0.1-0.83
			c0.68,0.47,1.23,0.93,1.63,1.31c0.01,0.02,0.01,0.05,0.02,0.07l0.06,0.2l0.1-0.08c0.04,0.04,0.09,0.09,0.13,0.13
			c-0.01,0-0.02,0.01-0.03,0.02c-0.15,0.09-0.31,0.17-0.46,0.26C116.66,40.94,116.58,40.99,116.51,41.03 M117.81,39.58
			c0.1-0.21,0.19-0.45,0.25-0.7v0c0.03-0.13,0.05-0.27,0.07-0.41c0.07,0.16,0.14,0.34,0.18,0.53c0.09,0.31,0.13,0.64,0.13,0.97
			c-0.01,0.53-0.14,1.03-0.34,1.38C117.85,40.82,117.74,40.19,117.81,39.58 M118.12,37.12c0.26,0.25,0.47,0.57,0.61,0.9
			c0.14,0.35,0.2,0.71,0.18,1.01C118.41,38.57,118.11,37.85,118.12,37.12 M117.88,36.61c-0.25-0.67-0.27-1.46-0.03-2.16
			c0.09-0.26,0.19-0.5,0.32-0.72c0.06,0.17,0.1,0.36,0.14,0.55c0.06,0.31,0.07,0.65,0.04,0.98
			C118.29,35.79,118.12,36.27,117.88,36.61 M117.4,34.42c-0.26,0.28-0.55,0.49-0.83,0.59c0.15-0.53,0.48-1.01,0.93-1.33
			c0.15-0.11,0.3-0.2,0.46-0.26c-0.03,0.09-0.07,0.19-0.12,0.28l-0.03,0.09C117.71,34.01,117.56,34.23,117.4,34.42 M117.37,27.02
			c0.07,0.09,0.15,0.17,0.22,0.25c0.14,0.25,0.25,0.52,0.32,0.79c0.08,0.34,0.11,0.68,0.09,1L118,29.17c0,0.03,0,0.07,0,0.1
			c-0.01,0.07-0.02,0.14-0.03,0.2l-0.03,0.01c-0.45-0.51-0.73-1.22-0.75-1.96c0-0.15,0-0.31,0.01-0.46
			c0.01-0.07,0.02-0.15,0.02-0.22c0-0.01,0-0.02,0-0.04C117.27,26.88,117.33,26.95,117.37,27.02 M117.3,26.37
			c0.34,0.08,0.68,0.24,0.95,0.46c0.3,0.25,0.53,0.55,0.66,0.85c-0.39-0.07-0.77-0.27-1.08-0.57
			C117.69,26.84,117.51,26.59,117.3,26.37 M117.77,29.92c-0.04,0.34-0.17,0.73-0.38,1.08c-0.2,0.32-0.46,0.58-0.71,0.73
			c0.04-0.36,0.15-0.72,0.34-1.03C117.2,30.4,117.47,30.13,117.77,29.92 M114.92,37.05c0.33,0.2,0.6,0.46,0.76,0.74
			c-0.33-0.01-0.66-0.1-0.95-0.27c-0.08-0.05-0.15-0.1-0.23-0.16c-0.18-0.1-0.46-0.43-0.44-0.41c-0.06-0.07-0.11-0.14-0.15-0.21
			C114.25,36.77,114.61,36.87,114.92,37.05 M114.14,36.53c0.01-0.01,0.01-0.03,0.02-0.04c0.05-0.08,0.11-0.13,0.19-0.16
			c0.04-0.02,0.08-0.03,0.12-0.03c0.04,0,0.08,0.01,0.11,0.03c0.03,0.01,0.05,0.04,0.06,0.06c0.02,0.03,0.03,0.06,0.03,0.09
			c0,0.04,0.01,0.08,0.01,0.12c0,0.02,0,0.05,0,0.07C114.53,36.61,114.32,36.57,114.14,36.53 M112.7,27.92
			c0.24,0.31,0.4,0.66,0.46,0.97c-0.32-0.14-0.62-0.39-0.85-0.69c-0.11-0.27-0.24-0.54-0.4-0.78c-0.02-0.06-0.05-0.12-0.06-0.18
			C112.17,27.39,112.47,27.64,112.7,27.92 M112.39,30.42c0.33,0.14,0.66,0.42,0.86,0.64c0.25,0.3,0.43,0.63,0.51,0.95
			c-0.31-0.12-0.6-0.32-0.83-0.59c-0.24-0.28-0.43-0.62-0.55-0.99C112.39,30.43,112.39,30.42,112.39,30.42 M113.93,34.29
			c0.23,0.31,0.39,0.66,0.44,0.98c-0.46-0.21-0.85-0.61-1.08-1.12c-0.07-0.17-0.15-0.36-0.2-0.54
			C113.41,33.77,113.7,34.01,113.93,34.29 M113.87,37.17c0.12,0.14,0.26,0.27,0.41,0.39c0.19,0.21,0.36,0.45,0.49,0.7
			c0.23,0.47,0.35,0.98,0.34,1.41c-0.56-0.38-0.99-1.01-1.17-1.73c-0.02-0.07-0.03-0.14-0.05-0.21c-0.01-0.16-0.04-0.32-0.07-0.47
			c0-0.04-0.01-0.09-0.01-0.13C113.84,37.14,113.85,37.16,113.87,37.17 M114.98,41.26c-0.12,0.36-0.29,0.67-0.5,0.89
			c-0.05-0.33-0.02-0.69,0.08-1.01c0.12-0.37,0.31-0.71,0.52-0.96C115.11,40.54,115.08,40.92,114.98,41.26 M121.4,41.78
			c1.3-0.55,4.81-1.7,9.8-0.74c0.44,0.12,0.87,0.23,1.28,0.35C129.85,42.78,126.05,43.69,121.4,41.78 M135.01,56.49
			c-0.63,4.6-1.81,8.6-3.31,12.03h-13.15v-0.36l0.89-1.88l-0.85-2.55c0.45,0.06,0.9,0.2,1.35,0.45c0.09,0.37,0.52,1.93,1.23,2.17
			c0.26,0.09,0.57,0.12,0.88,0.12c0.61,0,1.24-0.14,1.51-0.3l0.17-0.11l-0.16-0.13c0,0-0.53-0.38-1.04-0.9
			c-0.69-0.71-0.67-2.03-0.63-2.72c0-0.06,0.01-0.14,0.02-0.24c0.1-0.99,0.39-4.01-2.16-4.5c-0.55-0.1-1.11-0.1-1.65-0.01
			c-0.48,0.09-0.95,0.25-1.39,0.46c-0.36,0.18-0.71,0.39-1.04,0.63c-0.19,0.14-0.4,0.28-0.57,0.45c-0.2,0.21-0.24,0.43-0.28,0.71
			c-0.03,0.25-0.06,0.5-0.06,0.76c0,0.14,0,0.31,0.09,0.43c0.18,0.25,0.36,0.19,0.49,0.14c0.03-0.01,0.06-0.02,0.09-0.03
			c0.04,0.37-0.13,1.82-0.34,3.12l-0.05,0.31l0.27-0.16c0.01-0.01,0.88-0.51,2.03-0.66l-0.85,2.56l0.92,1.88v0.35H104.7
			c-1.5-3.43-2.69-7.43-3.34-12.03H135.01z M126.56,74.01c0.12,0.11,0.24,0.21,0.38,0.3c-0.11,0.02-0.22,0.03-0.34,0.04
			c-0.06,0-0.12,0.01-0.17,0.01c-0.8,0.08-1.55,0.51-2.01,1.16c-0.04,0.06-0.18,0.25-0.1,0.44c0.03,0.09,0.1,0.14,0.15,0.18
			l0.02,0.02c0.19,0.16,0.29,0.49,0.13,0.7c-0.08,0.1-0.23,0.12-0.34,0.09c-0.05-0.01-0.16-0.05-0.18-0.16c0-0.05,0-0.1,0-0.15
			c0-0.15,0-0.31-0.11-0.42c-0.08-0.07-0.19-0.1-0.32-0.1c-0.25-0.02-0.4-0.26-0.57-0.53c-0.12-0.2-0.25-0.4-0.43-0.55
			c-0.49-0.39-1.14-0.21-1.71-0.05l-0.15,0.04c-1.04,0.28-2.13,0.23-3.19,0.19c-0.62-0.02-1.27-0.05-1.87-0.23
			c-0.16-0.05-0.33-0.11-0.49-0.17c-0.2-0.08-0.41-0.15-0.63-0.21c-0.3-0.08-0.61-0.11-0.91-0.14c-0.24-0.03-0.48-0.05-0.72-0.1
			c-0.96-0.2-1.83-0.79-2.6-1.32c-0.27-0.18-0.54-0.37-0.75-0.61c-0.14-0.17-0.25-0.36-0.36-0.56c-0.13-0.22-0.26-0.45-0.45-0.67
			c-0.56-0.45-0.86-1.08-1.17-1.76c-0.02-0.06-0.05-0.11-0.08-0.17h23.8c-0.79,1.71-1.65,3.28-2.56,4.69
			c-0.84-0.88-1.65-0.56-2.22-0.2l-0.16,0.1L126.56,74.01z M116.83,66.26l0.85-2.57c0.2-0.01,0.4-0.02,0.61,0l0.85,2.57l-0.85,1.81
			l-0.01,0.45h-0.56v-0.42L116.83,66.26z M120.67,60.38c-0.3-0.68-0.88-1.28-1.62-1.4c-0.61-0.1-1.22,0.14-1.75,0.44
			c-0.45,0.25-0.86,0.55-1.25,0.89c-0.18,0.15-0.34,0.32-0.54,0.45c-0.07,0.05-0.2,0.15-0.29,0.15c-0.1,0-0.14-0.13-0.14-0.21
			c0-0.31,0.02-0.62,0.06-0.92c0.01-0.09,0.03-0.18,0.07-0.27c0.05-0.11,0.15-0.2,0.24-0.28c1-0.86,2.27-1.44,3.58-1.44
			c0.53,0,1.07,0.1,1.51,0.39c0.62,0.41,0.97,1.15,1.09,1.89c0.12,0.74,0.05,1.49,0.02,2.24c-0.03,0.75-0.01,1.51,0.27,2.21
			c0.26,0.62,0.72,1.15,1.31,1.49c-0.5,0.18-1.05,0.24-1.58,0.17c-0.18-0.02-0.35-0.06-0.5-0.16c-0.17-0.11-0.28-0.28-0.37-0.46
			c-0.22-0.41-0.39-0.84-0.49-1.29c-0.02-0.09-0.04-0.18-0.1-0.25c-0.04-0.05-0.1-0.08-0.15-0.11c-0.69-0.38-1.5-0.53-2.29-0.49
			c-0.79,0.04-1.57,0.26-2.28,0.6c0.17-0.94,0.27-1.89,0.3-2.85c0-0.05,0-0.1,0.02-0.15c0-0.01,0.01-0.02,0.01-0.04
			c0.02-0.05,0.07-0.1,0.11-0.14c0.55-0.5,1.16-0.96,1.83-1.29c0.49-0.24,1.07-0.4,1.59-0.21c0.3,0.11,0.54,0.33,0.73,0.58
			c0.57,0.75,0.69,1.73,0.78,2.67c0.09,0,0.18-0.01,0.28-0.01C121.03,61.81,120.97,61.06,120.67,60.38 M138.56,34.73
			c0.4-0.35,0.81-0.71,1.39-0.78c0.48-0.06,1.04,0.04,1.7,0.31c1.25,0.5,1.7,0.36,2.11,0.23l0.08-0.03c0.27-0.1,0.7-0.37,1.01-0.58
			l-0.42,1.23l1.66,0.15c-0.28,0.25-0.84,0.67-1.78,0.98c-1.28,0.35-2.26-0.12-3.13-0.53c-0.25-0.12-0.49-0.24-0.72-0.32
			c-0.9-0.33-1.88-0.27-2.68,0.13C137.99,35.23,138.28,34.97,138.56,34.73 M137.57,36c0.5-0.35,1.11-0.53,1.74-0.53
			c0.18,0.89,0.88,1.51,1.26,1.78c-0.28,0.27-0.99,0.74-2.49,0.81C137.9,37.82,137.31,36.93,137.57,36 M128.29,36.75L128.29,36.75
			c1.45,0,2.95,0.24,4.47,0.71c4.95,1.51,7.15,0.71,7.88,0.12c-0.17,1-0.7,3.32-1.98,4.14c-1.19,0.77-3.03,0.26-5.57-0.46
			c-0.57-0.16-1.18-0.33-1.82-0.5c-5.42-1.04-9.13,0.36-10.23,0.87c-0.22-0.1-0.45-0.2-0.68-0.31c-0.04-0.03-0.09-0.06-0.14-0.09
			c-0.18-0.11-0.37-0.22-0.56-0.32c-0.15-0.09-0.31-0.17-0.46-0.26c-0.01,0-0.02-0.01-0.03-0.02
			C120.3,39.42,123.39,36.75,128.29,36.75 M122.59,37.25c0.03,0.05,0.05,0.1,0.08,0.15c0.04,0.06,0.08,0.13,0.08,0.21
			c0.01,0.17-0.2,0.22-0.33,0.17c-0.22-0.09-0.45-0.28-0.62-0.44c-0.22-0.21-0.76-0.95-0.3-1.18c0.25-0.12,0.5,0.16,0.63,0.34
			C122.3,36.73,122.44,37,122.59,37.25 M122.63,22.21c0.49-0.79,0.22-1.89-0.03-2.64l-0.04-0.14c-0.6-2.01-0.93-3.61,0.6-4.41
			c0.84-0.42,1.93-0.59,3.35-0.52c3.47,0.17,7,1.44,10.49,3.78c4.09,2.74,7.83,5.6,11.44,8.76c0.54,0.47,1.1,0.94,1.64,1.39
			c1.41,1.18,2.87,2.41,4.1,3.77c0.35,0.39,0.68,0.76,0.83,1.2c-0.32-0.14-0.63-0.34-0.95-0.56c-0.23-0.16-0.48-0.32-0.72-0.45
			c-0.46-0.28-0.71-0.44-1.12-0.83c-0.17-0.15-0.42-0.14-0.59,0.01c-0.17,0.15-0.2,0.4-0.07,0.59c0.09,0.13,0.14,0.19,0.16,0.26
			c-0.09-0.05-0.19-0.11-0.28-0.17l-0.02-0.02c-0.27-0.17-0.55-0.41-0.82-0.63c-0.22-0.18-0.44-0.37-0.66-0.53l-1.38-0.98l0.82,1.48
			c0.06,0.11,0.11,0.22,0.15,0.33c0,0-0.01,0-0.01-0.01c-0.45-0.33-0.95-0.56-1.43-0.78l-0.19-0.09c-0.16-0.08-0.36-0.07-0.51,0.04
			c-0.12,0.09-0.19,0.22-0.2,0.37c-0.35-0.2-0.68-0.45-1.02-0.73c-0.09-0.07-0.18-0.15-0.28-0.22l-0.34-0.26l-0.23,0.37
			c-0.02,0.04-0.04,0.07-0.06,0.11c0,0,0,0.01,0,0.01c-0.36-0.12-0.61-0.33-0.9-0.58c-0.14-0.12-0.28-0.24-0.45-0.36
			c-0.15-0.11-0.34-0.12-0.5-0.04c-0.16,0.08-0.27,0.25-0.27,0.43v0.03c0,0.1,0,0.27-0.02,0.38c-0.01,0-0.02-0.01-0.04-0.01
			c-0.56-0.22-1.04-0.57-1.55-0.94c-0.28-0.2-0.57-0.41-0.87-0.59l-0.33-0.2l-0.2,0.33c-0.03,0.05-0.05,0.1-0.07,0.15
			c-0.65-0.25-1.24-0.67-1.82-1.08l-0.14-0.1c-0.08-0.06-0.34-0.26-0.6-0.09c-0.08,0.05-0.2,0.17-0.19,0.4
			c-0.19-0.07-0.52-0.26-1.11-0.68c-0.1-0.07-0.17-0.13-0.2-0.14c-0.26-0.18-0.47-0.14-0.63-0.08c-0.01,0-0.02,0.01-0.03,0.01
			c-0.04,0-0.12-0.04-0.16-0.06c-0.33-0.16-0.64-0.34-0.94-0.55c-0.02-0.02-0.06-0.05-0.09-0.08c-0.2-0.17-0.47-0.41-0.79-0.35
			c-0.15,0.03-0.28,0.12-0.36,0.26c-0.18-0.07-0.34-0.06-0.47,0.03c-0.23,0.15-0.21,0.41-0.21,0.51c0.01,0.27-0.05,0.54-0.2,0.87
			c-0.05,0.1-0.09,0.13-0.08,0.14c-0.01,0-0.06-0.01-0.17-0.09c-0.01-0.01-0.02-0.01-0.03-0.02c-0.08-0.07-0.23-0.21-0.46-0.17
			c-0.1,0.01-0.24,0.07-0.34,0.24c-0.08,0.1-0.13,0.13-0.13,0.13c-0.01,0-0.06-0.03-0.13-0.13l-0.04-0.06
			c-0.14-0.19-0.32-0.43-0.63-0.55c-0.01-0.02-0.04-0.06-0.05-0.08l-0.04-0.07c-0.09-0.15-0.26-0.23-0.43-0.21
			c-0.17,0.01-0.32,0.12-0.39,0.28l-0.01,0.04c-0.08-0.08-0.2-0.18-0.37-0.2c-0.14-0.01-0.25,0.03-0.33,0.08
			c-0.25-0.14-0.52-0.17-0.79-0.08c-0.14-0.03-0.26,0-0.33,0.03c-0.22,0.1-0.28,0.32-0.3,0.39c-0.02,0.08-0.07,0.26-0.11,0.29
			c-0.31,0.15-0.42,0.4-0.49,0.57l-0.02,0.04c-0.04,0.09-0.08,0.16-0.11,0.2c-0.11-0.08-0.25-0.12-0.39-0.09
			c-0.15,0.03-0.28,0.14-0.34,0.28c-0.1,0.25-0.33,0.42-0.6,0.61l0-0.01c-0.01-0.04-0.02-0.11-0.03-0.17
			c-0.02-0.11-0.04-0.23-0.09-0.36l-0.36-0.99l-0.4,1.09c-0.02,0.06-0.04,0.12-0.07,0.19c-0.1,0.29-0.45,0.55-0.67,0.54
			c-0.04,0-0.14,0-0.2-0.25c0-0.02,0-0.04-0.01-0.06c-0.01-0.11-0.04-0.29-0.18-0.46l-0.32,0.25c-0.1-0.46-0.42-0.94-0.47-1.06
			c-0.09-0.2-0.03-0.58,0.2-1.03c0.23-0.45-0.37-1.52-0.37-1.52c0.84-1.01,0.38-2.3-0.04-3.07
			C122.25,22.66,122.47,22.47,122.63,22.21 M121.03,22.54c0.06,0.08,0.16,0.15,0.38,0.18c0.01,0.01,0.02,0.02,0.03,0.04
			c0.34,0.4,0.5,0.82,0.64,1.33c0.08,0.27,0.1,0.57,0.03,0.84c-0.05,0.21-0.17,0.42-0.32,0.57c-0.1,0.1-0.19,0.21-0.3,0.3
			c-0.02,0.01-0.05,0.03-0.08,0.05c-0.25,0.13-0.67,0.29-1.36,0.38c0,0-0.49,0.35,1.49-0.06c0.11,0.13,0.21,0.26,0.3,0.4
			c0.11,0.18,0.18,0.29,0.13,0.51c0,0.17-0.12,0.38-0.18,0.53c-0.06,0.18-0.11,0.36-0.1,0.55c0.03,0.46,0.47,0.74,0.59,1.16
			c0.06,0.23,0,0.49-0.15,0.67c-0.06,0.07-0.22,0.15-0.25,0.23c-0.02,0.07,0.05,0.19,0.06,0.27c0.02,0.15,0.01,0.34-0.03,0.49
			c-0.04,0.15-0.15,0.3-0.3,0.34c0.03,0.01,0.05,0.05,0.05,0.09c0.04,0.21,0.03,0.44,0,0.64c-0.05,0.27-0.2,0.43-0.43,0.58
			c0.05-0.01,0.1,0.03,0.14,0.08c0.22,0.27,0.42,0.56,0.61,0.87c0.2,0.32,0.24,0.78,0.25,1.16c0.01,0.4-0.05,0.8-0.17,1.18
			c-0.01,0.02-0.01,0.04-0.03,0.05c-0.02,0.01-0.05,0.01-0.08,0.01c-0.13-0.02-0.26-0.05-0.39-0.03c-0.43,0.05-0.47,0.48-0.47,0.84
			l-0.61-0.68c0,0-0.35,1.2-1.5,1.36c0,0,0.99,0.17,1.75-0.87c0.05,0.08,0.09,0.17,0.15,0.25c0.14,0.22,0.33,0.44,0.52,0.62
			c0.19,0.18,0.41,0.4,0.64,0.52c0.02,0.01,0.04,0.02,0.07,0.03c-1.59,0.86-2.68,1.89-3.23,2.49c-0.06-0.03-0.12-0.07-0.18-0.11
			c0.02-0.14,0.03-0.28,0.03-0.43v0c0-0.26-0.03-0.53-0.08-0.79c0.09,0.09,0.18,0.16,0.27,0.23l0.17,0.12l0.05-0.21
			c0.1-0.4,0.04-0.91-0.15-1.42v0c-0.19-0.45-0.49-0.86-0.86-1.16c0.25-0.38,0.43-0.89,0.5-1.45v0c0.02-0.21,0.02-0.43,0.01-0.65
			c0.3,0.39,0.68,0.69,1.11,0.84l0.19,0.07l0-0.2c0-0.43-0.18-0.94-0.5-1.39h0c-0.26-0.35-0.62-0.65-1.01-0.84
			c0.2-0.41,0.3-0.93,0.3-1.5v0c0-0.16-0.02-0.33-0.05-0.49c0.2,0.23,0.45,0.43,0.71,0.56l0.18,0.09l0.02-0.2
			c0.05-0.43-0.07-0.95-0.33-1.44l0,0c-0.23-0.4-0.58-0.76-0.96-1c0.03-0.35,0-0.74-0.1-1.13v0c-0.03-0.12-0.07-0.23-0.11-0.34
			c0.32,0.19,0.68,0.31,1.04,0.33l0.2,0.01l-0.05-0.19c-0.11-0.42-0.41-0.86-0.83-1.21l0,0c-0.34-0.27-0.76-0.45-1.18-0.54
			c-0.03-0.44-0.18-0.91-0.42-1.36l0,0c-0.31-0.54-0.79-1.03-1.31-1.33l-0.07-0.04c-0.02-0.48-0.19-1.02-0.48-1.51l0,0
			c-0.15-0.25-0.34-0.48-0.56-0.68c0.07,0.02,0.13,0.05,0.17,0.06c0.17,0.04,0.56,0.46,0.71,0.6c0.06,0.06,0.16,0.09,0.27,0.12
			l0.03,0.59c0,0,0.34-0.57,0.71-0.6c0,0,0.86,0.36,0.96,1.23c0.05,0.44,0.06,1,0.15,1.42c0.02,0.08,0.04,0.17,0.1,0.23
			c0.06,0.06,0.15,0.08,0.23,0.1c0.52,0.09,1.11,0.03,1.58-0.25c0.22-0.13,0.48-0.33,0.5-0.61c0.02-0.36-0.08-0.7-0.21-1.03
			c-0.08-0.21-0.17-0.41-0.29-0.61c-0.06-0.1-0.12-0.19-0.19-0.28c-0.08-0.1-0.18-0.18-0.27-0.27c-0.02-0.02-0.04-0.05-0.05-0.07
			C119.23,21.75,120.36,21.75,121.03,22.54 M118.38,33.41c0.31,0.17,0.61,0.43,0.82,0.72c0.23,0.31,0.38,0.67,0.43,0.99
			c-0.46-0.23-0.85-0.65-1.07-1.17C118.5,33.78,118.42,33.59,118.38,33.41 M117.5,20.31l0,0.09c0,0.11-0.01,0.21-0.03,0.3
			c-0.06,0.28,0.08,0.47,0.25,0.63c0.04,0.04,0.09,0.06,0.13,0.09c0.02,0.01,0.04,0.02,0.06,0.04c0.45,0.32,0.82,0.72,1.1,1.2
			c0.19,0.33,0.42,0.73,0.49,1.11c0.07,0.33-0.21,0.6-0.47,0.75c-0.37,0.19-0.8,0.25-1.2,0.14c-0.04-0.01-0.09-0.03-0.12-0.06
			c-0.05-0.05-0.05-0.14-0.05-0.22c0.01-0.17,0.01-0.34,0-0.52l-0.02-0.23c0-0.03-0.01-0.07-0.01-0.11l0-0.03
			c-0.03-0.78-0.39-1.41-1.11-1.93c-0.13-0.1-0.31-0.2-0.55-0.12c-0.05,0.02-0.11,0.02-0.17,0.03c-0.02,0-0.05,0-0.07,0.01
			c-0.12,0.01-0.2-0.01-0.28-0.09c-0.49-0.45-1.05-0.75-1.64-0.88c0,0-0.01-0.01-0.02-0.01c0.05-0.3,0.05-0.56-0.04-0.85
			c0.08-0.06,0.17-0.08,0.25-0.13c0.09-0.06,0.17-0.14,0.25-0.21c0.14-0.13,0.29-0.25,0.48-0.26c0.09,0,0.17,0.01,0.25,0.04
			c0.07,0.02,0.13,0.02,0.2,0.03c0.16,0.02,0.33,0.03,0.49-0.03c0.1-0.04,0.2-0.11,0.3-0.08c0.09,0.02,0.15,0.09,0.22,0.13
			c0.07,0.04,0.16,0.06,0.24,0.09c0.14,0.04,0.25,0,0.35-0.05c0.03-0.01,0.06-0.02,0.09-0.03C117.31,19.41,117.52,19.79,117.5,20.31
			 M115.31,18.33c0.32,0.14,0.66,0.01,0.66,0.01l0.05-0.02c0.22-0.09,0.38-0.14,0.53-0.15c0.16,0,0.3,0.04,0.39,0.12
			c0.07,0.06,0.12,0.15,0.14,0.2c0.01,0.03,0.04,0.14,0,0.24c-0.02,0.04-0.05,0.07-0.09,0.1c-0.15,0.13-0.36,0.16-0.53,0.06
			c-0.13-0.07-0.23-0.21-0.38-0.24c-0.16-0.03-0.24,0.08-0.37,0.14c-0.21,0.1-0.45-0.02-0.68-0.05c-0.45-0.05-0.75,0.22-1.04,0.53
			c-0.1,0.12-0.26,0.25-0.43,0.21c-0.07-0.02-0.12-0.07-0.18-0.12c-0.08-0.06-0.16-0.1-0.26-0.11c-0.18-0.02-0.36,0.02-0.53-0.05
			c-0.27-0.11-0.23-0.41-0.08-0.61c0.2-0.26,0.71-0.08,0.94,0.07c0.05,0.03,0.1,0.07,0.15,0.07c0.06,0,0.12-0.02,0.16-0.06l0.1-0.09
			C114.56,17.57,114.99,18.19,115.31,18.33 M110.31,28.64c-0.1,0.04-0.19,0.12-0.27,0.24c-0.02-0.04-0.05-0.09-0.08-0.15l-0.02-0.05
			c-0.07-0.17-0.18-0.42-0.49-0.57c-0.04-0.03-0.09-0.21-0.12-0.29c-0.02-0.07-0.08-0.29-0.3-0.39c-0.08-0.04-0.19-0.06-0.33-0.03
			c-0.28-0.09-0.55-0.06-0.79,0.08c-0.08-0.05-0.19-0.09-0.33-0.08c-0.17,0.01-0.29,0.11-0.37,0.2l-0.01-0.04
			c-0.07-0.16-0.22-0.26-0.39-0.28c-0.17-0.01-0.33,0.07-0.43,0.21l-0.05,0.07c-0.01,0.02-0.04,0.06-0.05,0.08
			c-0.32,0.13-0.49,0.36-0.63,0.55l-0.04,0.06c-0.07,0.1-0.12,0.12-0.12,0.13c-0.01,0-0.06-0.03-0.15-0.14
			c-0.04-0.05-0.16-0.22-0.38-0.24c-0.1-0.01-0.24,0.01-0.39,0.15c-0.12,0.12-0.19,0.14-0.2,0.14c-0.12-0.04-0.32-0.55-0.3-1.01
			c0-0.1,0.01-0.36-0.21-0.51c-0.13-0.09-0.29-0.1-0.47-0.03c-0.08-0.14-0.21-0.23-0.36-0.26c-0.32-0.06-0.59,0.17-0.79,0.35
			c-0.04,0.03-0.07,0.06-0.08,0.07l-0.2,0.12c-0.32,0.2-0.62,0.4-0.93,0.49c-0.01,0-0.02,0-0.02-0.01
			c-0.16-0.06-0.37-0.11-0.61,0.07c-0.05,0.03-0.14,0.09-0.24,0.16c-0.36,0.26-0.65,0.44-0.87,0.56c-0.1,0.05-0.22,0.01-0.26-0.09
			c-0.03-0.08-0.08-0.15-0.18-0.21c-0.26-0.15-0.5,0.04-0.6,0.11l-0.12,0.09c-0.58,0.41-1.17,0.83-1.82,1.08
			c-0.01-0.04-0.04-0.1-0.07-0.15l-0.2-0.33l-0.33,0.2c-0.3,0.18-0.59,0.39-0.87,0.59c-0.51,0.37-1,0.72-1.58,0.95
			c0,0-0.01,0-0.01,0c-0.02-0.11-0.02-0.29-0.02-0.38v-0.03c0-0.18-0.11-0.35-0.27-0.43c-0.16-0.08-0.36-0.06-0.5,0.04
			c-0.16,0.12-0.31,0.25-0.45,0.36c-0.29,0.25-0.54,0.46-0.9,0.58c-0.01-0.02-0.02-0.04-0.02-0.06c-0.03-0.08-0.06-0.17-0.1-0.25
			c-0.04-0.11-0.18-0.15-0.28-0.08c-0.07,0.05-0.14,0.11-0.21,0.16c-0.16,0.11-0.31,0.23-0.47,0.36c-0.29,0.22-0.56,0.43-0.85,0.6
			c-0.01-0.15-0.08-0.28-0.2-0.37c-0.15-0.11-0.35-0.13-0.51-0.04l-0.19,0.09c-0.48,0.22-0.98,0.45-1.43,0.77
			c0,0-0.01,0.01-0.01,0.01c0.04-0.11,0.09-0.22,0.14-0.32c0-0.01,0.01-0.02,0.01-0.03c0.05-0.18,0.13-0.36,0.16-0.55
			c0.04-0.28-0.24-0.26-0.42-0.15l-0.33,0.21c0,0-0.01,0-0.01,0.01c-0.07,0.05-0.16,0.13-0.33,0.28c-0.66,0.57-1.14,0.93-1.42,1.07
			c0.03-0.07,0.08-0.14,0.17-0.27c0.13-0.19,0.1-0.44-0.07-0.59c-0.17-0.15-0.42-0.16-0.61,0c-0.48,0.46-1,0.77-1.54,1.1
			c-0.27,0.16-0.54,0.33-0.82,0.52c-0.13,0.09-0.28,0.17-0.41,0.23c0.15-0.44,0.48-0.82,0.84-1.21c1.22-1.35,2.68-2.57,4.09-3.76
			c0.54-0.45,1.1-0.93,1.64-1.39c3.61-3.15,7.35-6.02,11.44-8.76c3.49-2.34,7.02-3.61,10.49-3.78c1.1-0.06,3.1-0.01,4,1.05
			c0.44,0.51,0.59,1.4,0.42,2.3c-0.42-0.05-0.79,0.54-0.79,0.54c-0.22-0.11-0.46-0.19-0.71-0.16c-0.41,0.06-0.62,0.46-0.51,0.86
			l0.01,0.04c0.02,0.06,0.03,0.11,0.05,0.16c-0.01,0.02-0.03,0.04-0.05,0.06c-0.02,0.02-0.04,0.03-0.06,0.04
			c-0.03,0.02-0.06,0.04-0.09,0.06c-0.05,0.05-0.11,0.09-0.16,0.13c-0.1,0.08-0.21,0.16-0.3,0.26c-0.43,0.46-0.56,1-0.37,1.62
			c0,0.03,0.02,0.06,0.03,0.1c0.2,0.56,0.13-0.36,0.64-0.6c0.43-0.21,0.82-0.24,1.11-0.22c-0.17,0.14-0.34,0.3-0.5,0.49
			c-0.52,0.6-0.81,1.41-0.81,2.2c-0.03,0-0.06,0.01-0.1,0.02h0c-0.67,0.15-1.27,0.76-1.42,1.46l-0.04,0.18l0.19-0.01
			c0.3-0.01,0.57-0.16,0.76-0.3c-0.21,0.75-0.17,1.53,0.1,2.22C110.76,27.44,110.43,28.03,110.31,28.64 M111.18,28.28
			c-0.02,0.09-0.05,0.18-0.07,0.25c-0.12,0.32-0.29,0.6-0.48,0.8c-0.02,0.01-0.05,0.03-0.08,0.03c-0.06-0.69,0.2-1.42,0.69-1.96
			c-0.05,0.25-0.06,0.53-0.07,0.78C111.18,28.22,111.18,28.25,111.18,28.28 M111.15,24.42c-0.18,0.17-0.38,0.29-0.57,0.35
			c0.17-0.45,0.56-0.82,0.99-0.98c0,0,0,0.01-0.01,0.01c-0.07,0.1-0.13,0.21-0.18,0.33C111.31,24.23,111.23,24.33,111.15,24.42
			 M111.43,24.83c0.06-0.18,0.13-0.39,0.21-0.58c0.03-0.04,0.06-0.09,0.08-0.14c0.01,0.03,0.02,0.05,0.03,0.08
			c0.03,0.12,0.06,0.23,0.1,0.34c0.09,0.35,0.12,0.72,0.1,1.08c-0.04,0.45-0.16,0.88-0.33,1.21l-0.09,0.12l-0.02-0.04
			C111.27,26.27,111.23,25.52,111.43,24.83 M111.47,28.3c0.07-0.3,0.1-0.59,0.08-0.86l0.01-0.01c0.03,0.04,0.06,0.08,0.09,0.13
			c0.04,0.12,0.09,0.23,0.14,0.34c0.07,0.15,0.16,0.3,0.26,0.44c0.05,0.14,0.1,0.28,0.13,0.43c0.09,0.45,0.09,0.91,0.01,1.29
			l-0.18-0.04C111.68,29.53,111.49,28.92,111.47,28.3 M111.76,30.54c-0.06,0.23-0.07,0.5-0.08,0.75c-0.03,0.13-0.07,0.26-0.11,0.36
			c-0.15,0.36-0.35,0.67-0.58,0.87c-0.05-0.71,0.24-1.47,0.77-2C111.76,30.52,111.76,30.53,111.76,30.54 M112.35,34.97
			c-0.11,0.38-0.29,0.7-0.5,0.92c-0.12-0.7,0.1-1.49,0.58-2.07C112.49,34.21,112.44,34.65,112.35,34.97 M112.65,33.46
			c0-0.01-0.01-0.01-0.01-0.02l-0.08-0.1l-0.03-0.04c-0.37-0.51-0.58-1.18-0.58-1.86c0-0.03,0-0.07,0-0.11
			c0.05-0.21,0.08-0.45,0.09-0.67c0.29,0.39,0.52,0.87,0.63,1.35C112.78,32.53,112.77,33.05,112.65,33.46 M113.01,36.03
			c-0.24-0.57-0.32-1.26-0.21-1.96c0.32,0.38,0.57,0.86,0.7,1.33c0.09,0.34,0.12,0.7,0.09,1.05l0,0.07l-0.03,0.2c0,0.01,0,0,0,0
			c-0.01,0.04-0.01,0.09-0.02,0.14C113.35,36.67,113.16,36.38,113.01,36.03 M113.3,37.82c0.07-0.16,0.16-0.34,0.25-0.48
			c0.01,0.14,0.04,0.28,0.06,0.41c0.02,0.24,0.01,0.48-0.03,0.72c-0.08,0.39-0.23,0.74-0.42,0.98
			C113.03,38.93,113.07,38.34,113.3,37.82 M95.93,35.39c-0.23,0.08-0.47,0.2-0.72,0.32c-0.87,0.42-1.85,0.89-3.13,0.53
			c-0.94-0.31-1.5-0.74-1.78-0.98l1.66-0.15l-0.42-1.23c0.3,0.21,0.74,0.48,1.01,0.58l0.08,0.03c0.4,0.13,0.86,0.28,2.11-0.23
			c0.66-0.27,1.21-0.37,1.7-0.31c0.58,0.07,0.99,0.43,1.39,0.78c0.27,0.24,0.57,0.5,0.77,0.79C97.81,35.12,96.82,35.06,95.93,35.39
			 M97.09,35.47c0.63-0.01,1.24,0.17,1.74,0.53c0.26,0.93-0.33,1.83-0.51,2.07c-1.5-0.07-2.21-0.54-2.49-0.81
			C96.21,36.98,96.91,36.36,97.09,35.47 M97.73,41.72c-1.28-0.82-1.81-3.15-1.98-4.14c0.73,0.6,2.93,1.39,7.88-0.12
			c1.52-0.47,3.03-0.71,4.47-0.71c1.92,0,3.56,0.41,4.92,0.99c-0.28,0.67-0.3,1.41-0.05,2.04l0.08,0.2l0.15-0.15
			c0.3-0.28,0.54-0.75,0.65-1.28c0.24,0.55,0.62,1.03,1.09,1.35c-0.27,0.28-0.51,0.7-0.66,1.16c-0.01,0.05-0.02,0.1-0.03,0.14
			c-1.72-0.58-4.9-1.25-9.12-0.44c-0.6,0.16-1.16,0.31-1.69,0.46c-0.04,0.01-0.09,0.02-0.13,0.04
			C100.76,41.98,98.92,42.5,97.73,41.72 M99.72,46.32c-0.09,2.47-0.03,4.88,0.16,7.23l-1.95-1.28c-0.35-2.33-0.59-4.83-0.7-7.58
			L99.72,46.32z M99.97,54.53c0.64,6.38,2.33,12.23,5.03,17.32c1.11,2.1,2.41,4.07,3.83,5.84c-0.26,0.32-0.68,0.8-1.23,1.33
			c-0.8-0.81-1.58-1.66-2.31-2.54c-1.39-1.68-2.65-3.49-3.7-5.4c-1.06-1.93-1.94-3.95-2.61-6.03c-1.32-4.04-1.89-8.28-2.08-12.53
			L99.97,54.53z M88.62,39.06l5.25,3.44c0.05,2.74,0.2,5.17,0.45,7.42L88.35,46C88.35,43.79,88.45,41.46,88.62,39.06 M93.36,80.47
			c-0.02-0.02-2.57-2.53-4.67-8.1c-1.91-5.08-3.81-13.8-2.16-26.63l6.28,4.11c0.01,0.76,0.03,1.52,0.06,2.28
			c0.16,4.38,0.74,8.76,2.1,12.92c0.67,2.08,1.54,4.1,2.61,6.03c1.05,1.91,2.3,3.72,3.7,5.4c1.27,1.54,2.67,2.96,4.15,4.29
			c-2.7,1.79-6.71,3.08-11.44,0.36C93.68,80.83,93.47,80.6,93.36,80.47 M94.83,81.91c1.64,0.78,3.19,1.09,4.62,1.09
			c4.93,0,8.44-3.72,9.56-5.08c1.38,1.7,2.88,3.21,4.42,4.48C104.53,88.41,97.75,84.39,94.83,81.91 M110.25,91
			c0.62-0.97,2.98-4.75,3.94-8c0.61,0.46,1.22,0.88,1.83,1.26l-0.98,7.58C114.54,91.57,113.04,90.96,110.25,91 M113.38,91.58
			c0.94,0.21,1.47,0.47,1.64,0.57c0,0.02-0.01,0.06-0.05,0.11c-0.09,0.1-0.34,0.29-1.08,0.36c-0.38,0.04-0.65,0.15-0.84,0.3
			L113.38,91.58z M115.8,95.6c-0.08,0.07-0.15,0.14-0.2,0.22l-0.05-1.28c0.14,0.04,0.23,0.09,0.3,0.15c0.2,0.15,0.22,0.32,0.22,0.32
			h0.01C116.1,95.1,116.09,95.35,115.8,95.6 M116.12,94.53c-0.34-0.3-0.83-0.36-1.28-0.33c-0.45,0.03-0.9,0.14-1.35,0.1
			c-0.17-0.01-0.35-0.06-0.47-0.18c-0.21-0.2-0.17-0.56,0.01-0.78c0.18-0.22,0.46-0.33,0.75-0.39c0.28-0.06,0.57-0.07,0.84-0.16
			c0.28-0.08,0.54-0.25,0.65-0.52c0.05-0.11,0.06-0.24,0.08-0.36l0.41-3.18c0.07-0.53,0.14-1.06,0.2-1.59l0.2-1.59
			c0.03-0.27,0.07-0.53,0.1-0.8c0.01-0.07,0.02-0.13,0.03-0.2c0-0.03,0-0.07,0.01-0.1c0.01-0.03,0.03-0.01,0.06,0.01
			c0.12,0.07,0.23,0.14,0.35,0.2c0.06,0.03,0.12,0.07,0.17,0.1C116.62,88.01,116.37,91.27,116.12,94.53 M120.77,95.82
			c-0.05-0.08-0.12-0.15-0.2-0.22c-0.22-0.19-0.28-0.38-0.29-0.5l0.01-0.09c0-0.01,0.02-0.18,0.22-0.33
			c0.07-0.05,0.17-0.11,0.3-0.15L120.77,95.82z M123.41,94.02c-0.02,0.03-0.03,0.05-0.06,0.07c-0.15,0.16-0.4,0.21-0.62,0.21
			c-0.43,0.01-0.85-0.08-1.27-0.1c-0.43-0.02-0.88,0.03-1.21,0.3c-0.25-3.11-0.49-6.22-0.73-9.33c-0.01-0.13-0.02-0.27,0.03-0.39
			c0.09-0.21,0.34-0.29,0.55-0.35c0.29,2.35,0.57,4.7,0.86,7.05c0.05,0.4,0.12,0.84,0.42,1.1c0.37,0.32,0.9,0.27,1.34,0.39
			C123.13,93.08,123.72,93.52,123.41,94.02 M123.31,92.92c-0.19-0.15-0.46-0.27-0.84-0.31c-0.74-0.07-0.99-0.25-1.08-0.36
			c-0.04-0.05-0.05-0.08-0.05-0.11c0.17-0.1,0.7-0.36,1.64-0.57L123.31,92.92z M126.12,91c-2.79-0.05-4.29,0.57-4.8,0.83l-0.98-7.58
			c0.59-0.37,1.2-0.78,1.83-1.26C123.13,86.24,125.5,90.04,126.12,91 M118.18,84.12c-1.59-0.78-3.44-2.03-5.33-3.8
			c0.07-0.18,0.07-0.39,0.07-0.59c0-0.29,0-0.56,0.19-0.68c0.03-0.02,0.07-0.03,0.1-0.05c0.07-0.03,0.14-0.06,0.21-0.12
			c0.07-0.06,0.11-0.14,0.15-0.21c0.02-0.05,0.05-0.09,0.07-0.12c0.09-0.09,0.24-0.11,0.41-0.12c0.21-0.02,0.45-0.05,0.61-0.23
			c0.17-0.16,0.23-0.41,0.14-0.6c-0.02-0.04-0.04-0.08-0.07-0.12c-0.01-0.02-0.03-0.05-0.04-0.05c-0.03-0.11-0.01-0.21,0.07-0.3
			c0.16-0.21,0.51-0.33,0.76-0.32c0.1,0,0.2,0.02,0.31,0.03c0.28,0.04,0.59,0.08,0.84-0.11c0.1-0.07,0.16-0.16,0.23-0.25
			c0.08-0.1,0.14-0.19,0.23-0.22c0.05-0.02,0.13-0.01,0.21-0.01c0.16,0,0.35,0.01,0.47-0.16l0.01-0.02
			c0.04-0.09,0.07-0.11,0.18-0.09l1.69,0.11c0.1,0.01,0.21,0.01,0.28,0.06c0.05,0.03,0.09,0.09,0.14,0.15
			c0.05,0.07,0.11,0.14,0.19,0.2c0.18,0.13,0.45,0.13,0.73,0.01c0.07-0.03,0.14-0.07,0.21-0.1c0.11-0.06,0.22-0.11,0.34-0.14
			c0.21-0.07,0.54,0.06,0.69,0.26c0.08,0.12,0.09,0.22,0.02,0.31c-0.02,0.02-0.04,0.03-0.06,0.05c-0.07,0.04-0.16,0.11-0.19,0.22
			c-0.05,0.2,0.11,0.37,0.29,0.44l0.07,0.02c0.08,0.03,0.15,0.05,0.16,0.07c0.07,0.18-0.02,0.35-0.19,0.6
			c-0.11,0.17-0.22,0.34-0.25,0.53l0,0.02l0,0.02c0.03,0.21,0.25,0.29,0.35,0.32c0.14,0.04,0.45,0.18,0.5,0.43
			c0.01,0.04,0.01,0.08,0.01,0.12c0,0.08,0,0.18,0.04,0.27c0.02,0.06,0.06,0.11,0.09,0.15c0.02,0.03,0.04,0.05,0.05,0.08
			c0.02,0.15,0.07,0.28,0.14,0.37C121.48,82.2,119.71,83.38,118.18,84.12 M122.93,82.38c1.46-1.19,2.97-2.68,4.43-4.47
			c1.1,1.34,4.62,5.09,9.57,5.09c1.42,0,2.97-0.31,4.6-1.08C138.59,84.41,131.79,88.38,122.93,82.38 M147.68,72.37
			c-2.1,5.57-4.59,8.04-4.62,8.07c-0.11,0.13-0.34,0.38-0.67,0.7c-4.71,2.7-8.7,1.44-11.4-0.34c1.48-1.32,2.87-2.74,4.14-4.27
			c1.39-1.68,2.65-3.49,3.7-5.4c1.06-1.93,1.94-3.95,2.61-6.03c1.36-4.17,1.93-8.55,2.1-12.92c0.03-0.78,0.05-1.56,0.06-2.35
			l6.24-4.08C151.49,58.57,149.59,67.29,147.68,72.37 M152.69,45.02l-1.85-0.4l0.37-1.86l3.69-0.8L152.69,45.02z"/>
		<path d="M129.26,38.89c0.2,0.01,0.41,0.03,0.61,0.05c0.11,0.01,0.19,0.03,0.24,0.06c0.09,0.05,0.12,0.14,0.11,0.26
			c0,0.1-0.01,0.2-0.02,0.3c0,0.07,0,0.12,0,0.15l0.01,0.06c0.11,0.01,0.21,0.02,0.31,0.04l0.01-0.04
			c-0.04-0.02-0.06-0.06-0.07-0.12c-0.01-0.03,0-0.09,0-0.15c0-0.08,0.01-0.17,0.02-0.25c0.01-0.11,0-0.18-0.03-0.24
			c-0.03-0.05-0.09-0.09-0.16-0.13c0.09-0.03,0.17-0.08,0.22-0.15c0.06-0.06,0.1-0.15,0.11-0.26c0.03-0.21-0.05-0.36-0.23-0.46
			c-0.1-0.05-0.22-0.08-0.38-0.1c-0.32-0.03-0.64-0.05-0.95-0.07c-0.05,0.61-0.09,1.22-0.13,1.83c0.09,0,0.17,0.01,0.26,0.02
			C129.22,39.42,129.24,39.15,129.26,38.89 M129.33,38.06c0.23,0.02,0.45,0.03,0.68,0.05c0.09,0.01,0.17,0.03,0.22,0.06
			c0.1,0.06,0.14,0.15,0.13,0.28c-0.01,0.12-0.06,0.2-0.14,0.24c-0.08,0.04-0.18,0.05-0.31,0.04c-0.21-0.02-0.41-0.04-0.62-0.05
			C129.29,38.48,129.31,38.27,129.33,38.06"/>
		<path d="M132.37,39.68c0.11-0.14,0.19-0.3,0.23-0.49c0.06-0.24,0.03-0.46-0.07-0.64c-0.11-0.2-0.31-0.33-0.59-0.38
			c-0.28-0.05-0.55-0.09-0.82-0.13c-0.09,0.61-0.19,1.21-0.27,1.81c0.25,0.04,0.51,0.08,0.76,0.12
			C131.93,40.02,132.18,39.92,132.37,39.68 M131.13,39.67c0.07-0.46,0.15-0.93,0.22-1.39c0.16,0.02,0.32,0.05,0.48,0.08
			c0.22,0.04,0.37,0.13,0.44,0.27c0.08,0.14,0.08,0.32,0.04,0.54c-0.01,0.06-0.03,0.12-0.06,0.19c-0.05,0.11-0.1,0.2-0.16,0.26
			c-0.09,0.08-0.18,0.13-0.28,0.14c-0.06,0.01-0.14,0-0.22-0.01C131.44,39.72,131.29,39.69,131.13,39.67"/>
		<path d="M134.16,40.32c-0.37-0.11-0.75-0.2-1.12-0.29c0.05-0.2,0.1-0.4,0.15-0.6c0.35,0.08,0.7,0.17,1.05,0.27
			c0.02-0.07,0.04-0.14,0.06-0.2c-0.35-0.1-0.71-0.19-1.06-0.27c0.04-0.18,0.09-0.36,0.14-0.54c0.39,0.09,0.78,0.19,1.17,0.3
			c0.02-0.07,0.04-0.14,0.07-0.21c-0.48-0.14-0.96-0.26-1.45-0.37c-0.15,0.6-0.29,1.19-0.42,1.79c0.46,0.1,0.91,0.21,1.36,0.34
			C134.12,40.46,134.14,40.39,134.16,40.32"/>
		<path d="M134.65,40.69c0.15-0.47,0.31-0.94,0.46-1.41c0.17,0.57,0.32,1.15,0.46,1.72c0.09,0.03,0.18,0.06,0.27,0.1
			c0.22-0.57,0.44-1.14,0.67-1.71c-0.08-0.03-0.16-0.06-0.25-0.09c-0.18,0.46-0.35,0.93-0.53,1.39c-0.13-0.58-0.28-1.15-0.45-1.72
			c-0.1-0.03-0.21-0.06-0.31-0.1c-0.19,0.58-0.37,1.17-0.56,1.75C134.5,40.64,134.58,40.67,134.65,40.69"/>
		<path d="M124.9,39.78c0.09-0.01,0.18-0.02,0.26-0.03c-0.02-0.25-0.05-0.49-0.07-0.74c0.22-0.39,0.45-0.77,0.69-1.16
			c-0.11,0.01-0.22,0.01-0.33,0.02c-0.18,0.31-0.35,0.62-0.52,0.93c-0.22-0.27-0.45-0.54-0.68-0.81c-0.11,0.01-0.22,0.03-0.33,0.04
			c0.31,0.33,0.61,0.66,0.9,0.99C124.84,39.29,124.87,39.53,124.9,39.78"/>
		<path d="M127.65,39.68c0.32,0,0.56-0.1,0.74-0.3c0.15-0.18,0.24-0.4,0.26-0.67c0.01-0.25-0.04-0.46-0.17-0.63
			c-0.16-0.21-0.43-0.33-0.8-0.33c-0.35,0-0.62,0.12-0.8,0.35c-0.14,0.18-0.2,0.4-0.19,0.64c0.01,0.28,0.09,0.5,0.25,0.68
			C127.12,39.59,127.36,39.68,127.65,39.68 M127.17,38.16c0.14-0.13,0.31-0.2,0.52-0.2c0.22,0,0.39,0.07,0.51,0.2
			c0.12,0.14,0.18,0.31,0.17,0.52c-0.01,0.21-0.07,0.38-0.18,0.54c-0.11,0.15-0.28,0.23-0.51,0.23c-0.24,0-0.42-0.07-0.53-0.2
			c-0.11-0.14-0.17-0.31-0.17-0.51C126.97,38.49,127.04,38.29,127.17,38.16"/>
		<path d="M99.08,41.14c-0.19-0.52-0.39-1.05-0.59-1.56c-0.09,0.03-0.18,0.06-0.27,0.09c0.24,0.59,0.46,1.18,0.69,1.77
			c0.39-0.14,0.79-0.27,1.19-0.39c-0.02-0.07-0.05-0.15-0.07-0.22C99.71,40.93,99.4,41.03,99.08,41.14"/>
		<path d="M99.87,39.19c0.2,0.6,0.39,1.21,0.58,1.81c0.09-0.02,0.17-0.05,0.26-0.07c-0.18-0.6-0.37-1.21-0.56-1.81
			C100.06,39.14,99.97,39.16,99.87,39.19"/>
		<path d="M102.27,39.57c-0.06-0.04-0.15-0.06-0.26-0.08c0.06-0.05,0.11-0.09,0.13-0.14c0.06-0.09,0.07-0.19,0.04-0.31
			c-0.02-0.1-0.08-0.18-0.15-0.25c-0.13-0.11-0.32-0.13-0.57-0.08c-0.3,0.07-0.59,0.14-0.88,0.22c0.19,0.6,0.36,1.22,0.53,1.82
			c0.26-0.07,0.53-0.14,0.8-0.2c0.26-0.05,0.43-0.16,0.51-0.33c0.06-0.11,0.07-0.23,0.05-0.35
			C102.45,39.73,102.38,39.63,102.27,39.57 M101.08,39.63c-0.05-0.19-0.11-0.38-0.16-0.56c0.16-0.04,0.33-0.08,0.49-0.12
			c0.12-0.03,0.21-0.04,0.28-0.03c0.12,0.02,0.19,0.09,0.22,0.21c0.03,0.12,0,0.22-0.09,0.28c-0.06,0.04-0.14,0.08-0.26,0.11
			C101.41,39.55,101.25,39.59,101.08,39.63 M102.19,40.13c-0.05,0.1-0.15,0.17-0.31,0.21c-0.19,0.05-0.38,0.09-0.57,0.14
			c-0.06-0.22-0.12-0.43-0.18-0.64c0.18-0.04,0.36-0.09,0.53-0.13c0.11-0.03,0.21-0.03,0.28-0.02c0.14,0.02,0.23,0.1,0.26,0.23
			C102.23,40,102.22,40.07,102.19,40.13"/>
		<path d="M104.33,39.78c-0.41,0.05-0.81,0.11-1.21,0.18c-0.04-0.21-0.08-0.42-0.13-0.63c0.37-0.07,0.75-0.12,1.12-0.17
			c-0.01-0.07-0.02-0.14-0.03-0.22c-0.38,0.05-0.76,0.11-1.13,0.18c-0.04-0.19-0.08-0.38-0.12-0.57c0.41-0.07,0.83-0.14,1.25-0.19
			c-0.01-0.08-0.02-0.15-0.04-0.23c-0.52,0.07-1.03,0.15-1.53,0.24c0.14,0.62,0.27,1.24,0.4,1.85c0.48-0.09,0.96-0.16,1.45-0.23
			C104.35,39.93,104.34,39.85,104.33,39.78"/>
		<path d="M105.13,39.87c-0.03-0.27-0.06-0.54-0.1-0.81c0.21-0.02,0.42-0.04,0.63-0.06c0.11-0.01,0.2,0,0.26,0.01
			c0.1,0.04,0.15,0.12,0.17,0.24c0.02,0.11,0.03,0.21,0.05,0.32c0.01,0.07,0.01,0.12,0.02,0.15l0.03,0.06
			c0.11,0,0.22-0.01,0.33-0.02l0-0.04c-0.05-0.01-0.08-0.05-0.1-0.11c-0.01-0.03-0.02-0.09-0.03-0.16
			c-0.01-0.08-0.02-0.17-0.03-0.25c-0.01-0.11-0.04-0.19-0.08-0.23c-0.04-0.05-0.11-0.08-0.19-0.11c0.09-0.05,0.15-0.11,0.2-0.19
			c0.04-0.07,0.07-0.17,0.05-0.28c-0.02-0.21-0.13-0.36-0.34-0.43c-0.11-0.04-0.25-0.05-0.41-0.03c-0.33,0.03-0.66,0.06-0.99,0.1
			c0.1,0.62,0.18,1.25,0.27,1.87C104.95,39.89,105.04,39.88,105.13,39.87 M105.62,38.14c0.1-0.01,0.18,0,0.24,0.02
			c0.12,0.04,0.18,0.13,0.19,0.26c0.01,0.13-0.02,0.22-0.09,0.27c-0.07,0.06-0.18,0.09-0.31,0.1c-0.22,0.01-0.44,0.04-0.65,0.06
			c-0.03-0.21-0.06-0.43-0.09-0.64C105.15,38.18,105.38,38.16,105.62,38.14"/>
		<path d="M107.14,38.05c0.03,0.56,0.06,1.11,0.08,1.67c0.09,0,0.19,0,0.28,0c-0.01-0.56-0.03-1.11-0.06-1.67c0.24,0,0.48,0,0.73,0
			c0-0.08,0-0.15,0-0.23c-0.59-0.01-1.18,0-1.76,0.03c0.01,0.08,0.01,0.15,0.02,0.23C106.66,38.07,106.9,38.06,107.14,38.05"/>
		<path d="M108.31,39.71c0.08-0.19,0.15-0.38,0.23-0.56c0.28,0.01,0.55,0.02,0.83,0.04c0.06,0.19,0.13,0.39,0.19,0.58
			c0.1,0.01,0.2,0.01,0.3,0.02c-0.21-0.65-0.45-1.3-0.7-1.95c-0.11,0-0.22-0.01-0.33-0.01c-0.28,0.62-0.54,1.25-0.79,1.88
			C108.12,39.7,108.21,39.71,108.31,39.71 M108.97,38.12c0.11,0.29,0.21,0.57,0.31,0.86c-0.22-0.01-0.44-0.02-0.66-0.03
			C108.73,38.67,108.85,38.39,108.97,38.12"/>
		<path d="M111.75,39.58c0.11-0.15,0.17-0.32,0.2-0.53c0.03-0.26-0.01-0.48-0.15-0.67c-0.15-0.21-0.38-0.33-0.67-0.37
			c-0.3-0.03-0.6-0.07-0.9-0.09c-0.03,0.63-0.07,1.26-0.11,1.89c0.28,0.03,0.55,0.06,0.83,0.09
			C111.3,39.94,111.57,39.84,111.75,39.58 M110.41,39.62c0.04-0.48,0.08-0.97,0.1-1.46c0.18,0.02,0.35,0.04,0.52,0.06
			c0.24,0.03,0.41,0.12,0.5,0.26c0.09,0.14,0.13,0.33,0.1,0.57c-0.01,0.06-0.02,0.13-0.04,0.19c-0.04,0.12-0.09,0.21-0.15,0.28
			c-0.08,0.08-0.18,0.14-0.29,0.15c-0.06,0.01-0.14,0.01-0.24,0C110.75,39.66,110.58,39.64,110.41,39.62"/>
		<path d="M120.29,72.73l-0.03,0v-0.17h-0.27v-0.47h0.52v-1.07v-0.16h-0.01h-0.39l-0.12,0V70.5c0-0.1-0.04-0.18-0.12-0.23
			c-0.08-0.05-0.18-0.05-0.26,0c-0.08,0.04-0.13,0.13-0.13,0.23v0.37h-0.44c-0.15,0-0.15,0-0.35,0l-0.09,0V70.5
			c0-0.09-0.05-0.18-0.13-0.22c-0.08-0.05-0.19-0.05-0.27,0c-0.08,0.05-0.12,0.13-0.12,0.22v0.37l-0.09,0c-0.2,0-0.35,0-0.35,0
			h-0.43V70.5c0-0.09-0.05-0.18-0.13-0.22c-0.08-0.05-0.19-0.05-0.27,0c-0.08,0.05-0.12,0.13-0.12,0.22v0.37h-0.52v1.23h0.52v0.47
			h-0.35v0.17l-0.03,0l-0.34-0.44h-1.31l0.6,0.87l0.73,0.47l2.3,0.02h0h0l2.3-0.02l0.73-0.47l0.6-0.87h-1.31L120.29,72.73z
			 M119.33,71.15h0.44h0.33l0.11,0v0.64h-0.52h-0.36V71.15z M119.48,72.09v0.47h-0.34v0.19l-0.32,0v-0.2h-0.22v-0.47H119.48z
			 M117.91,71.15l0.09,0c0.2,0,0.3-0.07,0.35-0.1c0.05,0.04,0.15,0.1,0.35,0.1l0.09,0v0.64h-0.48h-0.4V71.15z M118.09,72.09v0.47
			h-0.3v0.2l-0.32,0v-0.19h-0.25v-0.47H118.09z M116.49,71.8v-0.65h0.88v0.65h-0.43H116.49z M121.39,72.59l-0.27,0.4l-0.59,0.37
			l-2.22,0.02l-2.22-0.02l-0.59-0.37l-0.27-0.4h0.62l0.34,0.43l0.46,0.01v-0.18h0.53v0.19l0.9,0.02v-0.21h0.22h0.01h0.22v0.21
			l0.9-0.02v-0.19h0.53v0.18l0.46-0.01l0.34-0.43H121.39z"/>
		<path d="M120.29,80.92l-0.03,0v-0.17h-0.27v-0.47h0.52v-1.07v-0.16h-0.01h-0.39l-0.12,0v-0.36c0-0.1-0.04-0.18-0.12-0.23
			c-0.08-0.05-0.18-0.05-0.26,0c-0.08,0.04-0.13,0.13-0.13,0.23v0.37h-0.44c-0.15,0-0.15,0-0.35,0l-0.09,0v-0.37
			c0-0.09-0.05-0.18-0.13-0.23c-0.08-0.05-0.19-0.04-0.27,0c-0.08,0.05-0.12,0.13-0.12,0.22v0.37l-0.09,0c-0.2,0-0.35,0-0.35,0
			h-0.43v-0.37c0-0.09-0.05-0.18-0.13-0.23c-0.08-0.05-0.19-0.04-0.27,0c-0.08,0.05-0.12,0.13-0.12,0.22v0.37h-0.52v1.23h0.52v0.47
			h-0.35v0.17l-0.03,0l-0.34-0.44h-1.31l0.6,0.87l0.73,0.47l2.3,0.02h0h0l2.3-0.02l0.73-0.47l0.6-0.87h-1.31L120.29,80.92z
			 M119.33,79.34h0.44h0.33l0.11,0v0.64h-0.52h-0.36V79.34z M119.48,80.28v0.47h-0.34v0.19l-0.32,0v-0.2h-0.22v-0.47H119.48z
			 M117.91,79.34l0.09,0c0.2,0,0.3-0.07,0.35-0.1c0.05,0.04,0.15,0.1,0.35,0.1l0.09,0v0.64h-0.48h-0.4V79.34z M118.09,80.28v0.47
			h-0.3v0.2l-0.32,0v-0.19h-0.25v-0.47H118.09z M116.49,79.99v-0.65h0.88v0.65h-0.43H116.49z M121.39,80.77l-0.27,0.39l-0.59,0.37
			l-2.22,0.02l-2.22-0.02l-0.59-0.37l-0.27-0.39h0.62l0.34,0.43l0.46,0.01v-0.18h0.53v0.19l0.9,0.02v-0.21h0.22h0.01h0.22v0.21
			l0.9-0.02v-0.19h0.53v0.18l0.46-0.01l0.34-0.43H121.39z"/>
		<path d="M113.56,36.72L113.56,36.72C113.55,36.71,113.55,36.72,113.56,36.72"/>
		<rect x="78.95" y="173.88" class="st14" width="39.26" height="6.81"/>
		<rect x="118.2" y="173.88" class="st15" width="19.61" height="6.81"/>
		<rect x="137.81" y="173.88" class="st16" width="19.61" height="6.81"/>
	</g>
</g>
<g id="Capa_2">
</g>
</svg>
