<?xml version="1.0" encoding="utf-8"?>
<!-- Generator: Adobe Adobe Illustrator 24.2.0, SVG Export Plug-In . SVG Version: 6.00 Build 0)  -->
<svg version="1.1" id="Layer_2_1_" xmlns="http://www.w3.org/2000/svg" xmlns:xlink="http://www.w3.org/1999/xlink" x="0px" y="0px"
	 width="533.1px" height="256.3px" viewBox="0 0 533.1 256.3" style="enable-background:new 0 0 533.1 256.3;" xml:space="preserve"
	>
<style type="text/css">
	.st0{fill:#142138;stroke:#000000;stroke-miterlimit:10;}
	.st1{fill:#F48C5F;stroke:#000000;stroke-miterlimit:10;}
	.st2{fill:#FFC716;stroke:#000000;stroke-miterlimit:10;}
	.st3{fill:#F48C5F;}
	.st4{fill:#FFC716;}
	.st5{fill:#FFFFFF;}
	.st6{fill:#FCF7EC;}
	.st7{fill:#142138;}
	.st8{fill:#F48C5F;stroke:#F48C5F;stroke-width:2;stroke-miterlimit:10;}
	.st9{fill:#FFFFFF;stroke:#FFFFFF;stroke-width:2;stroke-miterlimit:10;}
	.st10{fill:none;}
</style>
<g>
	<g>
		<path class="st5" d="M282.9,148.8c-3.9,2-8.3,2.9-13.3,2.9c-5.5,0-9.8-1.5-13-4.6c-3.2-3.1-4.8-8-4.8-14.8v-18.9h-8.5v-12.7h8.5
			V88.3l15.8-1.7v14.2h12.5v12.7h-12.5v18.9c0,2,0.5,3.5,1.5,4.5c1,1,2.4,1.5,4.1,1.5c2,0,3.9-0.5,5.8-1.4L282.9,148.8L282.9,148.8z
			"/>
		<path class="st5" d="M328,102.7c4,2.1,7,5,9.2,8.7s3.2,8.1,3.2,13.1c0,1.6-0.2,3.6-0.5,6h-36.8c0.5,2.6,1.9,4.6,4.1,6.2
			s5.2,2.4,8.8,2.4c2.5,0,4.9-0.4,7.3-1.1c2.4-0.7,4.4-1.8,6.1-3.1l8.3,8.9c-2.8,2.6-6.2,4.7-10.1,6.1c-3.9,1.4-8,2.1-12.4,2.1
			c-5.8,0-10.8-1.1-15.1-3.2c-4.3-2.1-7.5-5.1-9.8-9.1c-2.3-3.9-3.4-8.5-3.4-13.9c0-5.3,1.1-9.7,3.4-13.7c2.3-4,5.4-7.1,9.5-9.3
			c4-2.2,8.8-3.3,14.1-3.3S324,100.6,328,102.7L328,102.7z M306.6,114.6c-2,1.6-3.1,3.9-3.4,6.8h22.1c-0.2-2.9-1.3-5.2-3.2-6.8
			s-4.5-2.4-7.8-2.4S308.6,113,306.6,114.6L306.6,114.6z"/>
		<path class="st5" d="M349.2,79.8h15.9v70.9h-15.9V79.8z"/>
		<path class="st5" d="M429.5,100.7v50h-13.8l-1-6c-4.2,4.7-9.8,7-16.6,7c-4.7,0-8.8-1.1-12.4-3.3c-3.6-2.2-6.4-5.3-8.5-9.2
			s-3-8.5-3-13.5c0-5.1,1-9.6,3-13.5c2-3.9,4.9-7,8.5-9.2c3.6-2.2,7.8-3.3,12.4-3.3c3.4,0,6.5,0.6,9.3,1.8s5.3,2.9,7.3,5.1l1-5.9
			L429.5,100.7L429.5,100.7z M410.5,134.9c2.2-2.3,3.3-5.4,3.3-9.2c0-3.8-1.1-6.8-3.3-9.2s-5.1-3.5-8.6-3.5s-6.4,1.2-8.6,3.6
			c-2.2,2.4-3.3,5.4-3.3,9.1s1.1,6.8,3.3,9.1c2.2,2.4,5,3.6,8.6,3.6S408.2,137.2,410.5,134.9L410.5,134.9z"/>
		<path class="st5" d="M476.8,100.9c2.3,0.8,4.3,2.1,6,3.7l-6.7,11.7c-1.4-0.9-2.7-1.5-4-1.9s-2.5-0.6-3.9-0.6c-3.4,0-6,1.1-8,3.2
			c-2,2.2-2.9,5.3-2.9,9.5v24.3h-15.9v-50h13.9l1.2,6.3c3.2-4.9,7.7-7.4,13.4-7.4C472.2,99.6,474.5,100,476.8,100.9z"/>
	</g>
	<g>
		<path class="st3" d="M139.1,211.4l-25.3-25.3c-1.6,0.7-3.2,1.3-4.9,1.7l30.2,30.2l30.2-30.2c-1.7-0.4-3.4-1-4.9-1.7L139.1,211.4
			L139.1,211.4z"/>
		<path class="st3" d="M139.1,38.7l25.4,25.4c1.6-0.7,3.2-1.3,4.9-1.7l-30.3-30.3l-30.3,30.3c1.7,0.4,3.3,1,4.9,1.7L139.1,38.7z"/>
		<path class="st3" d="M201.8,155.4l30.3-30.3l-30.2-30.2c-0.4,1.7-1,3.4-1.7,4.9l25.3,25.3l-25.4,25.4"/>
		<path class="st3" d="M52.8,125.1l25.3-25.3c-0.7-1.6-1.3-3.2-1.7-4.9l-30.2,30.2l30.3,30.3c0.4-1.7,1-3.3,1.7-4.9L52.8,125.1z"/>
		<path class="st4" d="M83.1,140.5l-15.5-15.5l15.3-15.3l-3.2-3.2c-0.4-0.4-0.7-0.7-1-1.1l-19.5,19.5l19.7,19.7
			c0.3-0.3,0.5-0.6,0.8-0.9C79.7,143.9,83.1,140.5,83.1,140.5z"/>
		<path class="st4" d="M195.3,109.8l15.3,15.3l-15.5,15.5l3.4,3.4c0.3,0.3,0.6,0.6,0.8,0.9l19.7-19.7l-19.5-19.5
			c-0.3,0.4-0.7,0.7-1,1.1L195.3,109.8L195.3,109.8z"/>
		<path class="st4" d="M123.7,69.1l15.5-15.5l15.5,15.5l3.4-3.4c0.3-0.3,0.6-0.6,0.9-0.8l-19.7-19.7l-19.7,19.7
			c0.3,0.3,0.6,0.6,0.9,0.8L123.7,69.1L123.7,69.1z"/>
		<path class="st4" d="M154.4,181.3l-15.3,15.3l-15.3-15.3l-3.2,3.2c-0.3,0.4-0.7,0.7-1.1,1l19.5,19.5l19.5-19.5
			c-0.4-0.3-0.7-0.7-1.1-1L154.4,181.3L154.4,181.3z"/>
		<polygon class="st6" points="191.1,125.1 185.4,130.8 189.6,135 199.6,125.1 189.8,115.3 185.6,119.6 		"/>
		<polygon class="st6" points="139.1,73.1 144.8,78.8 149.1,74.6 139.1,64.6 129.2,74.6 133.4,78.8 		"/>
		<polygon class="st6" points="87.2,125.1 92.7,119.6 88.4,115.3 78.7,125.1 88.6,135 92.9,130.8 		"/>
		<polygon class="st6" points="139.2,177.1 133.5,171.4 129.3,175.7 139.2,185.6 149,175.9 144.7,171.6 		"/>
		<path class="st8" d="M192.7,86.1V71.5h-14.4c-3.9,0-7.6,1.5-10.4,4.3l-28.8,28.8l-28.8-28.8c-2.8-2.8-6.5-4.3-10.4-4.3H85.5v14.6
			c0,3.9,1.5,7.6,4.3,10.4l28.7,28.7l-28,28c-2.8,2.8-4.3,6.5-4.3,10.4V178h14.6c3.9,0,7.6-1.5,10.4-4.3l27.9-27.9l28.6,28.6
			c2.8,2.8,6.5,4.3,10.4,4.3h14.6v-14.4c0-3.9-1.5-7.6-4.3-10.4l-28.7-28.7l28.7-28.7C191.2,93.7,192.7,90,192.7,86.1L192.7,86.1z
			 M152.2,125.2l31.5,31.5c2.4,2.4,3.7,5.6,3.7,9v7.8h-8c-3.4,0-6.6-1.3-9-3.7l-31.4-31.4L108.4,169c-2.4,2.4-5.6,3.7-9,3.7h-8v-7.8
			c0-3.4,1.3-6.6,3.7-9l30.8-30.8L94.5,93.7c-2.4-2.4-3.7-5.6-3.7-9v-8h7.8c3.4,0,6.6,1.3,9,3.7l31.6,31.6l31.6-31.6
			c2.4-2.4,5.6-3.7,9-3.7h7.8v8c0,3.4-1.3,6.6-3.7,9L152.2,125.2L152.2,125.2z"/>
		<g>
			<path class="st10" d="M178.8,161.4c0.6,0.6,0.9,1.4,0.9,2.3v2h-2c-0.9,0-1.7-0.3-2.3-1l-36.3-36.3L103,164.6
				c-0.6,0.6-1.4,1-2.3,1h-2v-2c0-0.9,0.3-1.7,1-2.3l34.5-34.5h-23.1l-22.5,22.5c-4.7,4.7-7.3,11-7.3,17.7v16h16.4
				c6.6,0,13-2.6,17.7-7.3l23.8-23.8l23.8,23.8c4.7,4.7,11.1,7.3,17.7,7.3H197v-16c0-6.6-2.6-13-7.3-17.7l-22.5-22.5h-23.1
				L178.8,161.4z"/>
			<path class="st6" d="M99.6,161.3c-0.6,0.6-1,1.4-1,2.3v2h2c0.9,0,1.7-0.3,2.3-1l36.1-36.1l36.3,36.3c0.6,0.6,1.4,1,2.3,1h2v-2
				c0-0.9-0.3-1.7-0.9-2.3l-34.7-34.7h-10L99.6,161.3z"/>
			<path class="st10" d="M99.4,88.8c-0.6-0.6-1-1.4-1-2.3v-2h2c0.9,0,1.7,0.3,2.3,1l36.4,36.4l36.4-36.4c0.6-0.6,1.4-1,2.3-1h2v2
				c0,0.9-0.3,1.7-0.9,2.3c0,0-31.5,31.5-34.6,34.6h23.4l22.1-22.1c4.7-4.7,7.3-11.1,7.3-17.7V67.2h-16c-6.6,0-13,2.6-17.7,7.3
				l-24.2,24.2L115,74.5c-4.7-4.7-11.1-7.3-17.7-7.3h-16v16.4c0,6.6,2.6,13,7.3,17.7l22.1,22.1h23.4L99.4,88.8z"/>
			<path class="st6" d="M179.8,86.5v-2h-2c-0.9,0-1.7,0.3-2.3,1l-36.4,36.4l-36.4-36.4c-0.6-0.6-1.4-1-2.3-1h-2v2
				c0,0.9,0.3,1.7,1,2.3l34.6,34.6h10.1c3.1-3.1,34.6-34.6,34.6-34.6C179.4,88.2,179.8,87.4,179.8,86.5z"/>
			<path class="st6" d="M197,166.9v16h-16.4c-6.6,0-13-2.6-17.7-7.3l-23.8-23.8l-23.8,23.8c-4.7,4.7-11,7.3-17.7,7.3H81.2v-16
				c0-6.6,2.6-13,7.3-17.7l22.5-22.5h-8.5l-20,20c-4.7,4.7-7.3,11.1-7.3,17.7V189h24.9c6.6,0,13-2.6,17.7-7.3l21.3-21.3l21.3,21.3
				c4.7,4.7,11.1,7.3,17.7,7.3H203v-24.5c0-6.6-2.6-13-7.3-17.7l-20-20h-8.5l22.5,22.5C194.4,153.9,197,160.3,197,166.9z"/>
			<path class="st6" d="M81.2,83.6V67.2h16c6.6,0,13,2.6,17.7,7.3l24.2,24.2l24.2-24.2c4.7-4.7,11.1-7.3,17.7-7.3h16v16.4
				c0,6.7-2.6,13-7.3,17.7l-22.1,22.1h8.5l19.6-19.6c4.7-4.7,7.3-11.1,7.3-17.7V61.2h-24.5c-6.6,0-13,2.6-17.7,7.3l-21.7,21.7
				l-21.7-21.7c-4.7-4.7-11.1-7.3-17.7-7.3H75.3v24.9c0,6.7,2.6,13,7.3,17.7l19.6,19.6h8.5l-22.1-22.1
				C83.9,96.6,81.2,90.2,81.2,83.6z"/>
		</g>
	</g>
</g>
</svg>
