<?xml version="1.0" encoding="UTF-8"?>
<svg id="Capa_1" xmlns="http://www.w3.org/2000/svg" version="1.1" viewBox="0 0 243 131">
  <!-- Generator: Adobe Illustrator 30.0.0, SVG Export Plug-In . SVG Version: 2.1.1 Build 123)  -->
  <defs>
    <style>
      .st0 {
        fill: #bd00d1;
      }

      .st1 {
        fill: #2d0947;
      }
    </style>
  </defs>
  <g>
    <path class="st1" d="M236.6,55.9c-.5-2-2.6-3.7-4.3-3.3-3.2.8-4.3,6.9-5.4,9.6-2.9,8.9-5,18.1-7.2,27.2-1.6,6.3-2.9,1.1-4-2.4-1.8-5.4-4.5-13.8-7-18.6-1.1-2.4-3-4.5-6-3.5-4.5,1.5-5,7.9-6.6,11.8-2.1,6.6-5.1,16.7-6.5,23.5-.5,3.1-1.6,7.6,1.2,9.8,1.4.9,3.3.7,4.4-.3,3.5-4,5.2-14.4,6.8-20.7.5-1.6,1.4-7.9,3.5-5.1,2.8,6.2,4.3,13.5,7.4,19.5,1,2,2,4.1,3.8,5.5,2.3,1.8,5.9,1.4,7.5-1,1-1.5,1.6-3.1,2.1-4.9,1.8-7.6,3.2-15.7,4.9-23.5,1-5,2.8-9.9,4.3-14.7.8-2.9,1.7-5.7,1.1-8.6h0Z"/>
    <path class="st1" d="M62,79.5c-.4-2.3-1.8-4.5-3.9-5.5-7-3.4-14.8,11.7-19.4,18.9-.5.8-1.3,2-2.1,2-1.5-.1-1.7-3.4-2.4-4.9-3.1-9.9-8.8-22.5-14.8-8.6-3.1,7.4-13.2,37.9-9.7,44.3.8,1.4,2.6,1.6,3.9.6,1.9-1.4,2.4-4.1,2.8-6.2.5-2.7,1.7-5.3,2.2-8.1.2-2.2,6.2-27,8.1-14.9.6,3.5.9,9.2,2.9,11.8,3,3.2,7.9.1,9.8-3,2.8-4.8,6.2-9.1,9.4-13.6,1.6-2.6,5.3-6.8,4.3-.5-1.4,7.2-6.5,26.3-2.5,32.2,1.1,1.4,3.3,1.5,4.9.6,2.1-1.1,2.8-3.2,3.3-5.5,1.3-7.6,1-15.5,1.9-23.1.3-5.5,1.8-11,1.2-16.4h0Z"/>
    <path class="st1" d="M144.1,71.2c1.9-4.6-6.8-4.6-9.6-4.3-4.7.4-32.3,3.7-30.5,10.4.6,1.6,3.8,2.6,6.7,2.5,1.9,0,3.6-.6,5.2-1,1.3-.3,3-.2,2.9,1.5,0,1.1-.6,2.4-.8,3.5-.5,2.7-.8,5.3-1.7,7.4-.9,2.2-1.2,4.6-1.8,7-.8,3.7-2.1,7.2-2.4,11-.2,1.8-.6,3.8,0,5.4.7,2.5,3.2,2.9,5.1,1.6,1.9-1.1,2.9-2.9,3.4-5,2.4-7.8,2.9-14.9,4.8-23.1.6-2.5,1.3-5.3,1.9-7.7.5-1.8.5-3.4,2.1-4.2,3.4-1.1,8.8-1.7,12.3-3.2.9-.4,1.7-.9,2.2-1.6h0Z"/>
    <path class="st1" d="M189,81.4c.4-6.6-.9-11.6-7.1-14.9-5.1-1.9-8.9,0-12.5,3.7-9,7.3-16.1,27.9-7.8,36.9,8.3,8.1,16.7-1.1,21-8.5,3.2-5.2,6.2-10.9,6.5-17.1h0ZM181.4,80.4c-.4,3.2-1.7,6.4-2.5,9.6-.6,2-2,3.8-3,5.6-1,1.7-1.8,3.7-3.2,5.1-1.6,1.7-4.5,1.9-5.6-.4-.8-1.9-.7-4.1-.5-6.1.7-4.3,2.3-8.8,4.3-12.7,1.8-2.8,3.7-5.5,6.4-7.2,3.6-1.6,4.4,3.5,4.1,6.1h0Z"/>
    <path class="st1" d="M155.6,68c-1.1-1.1-2.6-1.5-4.1-.7-3.4,2.1-4.1,6.8-5.2,10.4-2.1,7.6-4,17.1-5.1,24.6-.3,2.8-1.3,5.9-.6,8.7.9,3.5,4.6,4.6,6.7,1.5,2.1-3.1,2.4-7.1,3-10.7.5-2.6.7-5.2,1-7.9,1.1-4.1,2.2-8.2,3.3-12.3.5-1.9,1.4-3.9,1.7-6,.4-2.8,1.5-5.5-.6-7.6h-.1Z"/>
    <path class="st1" d="M100.2,80.5c-2-4.2-7.6-6.8-11.9-6.2-3.3.5-5.7,3-8.4,5.1-8,6.9-13.9,18-12.3,29,.8,6.2,6.3,11.9,12.8,11.2,9.1-1.4,15.3-10.2,18.7-18.1.9-2.3,1.1-4.6,1.7-6.9,1.4-4.4,1.8-9.7-.5-13.9h0ZM91.9,95.2c-1.5,4.4-2.9,8.4-6.3,11.8-1.4,1.4-2.7,3-4.2,3.5-4.4,1.3-5.2-3.5-4.7-6.9.4-2.8.5-5.4,1.6-7.8,1.4-4.3,9.4-18,14.8-13.9.9,1.1.9,3,.7,4.9-.4,2.9-1.2,5.7-1.8,8.4h0Z"/>
  </g>
  <g>
    <path class="st0" d="M62.6,37.8c-6.4-1.2-15.3-.4-20.9,3.1-3.1,2.4-3.4,5.8,1.1,6.4,3.5.6,6.9-.8,10.2-1.7,3.1-.9,3.7,0,2,2.3-4.1,5.4-8.4,10-14.1,13.6-5.5,3.9-9.7,2.4-11.2-4-.8-5.4-.3-10.9,1.6-16,2-6.5,5.2-12.3,10.5-16.4,3.3-2.7,6.9-1.2,10.8-.2,5.2,1.3,8.6-3.3,4.3-7-4.2-3-11.2-4.1-16-1.7-3.5,2-32,27.7-14.6,53.9,5.7,8.6,19.5.6,26-5.8,5.1-5.1,9.3-12,13.3-18.3,2.7-4,2.2-6.8-3-8.2h-.1Z"/>
    <path class="st0" d="M155.1,22.7c-1.8,3-2.3,5.5-3.6,9.5-1.6,5.8-3.8,13.6-4.2,19.1-.2,4.7,4.6,6.1,7.6,2.5.8-.9,1.2-1.9,1.6-3,1.7-6.1,4.7-17.7,5.3-24.3.3-5-2.4-9.8-6.5-4h0Z"/>
    <path class="st0" d="M195.3,40.7c-.2-5.2,1.4-11.4-.5-16.6-1.3-3.6-5.2-4-8.1-1.9-3.5,2.6-6,6.8-9.5,9.5-.6.5-1.6,1.4-2.2,1.2-.1,0-.2-.2-.2-.4,0-.8.8-2.9,1.4-5,.7-2.5,1.3-6,.5-8.2-.5-1.8-2.4-2.6-4-1.5-3.4,2.7-4.7,7.9-6,11.9-1.8,7.1-4.6,14.5-4.1,21.9.6,5.8,6.3,3.8,8.8.4,3.5-4.4,6-9.6,10-13.5,1-1.1,2.5-3.4,4-3.1.6.2.5,1.6.2,3.2-.6,3.9-1.1,8.6-.3,12.6.4,1.7,1,3.4,2.4,4.5,2,1.5,5.3.8,6.5-1.5,2.1-4,.9-9.2,1-13.4h0Z"/>
    <path class="st0" d="M123.1,19.7c-3.1.2-3.2-1.7-2.7-4.1.7-2.6-.6-6.4-3.8-5-2.1,1-3.4,4.6-4.6,7-1.9,4.5-5.9,4.7-9.8,6.2-2.7,1-3.6,3.9-.9,5.4,1.8,1.1,4.4.3,5.3,2.2.3.9-.2,2.2-.7,3.1-3.9,7.9-10.4,14.2-17,19.6-2.8,2.3-13.1,9.4-13.2,1.9.2-3,3.1-3.2,5.4-4.2,1.1-.5,2.3-1.1,3.4-1.8,24.2-13.6,2.3-35.7-13.1-8.9-10.6,14.8-2.9,35.2,16.1,22.4,2.6-1.9,5.2-3.8,7.5-5.9,2-1.9,3.9-4,5.6-6.3.6-.6,1.2-1.5,2-1.8,1.3-.2.7,4.1,1.1,5.3.6,3.1,2,6.3,4.5,8.3,5.4,4.8,14,.5,16.4-6,.4-1.1.6-2.1.3-2.8-.3-1.2-2.5-.6-3.7.1-2.2,1-3.4,3.8-5.2,4.6-2.5.2-3-3.7-3.3-5.6-.7-6.9,1.2-13.8,2.7-20.6.9-5.1,4.1-5.2,8.8-6.1,3.9-1,8.1-1.1,10.4-4.2,3.2-6.2-7.9-3-11.4-3h-.2ZM87.9,34.9c1.5,4.3-5.2,10.8-9.5,10.3-.7-.3,0-1.6.9-3.3,1.2-2.1,6-8.8,8.5-7.1h0Z"/>
    <path class="st0" d="M162.8,15.1c.5-.7,1.3-.9,1.8-1.6.8-1.1,1.1-2.7.8-4-.7-4.3-6.2-3.5-7.3,1.4-.3,1.4-.4,3.4.3,4.6,1,1.9,3.4,1.2,4.4-.3h0Z"/>
  </g>
</svg>