<?xml version="1.0" encoding="UTF-8"?>
<svg id="Layer_2" data-name="Layer 2" xmlns="http://www.w3.org/2000/svg" viewBox="0 0 436.66 185.94">
  <defs>
    <style>
      .cls-1 {
        fill: #fbf7ed;
      }

      .cls-2 {
        fill: #f7c948;
      }

      .cls-3 {
        fill: #e69168;
      }

      .cls-4 {
        fill: #fff;
      }

      .cls-5 {
        fill: #282828;
      }

      .cls-6 {
        fill: #172238;
      }
    </style>
  </defs>
  <g id="Layer_1-2" data-name="Layer 1">
    <g>
      <g>
        <rect class="cls-1" x="13.01" y="12.51" width="159.91" height="160.92" rx="79.95" ry="79.95"/>
        <g>
          <path class="cls-3" d="M92.97,179.33l-25.29-25.29c-1.59.71-3.24,1.27-4.94,1.67l30.23,30.23,30.23-30.23c-1.7-.4-3.35-.96-4.94-1.67l-25.29,25.29Z"/>
          <path class="cls-3" d="M92.97,6.61l25.41,25.41c1.57-.73,3.21-1.3,4.89-1.72L92.97,0l-30.3,30.3c1.69.41,3.32.99,4.89,1.72l25.41-25.41Z"/>
          <path class="cls-3" d="M155.64,123.27l30.3-30.3-30.23-30.23c-.4,1.7-.96,3.35-1.67,4.94l25.3,25.3-25.41,25.41"/>
          <path class="cls-3" d="M6.61,92.97l25.3-25.3c-.71-1.59-1.27-3.24-1.67-4.94L0,92.97l30.3,30.3c.41-1.69.99-3.32,1.72-4.89l-25.41-25.41Z"/>
          <path class="cls-2" d="M36.97,108.44l-15.47-15.47,15.27-15.27-3.17-3.17c-.36-.36-.7-.72-1.04-1.1l-19.54,19.54,19.73,19.73c.27-.29.55-.59.83-.87l3.39-3.39Z"/>
          <path class="cls-2" d="M149.17,77.7l15.27,15.27-15.47,15.47,3.38,3.38c.29.29.56.58.84.88l19.73-19.73-19.54-19.54c-.34.37-.68.74-1.04,1.1l-3.17,3.17Z"/>
          <path class="cls-2" d="M77.5,36.97l15.47-15.47,15.47,15.47,3.38-3.38c.29-.29.59-.57.89-.85l-19.73-19.73-19.73,19.73c.3.28.6.56.89.85l3.38,3.38Z"/>
          <path class="cls-2" d="M108.24,149.17l-15.27,15.27-15.27-15.27-3.19,3.19c-.35.35-.71.69-1.08,1.03l19.54,19.54,19.54-19.54c-.37-.33-.73-.68-1.09-1.03l-3.18-3.18Z"/>
          <polygon class="cls-6" points="144.92 92.97 139.21 98.68 143.45 102.92 153.4 92.97 143.65 83.22 139.41 87.46 144.92 92.97"/>
          <polygon class="cls-6" points="92.97 41.03 98.68 46.73 102.92 42.49 92.97 32.54 83.02 42.49 87.26 46.73 92.97 41.03"/>
          <polygon class="cls-6" points="41.02 92.97 46.53 87.46 42.29 83.22 32.54 92.97 42.49 102.92 46.73 98.68 41.02 92.97"/>
          <polygon class="cls-6" points="93.07 145.02 87.36 139.31 83.12 143.55 93.07 153.5 102.82 143.75 98.58 139.51 93.07 145.02"/>
        </g>
        <path class="cls-6" d="M156.86,156.86v-24.51c0-6.64-2.64-13.01-7.33-17.7l-21.48-21.48,21.47-21.47c4.7-4.7,7.34-11.08,7.34-17.72v-24.9s-24.49,0-24.49,0c-6.65,0-13.02,2.64-17.72,7.34l-21.67,21.67-21.67-21.67c-4.7-4.7-11.08-7.34-17.72-7.34h-24.49s0,24.9,0,24.9c0,6.65,2.64,13.02,7.34,17.72l21.47,21.47-21.49,21.49c-4.69,4.69-7.32,11.05-7.32,17.68v24.52s24.92,0,24.92,0c6.63,0,12.99-2.63,17.68-7.32l21.29-21.29,21.28,21.28c4.69,4.69,11.06,7.33,17.7,7.33h24.91ZM42.41,117.14l23.97-23.97-23.96-23.96c-4.7-4.7-7.34-11.08-7.34-17.72v-16.41h16.01c6.65,0,13.02,2.64,17.72,7.34l24.16,24.16,24.16-24.16c4.7-4.7,11.08-7.34,17.72-7.34h16.01v16.41c0,6.65-2.64,13.02-7.34,17.72l-23.96,23.96,23.96,23.96c4.69,4.69,7.33,11.06,7.33,17.7v16.02h-16.42c-6.64,0-13.01-2.64-17.7-7.33l-23.77-23.77-23.77,23.77c-4.69,4.69-11.05,7.33-17.68,7.33h-16.43v-16.03c0-6.63,2.63-12.99,7.33-17.68Z"/>
        <path class="cls-3" d="M146.57,53.98v-14.61h-14.39c-3.93,0-7.62,1.53-10.4,4.31l-28.82,28.82-28.82-28.82c-2.78-2.78-6.47-4.31-10.4-4.31h-14.39v14.61c0,3.93,1.53,7.62,4.31,10.4l28.71,28.71-28.01,28.01c-2.77,2.77-4.3,6.46-4.3,10.37v14.4h14.62c3.92,0,7.6-1.53,10.37-4.3l27.9-27.9,28.6,28.6c2.77,2.77,6.46,4.3,10.38,4.3h14.62v-14.4c0-3.92-1.53-7.61-4.3-10.38l-28.71-28.71,28.71-28.71c2.78-2.78,4.31-6.47,4.31-10.4ZM106.09,93.08l31.48,31.48c2.4,2.4,3.72,5.58,3.72,8.97v7.76h-7.98c-3.39,0-6.57-1.32-8.97-3.72l-31.38-31.38-30.67,30.67c-2.39,2.39-5.58,3.71-8.96,3.71h-7.98v-7.77c0-3.38,1.32-6.57,3.71-8.96l30.78-30.78-31.48-31.48c-2.4-2.4-3.72-5.59-3.72-8.98v-7.97h7.75c3.39,0,6.58,1.32,8.98,3.72l31.59,31.59,31.59-31.59c2.4-2.4,5.59-3.72,8.98-3.72h7.75v7.97c0,3.39-1.32,6.58-3.72,8.98l-31.48,31.48Z"/>
        <path class="cls-6" d="M96.32,93l36.33,36.33c.61.61.95,1.43.95,2.29v1.98s-2.04,0-2.04,0c-.87,0-1.68-.34-2.29-.95l-36.3-36.3-36.12,36.12c-.61.61-1.42.95-2.29.95h-2.04s0-1.98,0-1.98c0-.86.34-1.68.95-2.29l36.15-36.15-36.33-36.33c-.61-.61-.95-1.43-.95-2.29v-2.04s1.98,0,1.98,0c.87,0,1.68.34,2.29.95l36.36,36.36,36.36-36.36c.61-.61,1.43-.95,2.29-.95h1.98s0,2.04,0,2.04c0,.87-.34,1.68-.95,2.29l-36.33,36.33Z"/>
        <rect class="cls-4" x="53.61" y="91.3" width="78.72" height="3.33"/>
      </g>
      <g>
        <path class="cls-5" d="M236.77,116.73c-3.92,1.96-8.34,2.94-13.27,2.94-5.47,0-9.79-1.54-12.97-4.61-3.18-3.07-4.76-8.02-4.76-14.84v-18.95h-8.51v-12.66h8.51v-12.46l15.8-1.72v14.18h12.46v12.66h-12.46v18.95c0,2.03.51,3.53,1.52,4.51,1.01.98,2.4,1.47,4.15,1.47,1.96,0,3.88-.47,5.77-1.42l3.75,11.96Z"/>
        <path class="cls-5" d="M281.85,70.58c3.99,2.06,7.04,4.96,9.17,8.71,2.13,3.75,3.19,8.12,3.19,13.12,0,1.62-.17,3.61-.51,5.98h-36.78c.47,2.57,1.86,4.64,4.15,6.23,2.29,1.59,5.23,2.38,8.81,2.38,2.5,0,4.93-.37,7.29-1.11,2.36-.74,4.39-1.79,6.08-3.14l8.31,8.92c-2.84,2.63-6.2,4.66-10.08,6.08-3.88,1.42-8.02,2.13-12.41,2.13-5.81,0-10.84-1.06-15.1-3.19-4.26-2.13-7.53-5.15-9.83-9.07-2.3-3.92-3.44-8.54-3.44-13.88s1.13-9.69,3.39-13.68c2.26-3.98,5.42-7.07,9.47-9.27,4.05-2.19,8.75-3.29,14.08-3.29s10.2,1.03,14.18,3.09ZM260.42,82.49c-1.99,1.62-3.12,3.88-3.39,6.79h22.09c-.2-2.9-1.27-5.17-3.19-6.79-1.92-1.62-4.51-2.43-7.75-2.43s-5.76.81-7.75,2.43Z"/>
        <path class="cls-5" d="M303.03,47.74h15.91v70.92h-15.91V47.74Z"/>
        <path class="cls-5" d="M383.37,68.61v50.05h-13.78l-1.01-5.98c-4.25,4.66-9.79,6.99-16.62,6.99-4.66,0-8.8-1.1-12.41-3.29-3.61-2.19-6.43-5.27-8.46-9.22-2.03-3.95-3.04-8.46-3.04-13.53s1.01-9.57,3.04-13.53c2.03-3.95,4.85-7.02,8.46-9.22,3.61-2.19,7.75-3.29,12.41-3.29,3.38,0,6.48.59,9.32,1.77,2.84,1.18,5.27,2.89,7.29,5.12l1.01-5.88h13.78ZM364.32,102.8c2.23-2.33,3.34-5.39,3.34-9.17s-1.12-6.84-3.34-9.17-5.1-3.5-8.61-3.5-6.37,1.18-8.56,3.55c-2.2,2.37-3.29,5.4-3.29,9.12s1.1,6.75,3.29,9.12c2.19,2.37,5.05,3.55,8.56,3.55s6.38-1.17,8.61-3.5Z"/>
        <path class="cls-5" d="M430.68,68.76c2.3.85,4.29,2.08,5.98,3.7l-6.69,11.65c-1.42-.88-2.74-1.52-3.95-1.92s-2.5-.61-3.85-.61c-3.38,0-6.05,1.08-8,3.24-1.96,2.16-2.94,5.34-2.94,9.52v24.32h-15.91v-50.05h13.88l1.22,6.28c3.24-4.93,7.7-7.4,13.37-7.4,2.3,0,4.59.42,6.89,1.27Z"/>
      </g>
    </g>
  </g>
</svg>